SplineFontDB: 3.0
FontName: PunkNova
FullName: Punk Nova
FamilyName: Punk Nova
Weight: Medium
Copyright: 
UComments: "2010-4-29: Created." 
Version: 001.000
ItalicAngle: 0
UnderlinePosition: -100
UnderlineWidth: 50
Ascent: 800
Descent: 200
LayerCount: 2
Layer: 0 0 "Back"  1
Layer: 1 0 "Fore"  0
NeedsXUIDChange: 1
XUID: [1021 980 1784858319 13034662]
OS2Version: 0
OS2_WeightWidthSlopeOnly: 0
OS2_UseTypoMetrics: 1
CreationTime: 1272545659
ModificationTime: 1272545673
OS2TypoAscent: 0
OS2TypoAOffset: 1
OS2TypoDescent: 0
OS2TypoDOffset: 1
OS2TypoLinegap: 0
OS2WinAscent: 0
OS2WinAOffset: 1
OS2WinDescent: 0
OS2WinDOffset: 1
HheadAscent: 0
HheadAOffset: 1
HheadDescent: 0
HheadDOffset: 1
OS2Vendor: 'PfEd'
Lookup: 3 0 0 "Randomize lookup"  {"Randomize subtable"  } ['rand' ('DFLT' <'dflt' > 'grek' <'dflt' > 'latn' <'dflt' > ) ]
Lookup: 258 0 0 "Kern lookup"  {"Kern subtable"  } ['kern' ('DFLT' <'dflt' > 'grek' <'dflt' > 'latn' <'dflt' > ) ]
DEI: 91125
Encoding: UnicodeBmp
UnicodeInterp: none
NameList: Adobe Glyph List
DisplaySize: -24
AntiAlias: 1
FitToEm: 1
BeginChars: 66715 1324

StartChar: exclam
Encoding: 33 33 0
Width: 214
VWidth: 0
Flags: W
VStem: 28 158
LayerCount: 2
Fore
SplineSet
158 225 m 1
 139 179 l 1
 93 160 l 1
 47 179 l 1
 28 225 l 1
 47 271 l 1
 66 279 l 1
 88 707 l 1
 75 712 l 1
 56 758 l 1
 75 804 l 1
 121 823 l 1
 167 804 l 1
 186 758 l 1
 167 712 l 1
 148 704 l 1
 126 276 l 1
 139 271 l 1
 158 225 l 1
175 21 m 1
 156 -25 l 1
 110 -44 l 1
 64 -25 l 1
 45 21 l 1
 64 67 l 1
 110 86 l 1
 156 67 l 1
 175 21 l 1
EndSplineSet
AlternateSubs2: "Randomize subtable" exclam.1 exclam.2 exclam.3 exclam.4 exclam.5 exclam.6 exclam.7 exclam.8 exclam.9
EndChar

StartChar: quotedbl
Encoding: 34 34 1
Width: 390
VWidth: 0
Flags: W
VStem: 30 330
LayerCount: 2
Fore
SplineSet
272 440 m 1
 253 394 l 1
 207 375 l 1
 161 394 l 1
 159 398 l 1
 141 353 l 1
 95 334 l 1
 49 353 l 1
 30 399 l 1
 49 445 l 1
 73 455 l 1
 89 568 l 1
 81 572 l 1
 62 617 l 1
 81 663 l 1
 127 682 l 1
 173 663 l 1
 192 617 l 1
 173 572 l 1
 149 562 l 1
 133 448 l 1
 141 445 l 1
 143 441 l 1
 161 486 l 1
 199 502 l 1
 247 621 l 1
 230 661 l 1
 249 707 l 1
 295 726 l 1
 340 707 l 1
 360 661 l 1
 340 615 l 1
 301 599 l 1
 255 482 l 1
 272 440 l 1
EndSplineSet
AlternateSubs2: "Randomize subtable" quotedbl.1 quotedbl.2 quotedbl.3 quotedbl.4 quotedbl.5 quotedbl.6 quotedbl.7 quotedbl.8 quotedbl.9
EndChar

StartChar: numbersign
Encoding: 35 35 2
Width: 525
VWidth: 0
Flags: W
HStem: 441 50<148 187 255 293> 510 20G<47 139 364 450> 664 50<280 302>
LayerCount: 2
Fore
SplineSet
497 259 m 1
 478 213 l 1
 432 194 l 1
 386 213 l 1
 380 229 l 1
 323 223 l 1
 290 -18 l 2
 287 -37 267 -41 255 -39 c 1
 254 -39 l 1
 206 -31 l 1
 201 -42 l 1
 155 -61 l 1
 109 -42 l 1
 90 4 l 1
 109 50 l 1
 133 60 l 1
 150 182 l 1
 104 163 l 1
 58 182 l 1
 39 228 l 1
 58 274 l 1
 104 293 l 1
 150 274 l 1
 157 258 l 1
 161 259 l 1
 187 441 l 1
 148 441 l 1
 139 419 l 1
 93 400 l 1
 47 419 l 1
 28 465 l 1
 47 511 l 1
 93 530 l 1
 139 511 l 1
 147 491 l 1
 194 491 l 1
 223 690 l 2
 224 698 234 711 252 712 c 2
 302 714 l 1
 312 738 l 1
 358 757 l 1
 404 738 l 1
 423 692 l 1
 404 646 l 1
 381 636 l 1
 364 518 l 1
 404 534 l 1
 450 515 l 1
 469 469 l 1
 450 423 l 1
 404 404 l 1
 358 423 l 1
 353 435 l 1
 331 275 l 1
 375 279 l 1
 386 305 l 1
 432 324 l 1
 478 305 l 1
 497 259 l 1
263 218 m 1
 215 213 l 1
 193 54 l 1
 201 50 l 1
 214 19 l 1
 235 15 l 1
 263 218 l 1
270 269 m 1
 293 443 l 1
 248 442 l 1
 223 265 l 1
 270 269 l 1
300 493 m 1
 321 642 l 1
 312 646 l 1
 304 665 l 1
 280 664 l 1
 255 492 l 1
 300 493 l 1
EndSplineSet
AlternateSubs2: "Randomize subtable" numbersign.1 numbersign.2 numbersign.3 numbersign.4 numbersign.5 numbersign.6 numbersign.7 numbersign.8 numbersign.9
EndChar

StartChar: dollar
Encoding: 36 36 3
Width: 418
VWidth: 0
Flags: W
VStem: 194 60<39 286> 205 58<399 474 567 670> 329 60<82.3008 230.72>
LayerCount: 2
Fore
SplineSet
302 780 m 1xa0
 283 734 l 1
 267 727 l 1
 342 700 375 625 357 557 c 1
 372 520 l 1
 353 474 l 1
 307 455 l 1
 261 474 l 1
 259 354 l 1
 312 315 366 269 384 200 c 0
 387 186 389 175 389 164 c 0
 393 73 326 -14 224 -17 c 0
 223 -17 l 0
 207 -17 192 -16 179 -13 c 0
 104 5 57 69 55 137 c 1
 47 140 l 1
 28 186 l 1
 47 232 l 1
 93 251 l 1
 139 232 l 1
 158 186 l 1
 139 140 l 1
 116 130 l 1
 120 86 151 49 194 37 c 1
 199 332 l 1
 143 373 76 423 53 501 c 0
 23 602 76 713 180 734 c 0
 183 735 187 736 190 736 c 1
 172 780 l 1
 191 826 l 1
 237 845 l 1
 283 826 l 1
 302 780 l 1xa0
258 286 m 1
 254 39 l 1
 297 55 331 102 329 162 c 0
 329 170 328 179 325 190 c 0
 315 228 291 258 258 286 c 1
223 -17 m 0
 224 -17 l 1
 223 -17 l 0
200 399 m 1
 205 687 l 1x60
 201 687 198 687 194 686 c 0
 137 674 86 597 111 513 c 0
 125 466 159 431 200 399 c 1
265 670 m 1
 263 567 l 1
 302 583 l 1
 305 616 291 650 265 670 c 1
EndSplineSet
AlternateSubs2: "Randomize subtable" dollar.1 dollar.2 dollar.3 dollar.4 dollar.5 dollar.6 dollar.7 dollar.8 dollar.9
EndChar

StartChar: percent
Encoding: 37 37 4
Width: 581
VWidth: 0
Flags: W
LayerCount: 2
Fore
SplineSet
196 -55 m 1
 177 -101 l 1
 131 -120 l 1
 85 -101 l 1
 66 -55 l 1
 85 -9 l 1
 124 7 l 1
 383 681 l 1
 333 660 276 660 224 682 c 1
 218 685 l 1
 250 564 l 2
 274 471 265 345 163 327 c 1
 52 313 22 410 31 493 c 0
 34 517 40 543 50 570 c 0
 69 623 90 676 113 730 c 1
 97 769 l 1
 116 815 l 1
 162 834 l 1
 208 815 l 1
 227 769 l 1
 218 747 l 1
 277 699 373 702 423 783 c 0
 434 800 456 800 469 791 c 0
 472 789 473 787 475 785 c 0
 479 780 481 772 478 765 c 0
 478 764 l 2
 179 -13 l 1
 196 -55 l 1
428 241 m 1
 399 177 356 92 363 10 c 0
 369 -59 400 -86 433 -84 c 0
 439 -84 443 -82 447 -81 c 0
 496 -66 507 44 454 169 c 0
 443 194 435 218 428 241 c 1
503 333 m 1
 484 287 l 1
 478 284 l 1
 486 250 496 219 510 185 c 0
 563 60 589 -121 437 -134 c 1
 350 -139 309 -67 303 6 c 0
 299 50 307 100 327 152 c 0
 346 199 366 248 388 296 c 1
 373 333 l 1
 392 379 l 1
 438 398 l 1
 484 379 l 1
 503 333 l 1
157 682 m 1
 107 555 l 2
 98 531 92 508 90 488 c 0
 82 414 109 378 139 376 c 0
 144 376 147 375 150 376 c 0
 185 382 217 458 192 554 c 0
 181 598 169 641 157 682 c 1
EndSplineSet
AlternateSubs2: "Randomize subtable" percent.1 percent.2 percent.3 percent.4 percent.5 percent.6 percent.7 percent.8 percent.9
EndChar

StartChar: ampersand
Encoding: 38 38 5
Width: 445
VWidth: 0
Flags: W
HStem: 479 20G<306 398> 774 20G<279 371>
VStem: 32 60<441 674> 38 60<96 341>
LayerCount: 2
Fore
SplineSet
414 -16 m 1xd0
 395 -62 l 1
 349 -81 l 1
 303 -62 l 1
 284 -16 l 1
 301 26 l 1
 234 196 l 1
 100 -13 l 2
 98 -16 91 -25 76 -26 c 0
 64 -27 44 -20 44 -1 c 2
 38 342 l 2
 37 345 37 348 38 351 c 2xd0
 32 696 l 2xe0
 32 706 39 719 57 721 c 2
 268 747 l 1
 279 775 l 1
 325 794 l 1
 371 775 l 1
 390 729 l 1
 371 683 l 1
 325 664 l 1
 317 667 l 1
 98 341 l 1
 102 96 l 1
 211 266 l 1
 212 270 215 273 218 276 c 2
 300 404 l 1
 287 434 l 1
 306 480 l 1
 352 499 l 1
 398 480 l 1
 417 434 l 1
 398 388 l 1
 352 369 l 1
 346 371 l 1
 273 257 l 1
 357 46 l 1
 395 30 l 1
 414 -16 l 1xd0
96 441 m 1
 268 697 l 1
 92 674 l 1xe0
 96 441 l 1
EndSplineSet
AlternateSubs2: "Randomize subtable" ampersand.1 ampersand.2 ampersand.3 ampersand.4 ampersand.5 ampersand.6 ampersand.7 ampersand.8 ampersand.9
EndChar

StartChar: quotesingle
Encoding: 39 39 6
Width: 194
VWidth: 0
Flags: W
VStem: 76 60<521 732>
LayerCount: 2
Fore
SplineSet
164 466 m 1
 145 420 l 1
 99 400 l 1
 54 420 l 1
 34 466 l 1
 54 511 l 1
 76 521 l 1
 82 590 81 661 73 732 c 1
 49 742 l 1
 30 788 l 1
 49 834 l 1
 95 853 l 1
 141 834 l 1
 160 788 l 1
 141 742 l 1
 133 739 l 1
 142 664 143 588 136 515 c 1
 145 511 l 1
 164 466 l 1
EndSplineSet
AlternateSubs2: "Randomize subtable" quotesingle.1 quotesingle.2 quotesingle.3 quotesingle.4 quotesingle.5 quotesingle.6 quotesingle.7 quotesingle.8 quotesingle.9
EndChar

StartChar: parenleft
Encoding: 40 40 7
Width: 261
VWidth: 0
Flags: W
LayerCount: 2
Fore
SplineSet
232 -3 m 1
 213 -48 l 1
 167 -68 l 1
 121 -48 l 1
 102 -3 l 1
 114 27 l 1
 6 213 2 450 108 643 c 1
 96 673 l 1
 115 719 l 1
 161 738 l 1
 207 719 l 1
 226 673 l 1
 207 627 l 1
 161 608 l 1
 157 610 l 1
 111 523 88 427 90 330 c 0
 92 234 117 142 162 60 c 1
 167 62 l 1
 213 43 l 1
 232 -3 l 1
EndSplineSet
AlternateSubs2: "Randomize subtable" parenleft.1 parenleft.2 parenleft.3 parenleft.4 parenleft.5 parenleft.6 parenleft.7 parenleft.8 parenleft.9
EndChar

StartChar: parenright
Encoding: 41 41 8
Width: 328
VWidth: 0
Flags: W
VStem: 238 60<218.403 468.572>
LayerCount: 2
Fore
SplineSet
164 9 m 1
 145 -37 l 1
 99 -56 l 1
 53 -37 l 1
 34 9 l 1
 53 55 l 1
 99 74 l 1
 122 64 l 1
 196 138 241 243 238 353 c 0
 235 457 191 556 117 627 c 1
 94 617 l 1
 48 636 l 1
 29 682 l 1
 48 728 l 1
 94 747 l 1
 140 728 l 1
 159 682 l 1
 154 669 l 1
 244 587 295 473 298 354 c 0
 301 227 249 108 158 23 c 1
 164 9 l 1
EndSplineSet
AlternateSubs2: "Randomize subtable" parenright.1 parenright.2 parenright.3 parenright.4 parenright.5 parenright.6 parenright.7 parenright.8 parenright.9
EndChar

StartChar: asterisk
Encoding: 42 42 9
Width: 423
VWidth: 0
Flags: W
VStem: 81 59<221.242 266.026>
LayerCount: 2
Fore
SplineSet
204 477 m 1
 199 459 l 1
 314 284 l 1
 270 569 l 1
 261 559 l 2
 240 536 220 508 204 477 c 1
178 611 m 1
 106 600 l 1
 155 526 l 1
 178 611 l 1
242 622 m 1
 242 619 l 1
 244 622 l 1
 242 622 l 1
328 814 m 1
 309 768 l 1
 301 765 l 1
 313 684 l 1
 331 687 l 2
 336 688 349 688 359 679 c 0
 367 672 374 655 356 643 c 2
 323 619 l 1
 393 160 l 2
 394 156 394 144 380 136 c 0
 370 131 348 129 337 145 c 2
 179 385 l 1
 140 240 l 2
 135 222 113 218 102 221 c 0
 84 226 81 241 81 246 c 0
 82 322 100 394 130 460 c 1
 34 606 l 2
 33 608 32 609 31 611 c 0
 28 620 32 639 54 643 c 2
 192 665 l 1
 220 767 l 1
 217 768 l 1
 198 814 l 1
 217 860 l 1
 263 879 l 1
 309 860 l 1
 328 814 l 1
EndSplineSet
AlternateSubs2: "Randomize subtable" asterisk.1 asterisk.2 asterisk.3 asterisk.4 asterisk.5 asterisk.6 asterisk.7 asterisk.8 asterisk.9
EndChar

StartChar: plus
Encoding: 43 43 10
Width: 437
VWidth: 0
Flags: W
HStem: 393 50<149 191 252 288> 462 21G<48 140 297 389>
VStem: 186 60<125 392> 191 60<178.6 392 443 546>
LayerCount: 2
Fore
SplineSet
290 599 m 1xd0
 271 553 l 1
 254 546 l 1
 252 442 l 1
 288 442 l 1
 297 463 l 1
 343 482 l 1
 389 463 l 1
 408 417 l 1
 389 371 l 1
 343 352 l 1
 297 371 l 1
 288 392 l 1
 251 392 l 1xd0
 246 124 l 1
 261 118 l 1
 280 72 l 1
 261 26 l 1
 215 7 l 1
 169 26 l 1
 150 72 l 1
 169 118 l 1
 186 125 l 1xe0
 191 393 l 1
 149 393 l 1
 140 372 l 1
 94 353 l 1
 48 372 l 1
 29 418 l 1
 48 464 l 1
 94 483 l 1
 140 464 l 1
 149 443 l 1
 192 443 l 1
 194 547 l 1
 179 553 l 1
 160 599 l 1
 179 645 l 1
 225 664 l 1
 271 645 l 1
 290 599 l 1xd0
EndSplineSet
AlternateSubs2: "Randomize subtable" plus.1 plus.2 plus.3 plus.4 plus.5 plus.6 plus.7 plus.8 plus.9
EndChar

StartChar: comma
Encoding: 44 44 11
Width: 210
VWidth: 0
Flags: W
HStem: -230 293
VStem: 36 138
LayerCount: 2
Fore
SplineSet
174 -165 m 1
 155 -211 l 1
 109 -230 l 1
 63 -211 l 1
 44 -165 l 1
 63 -119 l 1
 95 -106 l 1
 108 -64 l 1
 101 -67 l 1
 55 -48 l 1
 36 -2 l 1
 55 44 l 1
 101 63 l 1
 147 44 l 1
 166 -2 l 1
 156 -27 l 1
 167 -42 l 2
 172 -49 171 -57 170 -61 c 2
 153 -118 l 1
 155 -119 l 1
 174 -165 l 1
EndSplineSet
AlternateSubs2: "Randomize subtable" comma.1 comma.2 comma.3 comma.4 comma.5 comma.6 comma.7 comma.8 comma.9
EndChar

StartChar: hyphen
Encoding: 45 45 12
Width: 366
VWidth: 0
Flags: W
HStem: 215 223
VStem: 34 298
LayerCount: 2
Fore
SplineSet
332 373 m 1
 313 327 l 1
 267 308 l 1
 231 323 l 1
 162 285 l 1
 164 280 l 1
 145 234 l 1
 99 215 l 1
 53 234 l 1
 34 280 l 1
 53 326 l 1
 99 345 l 1
 135 330 l 1
 204 368 l 1
 202 373 l 1
 221 419 l 1
 267 438 l 1
 313 419 l 1
 332 373 l 1
EndSplineSet
AlternateSubs2: "Randomize subtable" hyphen.1 hyphen.2 hyphen.3 hyphen.4 hyphen.5 hyphen.6 hyphen.7 hyphen.8 hyphen.9
EndChar

StartChar: period
Encoding: 46 46 13
Width: 206
VWidth: 0
Flags: W
HStem: -166 130
VStem: 38 130
LayerCount: 2
Fore
SplineSet
168 -101 m 1
 149 -147 l 1
 103 -166 l 1
 57 -147 l 1
 38 -101 l 1
 57 -55 l 1
 103 -36 l 1
 149 -55 l 1
 168 -101 l 1
EndSplineSet
AlternateSubs2: "Randomize subtable" period.1 period.2 period.3 period.4 period.5 period.6 period.7 period.8 period.9
EndChar

StartChar: slash
Encoding: 47 47 14
Width: 368
VWidth: 0
Flags: W
VStem: 28 312
LayerCount: 2
Fore
SplineSet
340 691 m 1
 321 645 l 1
 292 633 l 1
 135 5 l 1
 139 3 l 1
 158 -43 l 1
 139 -89 l 1
 93 -108 l 1
 47 -89 l 1
 28 -43 l 1
 47 3 l 1
 77 16 l 1
 233 643 l 1
 229 645 l 1
 210 691 l 1
 229 737 l 1
 275 756 l 1
 321 737 l 1
 340 691 l 1
EndSplineSet
AlternateSubs2: "Randomize subtable" slash.1 slash.2 slash.3 slash.4 slash.5 slash.6 slash.7 slash.8 slash.9
EndChar

StartChar: zero
Encoding: 48 48 15
Width: 375
VWidth: 0
Flags: W
HStem: -4 49<133.647 233.282> 753 20G<117 209>
LayerCount: 2
Fore
SplineSet
175 576 m 1
 160 494 138 415 114 338 c 0
 104 307 97 277 93 249 c 0
 76 128 111 51 176 45 c 0
 189 44 198 46 207 48 c 0
 278 68 316 216 249 379 c 0
 222 445 197 511 175 576 c 1
228 708 m 1
 209 662 l 1
 211 654 l 1
 239 568 271 482 306 396 c 0
 372 235 363 38 227 0 c 0
 210 -5 191 -6 169 -4 c 0
 5 11 13 220 56 350 c 1
 87 447 112 547 126 650 c 1
 127 658 l 1
 117 662 l 1
 98 708 l 1
 117 754 l 1
 163 773 l 1
 209 754 l 1
 228 708 l 1
EndSplineSet
AlternateSubs2: "Randomize subtable" zero.1 zero.2 zero.3 zero.4 zero.5 zero.6 zero.7 zero.8 zero.9
EndChar

StartChar: one
Encoding: 49 49 16
Width: 276
VWidth: 0
Flags: W
VStem: 144 58<210.9 429 492 516 689 704.759> 152 60<9 429>
LayerCount: 2
Fore
SplineSet
248 -44 m 1x40
 229 -90 l 1
 183 -109 l 1
 137 -90 l 1
 118 -44 l 1
 137 2 l 1
 152 8 l 1x40
 145 429 l 1
 139 413 l 1
 93 394 l 1
 47 413 l 1
 28 459 l 1
 47 505 l 1
 83 520 l 1
 143 689 l 2
 149 707 172 709 183 705 c 0
 199 700 202 686 202 682 c 2x80
 212 9 l 1
 229 2 l 1
 248 -44 l 1x40
140 503 m 1
 144 492 l 1
 144 516 l 1x80
 140 503 l 1
EndSplineSet
AlternateSubs2: "Randomize subtable" one.1 one.2 one.3 one.4 one.5 one.6 one.7 one.8 one.9
EndChar

StartChar: two
Encoding: 50 50 17
Width: 363
VWidth: 0
Flags: W
VStem: 30 305
LayerCount: 2
Fore
SplineSet
335 -8 m 1
 316 -54 l 1
 270 -73 l 1
 224 -54 l 1
 211 -23 l 1
 52 4 l 2
 51 4 50 5 49 5 c 0
 38 8 22 21 30 38 c 2
 202 402 l 1
 255 511 241 613 190 630 c 0
 151 643 113 620 104 576 c 0
 102 566 102 555 104 545 c 1
 112 549 l 1
 158 529 l 1
 177 484 l 1
 158 438 l 1
 112 419 l 1
 66 438 l 1
 47 484 l 1
 56 505 l 1
 42 531 40 559 45 584 c 0
 58 645 128 705 213 677 c 0
 327 639 309 489 258 384 c 1
 99 47 l 1
 219 27 l 1
 224 38 l 1
 270 57 l 1
 316 38 l 1
 335 -8 l 1
EndSplineSet
AlternateSubs2: "Randomize subtable" two.1 two.2 two.3 two.4 two.5 two.6 two.7 two.8 two.9
EndChar

StartChar: three
Encoding: 51 51 18
Width: 344
VWidth: 0
Flags: W
HStem: 4 50<159.003 232.76>
VStem: 255 60<76.6973 241.265>
LayerCount: 2
Fore
SplineSet
193 140 m 1
 174 94 l 1
 153 85 l 1
 160 67 176 54 197 54 c 0
 226 55 259 94 255 160 c 0
 255 163 255 167 254 173 c 0
 243 249 199 317 134 356 c 1
 134 356 132 356 127 361 c 0
 120 369 116 387 135 397 c 0
 180 421 216 462 234 515 c 0
 258 586 228 650 185 659 c 0
 141 668 106 644 94 600 c 0
 87 575 89 547 103 526 c 1
 131 538 l 1
 177 519 l 1
 196 473 l 1
 177 427 l 1
 131 408 l 1
 85 427 l 1
 66 473 l 1
 69 480 l 1
 30 517 23 569 35 611 c 0
 52 670 113 725 199 708 c 0
 300 688 318 579 292 501 c 0
 275 449 240 405 199 375 c 1
 263 325 302 255 313 179 c 0
 314 172 315 167 315 163 c 0
 319 93 287 8 200 4 c 0
 183 3 170 6 159 10 c 0
 119 24 96 55 91 90 c 1
 82 94 l 1
 63 140 l 1
 82 186 l 1
 128 205 l 1
 174 186 l 1
 193 140 l 1
EndSplineSet
AlternateSubs2: "Randomize subtable" three.1 three.2 three.3 three.4 three.5 three.6 three.7 three.8 three.9
EndChar

StartChar: four
Encoding: 52 52 19
Width: 395
VWidth: 0
Flags: W
LayerCount: 2
Fore
SplineSet
182 244 m 1
 200 520 l 1
 101 230 l 1
 182 244 l 1
259 -54 m 1
 240 -100 l 1
 194 -119 l 1
 148 -100 l 1
 129 -54 l 1
 148 -8 l 1
 167 -0 l 1
 179 193 l 1
 64 173 l 2
 38 169 23 187 29 204 c 2
 215 745 l 2
 221 763 243 765 254 762 c 0
 271 757 274 741 274 737 c 2
 243 255 l 1
 244 255 l 1
 256 285 l 1
 302 304 l 1
 348 285 l 1
 367 239 l 1
 348 194 l 1
 302 174 l 1
 256 194 l 1
 251 205 l 1
 240 203 l 1
 227 -3 l 1
 240 -8 l 1
 259 -54 l 1
EndSplineSet
AlternateSubs2: "Randomize subtable" four.1 four.2 four.3 four.4 four.5 four.6 four.7 four.8 four.9
EndChar

StartChar: five
Encoding: 53 53 20
Width: 364
VWidth: 0
Flags: W
VStem: 28 304
LayerCount: 2
Fore
SplineSet
158 145 m 1
 139 99 l 1
 114 89 l 1
 119 60 143 35 173 30 c 1
 217 25 262 59 273 133 c 0
 278 169 274 212 257 255 c 0
 221 343 154 415 68 456 c 0
 59 460 50 470 54 483 c 2
 120 718 l 2
 123 728 137 743 158 737 c 2
 194 727 l 1
 197 734 l 1
 243 753 l 1
 289 734 l 1
 308 688 l 1
 289 642 l 1
 243 623 l 1
 197 642 l 1
 182 678 l 1
 171 681 l 1
 117 489 l 1
 209 440 277 362 314 270 c 0
 334 219 339 170 332 127 c 0
 319 45 261 -30 166 -20 c 0
 154 -19 145 -16 137 -13 c 0
 84 5 55 50 53 97 c 1
 47 99 l 1
 28 145 l 1
 47 191 l 1
 93 210 l 1
 139 191 l 1
 158 145 l 1
EndSplineSet
AlternateSubs2: "Randomize subtable" five.1 five.2 five.3 five.4 five.5 five.6 five.7 five.8 five.9
EndChar

StartChar: six
Encoding: 54 54 21
Width: 254
VWidth: 0
Flags: W
LayerCount: 2
Fore
SplineSet
158 428 m 1
 162 421 160 417 160 416 c 2
 144 256 l 1
 149 231 156 207 168 185 c 0
 199 124 220 27 146 2 c 0
 138 -1 128 -3 115 -2 c 0
 107 -1 100 0 94 2 c 1
 92 3 l 2
 90 4 88 4 86 5 c 2
 48 21 l 1
 29 67 l 1
 44 102 l 1
 45 112 46 121 48 130 c 0
 54 162 61 195 67 230 c 2
 79 302 l 1
 78 338 84 373 95 406 c 1
 109 500 119 595 127 691 c 1
 115 696 l 1
 96 742 l 1
 115 788 l 1
 161 807 l 1
 207 788 l 1
 226 742 l 1
 207 696 l 1
 187 688 l 1
 180 600 170 513 158 428 c 1
131 117 m 1
 130 120 l 1
 130 117 l 1
 131 117 l 1
EndSplineSet
AlternateSubs2: "Randomize subtable" six.1 six.2 six.3 six.4 six.5 six.6 six.7 six.8 six.9
EndChar

StartChar: seven
Encoding: 55 55 22
Width: 319
VWidth: 0
Flags: W
HStem: 772 20G<48 140>
VStem: 149 60<108 325.674>
LayerCount: 2
Fore
SplineSet
243 55 m 1
 224 9 l 1
 178 -10 l 1
 132 9 l 1
 113 55 l 1
 132 101 l 1
 149 108 l 1
 153 304 177 499 224 694 c 1
 147 699 l 1
 140 682 l 1
 94 662 l 1
 48 682 l 1
 29 727 l 1
 48 773 l 1
 94 792 l 1
 140 773 l 1
 150 749 l 1
 262 742 l 2
 284 741 292 723 290 713 c 1
 290 712 l 1
 240 513 213 310 209 107 c 1
 224 101 l 1
 243 55 l 1
EndSplineSet
AlternateSubs2: "Randomize subtable" seven.1 seven.2 seven.3 seven.4 seven.5 seven.6 seven.7 seven.8 seven.9
EndChar

StartChar: eight
Encoding: 56 56 23
Width: 355
VWidth: 0
Flags: W
HStem: -42 50<140.803 221.299>
VStem: 251 60<39.2656 256.456>
LayerCount: 2
Fore
SplineSet
181 385 m 1
 146 337 129 272 115 204 c 0
 93 100 124 16 171 9 c 0
 173 9 176 8 180 8 c 0
 219 8 251 48 251 132 c 0
 251 160 247 192 238 225 c 0
 223 280 208 337 181 385 c 1
222 428 m 1
 262 367 279 299 296 236 c 0
 306 199 311 164 311 132 c 0
 311 48 278 -42 180 -42 c 0
 172 -42 166 -41 161 -40 c 0
 47 -24 35 114 56 213 c 0
 72 290 93 371 148 433 c 1
 124 461 92 488 65 526 c 0
 0 619 35 700 100 732 c 0
 126 744 160 749 188 739 c 1
 206 746 l 1
 252 727 l 1
 271 681 l 1
 317 647 338 589 318 533 c 0
 300 483 255 455 222 428 c 1
147 695 m 1
 142 694 136 692 130 689 c 0
 97 673 64 625 116 551 c 0
 136 523 164 499 189 471 c 1
 224 499 250 518 260 547 c 0
 261 551 263 554 263 556 c 0
 270 586 261 613 244 632 c 1
 206 616 l 1
 160 635 l 1
 141 681 l 1
 147 695 l 1
EndSplineSet
AlternateSubs2: "Randomize subtable" eight.1 eight.2 eight.3 eight.4 eight.5 eight.6 eight.7 eight.8 eight.9
EndChar

StartChar: nine
Encoding: 57 57 24
Width: 327
VWidth: 0
Flags: W
HStem: 669 49<121.889 201.969>
VStem: 237 60<341.104 628.727>
LayerCount: 2
Fore
SplineSet
228 -29 m 1
 209 -75 l 1
 163 -94 l 1
 117 -75 l 1
 98 -29 l 1
 117 17 l 1
 149 30 l 1
 166 93 180 157 193 220 c 1
 175 212 l 1
 129 231 l 1
 110 277 l 1
 120 301 l 1
 78 360 49 428 35 500 c 0
 18 586 40 704 145 718 c 0
 148 718 152 719 159 719 c 0
 261 721 295 622 297 537 c 0
 297 521 297 505 295 486 c 0
 276 319 247 168 207 18 c 1
 209 17 l 1
 228 -29 l 1
213 326 m 1
 222 381 230 436 235 490 c 0
 237 507 237 522 237 536 c 0
 234 624 199 670 160 669 c 1
 154 669 l 1
 112 664 78 594 94 508 c 0
 106 446 130 388 164 338 c 1
 175 342 l 1
 213 326 l 1
EndSplineSet
AlternateSubs2: "Randomize subtable" nine.1 nine.2 nine.3 nine.4 nine.5 nine.6 nine.7 nine.8 nine.9
EndChar

StartChar: colon
Encoding: 58 58 25
Width: 242
VWidth: 0
Flags: W
VStem: 34 174
LayerCount: 2
Fore
SplineSet
164 281 m 1
 145 235 l 1
 99 216 l 1
 53 235 l 1
 34 281 l 1
 53 327 l 1
 99 346 l 1
 145 327 l 1
 164 281 l 1
208 11 m 1
 189 -35 l 1
 143 -54 l 1
 97 -35 l 1
 78 11 l 1
 97 57 l 1
 143 76 l 1
 189 57 l 1
 208 11 l 1
EndSplineSet
AlternateSubs2: "Randomize subtable" colon.1 colon.2 colon.3 colon.4 colon.5 colon.6 colon.7 colon.8 colon.9
EndChar

StartChar: semicolon
Encoding: 59 59 26
Width: 201
VWidth: 0
Flags: W
VStem: 36 130
LayerCount: 2
Fore
SplineSet
166 274 m 1
 147 228 l 1
 101 209 l 1
 55 228 l 1
 36 274 l 1
 55 320 l 1
 101 339 l 1
 147 320 l 1
 166 274 l 1
164 -205 m 1
 145 -251 l 1
 99 -270 l 1
 53 -251 l 1
 34 -205 l 1
 53 -159 l 1
 82 -147 l 1
 90 -109 l 1
 81 -57 l 1
 56 -47 l 1
 37 -1 l 1
 56 45 l 1
 102 64 l 1
 148 45 l 1
 167 -1 l 1
 148 -47 l 1
 141 -50 l 1
 150 -106 l 2
 151 -109 150 -112 150 -114 c 2
 140 -157 l 1
 145 -159 l 1
 164 -205 l 1
EndSplineSet
AlternateSubs2: "Randomize subtable" semicolon.1 semicolon.2 semicolon.3 semicolon.4 semicolon.5 semicolon.6 semicolon.7 semicolon.8 semicolon.9
EndChar

StartChar: less
Encoding: 60 60 27
Width: 371
VWidth: 0
Flags: W
LayerCount: 2
Fore
SplineSet
342 69 m 1
 323 23 l 1
 277 4 l 1
 231 23 l 1
 212 69 l 1
 222 94 l 1
 34 348 l 2
 29 354 26 364 34 374 c 2
 218 614 l 1
 207 640 l 1
 226 685 l 1
 272 705 l 1
 318 685 l 1
 337 640 l 1
 318 594 l 1
 272 575 l 1
 261 579 l 1
 94 361 l 1
 266 130 l 1
 277 134 l 1
 323 115 l 1
 342 69 l 1
EndSplineSet
AlternateSubs2: "Randomize subtable" less.1 less.2 less.3 less.4 less.5 less.6 less.7 less.8 less.9
EndChar

StartChar: equal
Encoding: 61 61 28
Width: 376
VWidth: 0
Flags: W
HStem: 483 20G<50 142 234 326>
VStem: 31 314
LayerCount: 2
Fore
SplineSet
325 213 m 1
 306 167 l 1
 260 148 l 1
 214 167 l 1
 201 198 l 1
 170 205 l 1
 166 194 l 1
 120 175 l 1
 74 194 l 1
 55 240 l 1
 74 286 l 1
 120 305 l 1
 166 286 l 1
 179 254 l 1
 209 248 l 1
 214 259 l 1
 260 278 l 1
 306 259 l 1
 325 213 l 1
345 452 m 1
 326 406 l 1
 280 387 l 1
 234 406 l 1
 227 423 l 1
 152 417 l 1
 142 392 l 1
 96 373 l 1
 50 392 l 1
 31 438 l 1
 50 484 l 1
 96 503 l 1
 142 484 l 1
 149 467 l 1
 224 473 l 1
 234 498 l 1
 280 517 l 1
 326 498 l 1
 345 452 l 1
EndSplineSet
AlternateSubs2: "Randomize subtable" equal.1 equal.2 equal.3 equal.4 equal.5 equal.6 equal.7 equal.8 equal.9
EndChar

StartChar: greater
Encoding: 62 62 29
Width: 336
VWidth: 0
Flags: W
VStem: 29 276
LayerCount: 2
Fore
SplineSet
163 63 m 1
 144 17 l 1
 98 -2 l 1
 52 17 l 1
 33 63 l 1
 52 109 l 1
 98 128 l 1
 106 125 l 1
 244 325 l 1
 97 591 l 1
 94 590 l 1
 48 609 l 1
 29 655 l 1
 48 701 l 1
 94 720 l 1
 140 701 l 1
 159 655 l 1
 145 622 l 1
 305 334 l 2
 310 325 306 316 303 311 c 2
 151 91 l 1
 163 63 l 1
EndSplineSet
AlternateSubs2: "Randomize subtable" greater.1 greater.2 greater.3 greater.4 greater.5 greater.6 greater.7 greater.8 greater.9
EndChar

StartChar: question
Encoding: 63 63 30
Width: 332
VWidth: 0
Flags: W
HStem: 491 21G<48 140>
VStem: 242 60<399.557 640.255>
LayerCount: 2
Fore
SplineSet
244 10 m 1
 225 -36 l 1
 179 -55 l 1
 133 -36 l 1
 114 10 l 1
 133 56 l 1
 179 75 l 1
 225 56 l 1
 244 10 l 1
291 217 m 1
 272 171 l 1
 226 152 l 1
 181 171 l 1
 161 217 l 1
 181 263 l 1
 199 271 l 1
 208 364 238 453 242 542 c 0
 245 606 223 658 187 668 c 0
 159 676 128 661 115 628 c 0
 113 624 112 619 111 614 c 1
 140 602 l 1
 159 556 l 1
 140 510 l 1
 94 491 l 1
 48 510 l 1
 29 556 l 1
 48 602 l 1
 50 603 l 1
 50 618 53 631 58 644 c 0
 78 695 137 735 206 716 c 0
 291 693 305 604 302 540 c 0
 298 444 269 355 259 268 c 1
 272 263 l 1
 291 217 l 1
EndSplineSet
AlternateSubs2: "Randomize subtable" question.1 question.2 question.3 question.4 question.5 question.6 question.7 question.8 question.9
EndChar

StartChar: at
Encoding: 64 64 31
Width: 601
VWidth: 0
Flags: W
VStem: 177 59<456.91 506.514>
LayerCount: 2
Fore
SplineSet
345 22 m 1
 472 48 541 290 498 466 c 0
 461 616 362 700 249 681 c 0
 244 680 241 680 238 679 c 0
 121 651 57 503 106 361 c 0
 115 336 125 313 137 294 c 1
 177 487 l 2
 181 506 203 509 214 507 c 0
 230 504 235 491 236 487 c 2
 303 199 l 1
 333 187 l 1
 352 141 l 1
 333 95 l 1
 328 93 l 1
 345 22 l 1
186 234 m 1
 204 216 225 201 245 189 c 1
 208 344 l 1
 186 234 l 1
170 -8 m 1
 151 -54 l 1
 105 -73 l 1
 59 -54 l 1
 40 -8 l 1
 59 38 l 1
 87 50 l 1
 122 221 l 1
 119 225 115 229 110 235 c 0
 84 267 63 304 48 347 c 0
 -5 502 55 688 221 727 c 0
 225 728 230 729 237 730 c 0
 402 758 519 632 557 475 c 0
 575 399 577 313 557 223 c 0
 531 107 464 -30 321 -30 c 0
 312 -30 294 -25 291 -10 c 2
 269 83 l 1
 241 95 l 1
 222 141 l 1
 205 150 189 161 173 173 c 1
 146 40 l 1
 151 38 l 1
 170 -8 l 1
EndSplineSet
AlternateSubs2: "Randomize subtable" at.1 at.2 at.3 at.4 at.5 at.6 at.7 at.8 at.9
EndChar

StartChar: A
Encoding: 65 65 32
Width: 394
VWidth: 0
Flags: W
LayerCount: 2
Fore
SplineSet
323 381 m 1
 304 335 l 1
 290 329 l 1
 323 -1 l 1
 344 -10 l 1
 363 -56 l 1
 344 -102 l 1
 298 -121 l 1
 252 -102 l 1
 233 -56 l 1
 252 -10 l 1
 263 -6 l 1
 234 281 l 1
 187 198 l 1
 200 166 l 1
 181 120 l 1
 138 102 l 1
 133 72 l 1
 141 69 l 1
 160 23 l 1
 141 -23 l 1
 95 -42 l 1
 49 -23 l 1
 30 23 l 1
 49 69 l 1
 74 79 l 1
 83 136 l 1
 70 166 l 1
 89 212 l 1
 95 215 l 1
 185 773 l 2
 188 792 209 796 221 794 c 0
 239 791 245 777 245 772 c 2
 279 437 l 1
 304 427 l 1
 323 381 l 1
206 349 m 1
 193 381 l 1
 212 427 l 1
 219 430 l 1
 208 538 l 1
 167 280 l 1
 206 349 l 1
EndSplineSet
AlternateSubs2: "Randomize subtable" A.1 A.2 A.3 A.4 A.5 A.6 A.7 A.8 A.9
EndChar

StartChar: B
Encoding: 66 66 33
Width: 447
VWidth: 0
Flags: W
HStem: 773 20G<61 153>
VStem: 81 60<285.778 494 566 670> 90 60<18 388>
LayerCount: 2
Fore
SplineSet
64 490 m 0xc0
 52 489 38 493 32 506 c 0
 27 518 33 528 42 534 c 0
 44 535 45 536 47 537 c 0
 55 541 64 543 73 545 c 2
 80 547 l 1
 78 675 l 1
 61 682 l 1
 42 728 l 1
 61 774 l 1
 107 793 l 1
 153 774 l 1
 172 728 l 1
 167 716 l 1
 313 605 l 2
 326 597 329 572 303 563 c 2
 220 537 l 1
 323 504 400 414 412 304 c 0
 429 146 332 -1 181 -48 c 1
 167 -81 l 1
 121 -100 l 1
 75 -81 l 1
 56 -35 l 1
 75 11 l 1
 90 17 l 1xa0
 81 494 l 1
 78 493 l 1
 71 491 l 2
 69 490 67 490 64 490 c 0xc0
42 534 m 1
 32 528 27 518 32 506 c 1
 27 518 32 528 42 534 c 1
141 500 m 1xc0
 150 18 l 1xa0
 167 11 l 1
 170 4 l 1
 286 46 368 163 353 299 c 0
 340 415 248 496 141 500 c 1xc0
138 670 m 1
 140 566 l 1
 236 596 l 1
 138 670 l 1
EndSplineSet
AlternateSubs2: "Randomize subtable" B.1 B.2 B.3 B.4 B.5 B.6 B.7 B.8 B.9
EndChar

StartChar: C
Encoding: 67 67 34
Width: 368
VWidth: 0
Flags: W
HStem: 506 21G<217 309>
LayerCount: 2
Fore
SplineSet
337 140 m 1
 318 94 l 1
 309 90 l 1
 304 35 264 -17 197 -25 c 1
 102 -39 52 14 38 85 c 0
 18 184 48 332 67 469 c 0
 79 557 100 706 215 694 c 0
 221 693 228 692 237 689 c 0
 272 678 295 651 301 620 c 1
 309 617 l 1
 328 571 l 1
 309 525 l 1
 263 506 l 1
 217 525 l 1
 198 571 l 1
 217 617 l 1
 237 625 l 1
 231 636 220 644 208 644 c 1
 175 648 142 575 126 463 c 0
 106 325 80 178 97 94 c 0
 109 36 132 17 187 25 c 0
 191 26 194 26 196 27 c 0
 221 34 242 57 248 85 c 1
 226 94 l 1
 207 140 l 1
 226 186 l 1
 272 205 l 1
 318 186 l 1
 337 140 l 1
EndSplineSet
AlternateSubs2: "Randomize subtable" C.1 C.2 C.3 C.4 C.5 C.6 C.7 C.8 C.9
EndChar

StartChar: D
Encoding: 68 68 35
Width: 459
VWidth: 0
Flags: W
VStem: 67 60<31 274.588> 84 60<380.412 624> 367 60<240.134 467.257>
LayerCount: 2
Fore
SplineSet
175 690 m 1x60
 327 645 431 505 427 346 c 0
 422 180 317 30 157 -30 c 1
 141 -68 l 1
 95 -87 l 1
 49 -68 l 1
 30 -22 l 1
 49 24 l 1
 67 31 l 1xa0
 84 625 l 1
 70 631 l 1
 51 677 l 1
 70 723 l 1
 116 742 l 1
 162 723 l 1
 175 690 l 1x60
144 624 m 1x60
 127 30 l 1xa0
 141 24 l 1
 143 20 l 1
 273 74 362 201 367 348 c 0
 371 485 284 600 166 640 c 1
 162 631 l 1
 144 624 l 1x60
EndSplineSet
AlternateSubs2: "Randomize subtable" D.1 D.2 D.3 D.4 D.5 D.6 D.7 D.8 D.9
EndChar

StartChar: E
Encoding: 69 69 36
Width: 393
VWidth: 0
Flags: W
HStem: 467 20G<230 322> 746 20G<64 74>
VStem: 30 332
LayerCount: 2
Fore
SplineSet
341 422 m 1
 322 376 l 1
 276 357 l 1
 230 376 l 1
 223 392 l 1
 152 385 l 1
 141 358 l 1
 123 351 l 1
 142 27 l 1
 250 -11 l 1
 251 -9 l 1
 297 10 l 1
 343 -9 l 1
 362 -55 l 1
 343 -101 l 1
 297 -120 l 1
 251 -101 l 1
 234 -60 l 1
 101 -13 l 2
 88 -8 83 2 83 9 c 2
 63 352 l 1
 49 358 l 1
 30 404 l 1
 49 450 l 1
 57 453 l 1
 40 740 l 2
 39 759 58 766 70 766 c 0
 78 766 81 764 81 764 c 1
 235 711 l 1
 236 714 l 1
 282 733 l 1
 328 714 l 1
 347 668 l 1
 328 622 l 1
 282 603 l 1
 236 622 l 1
 219 663 l 1
 102 703 l 1
 116 460 l 1
 141 450 l 1
 147 435 l 1
 219 442 l 1
 230 468 l 1
 276 487 l 1
 322 468 l 1
 341 422 l 1
EndSplineSet
AlternateSubs2: "Randomize subtable" E.1 E.2 E.3 E.4 E.5 E.6 E.7 E.8 E.9
EndChar

StartChar: F
Encoding: 70 70 37
Width: 433
VWidth: 0
Flags: W
HStem: 460 20G<267 336> 460 20G<267 336> 469 52<155 203.905>
VStem: 79 59<16 422 538 659>
LayerCount: 2
Fore
SplineSet
355 415 m 1x90
 336 369 l 1
 290 350 l 1
 244 369 l 1
 225 415 l 1
 231 430 l 1
 209 446 184 459 157 468 c 0
 156 468 156 469 155 469 c 2x30
 141 434 l 1
 138 433 l 1
 142 16 l 1
 159 9 l 1
 178 -37 l 1
 159 -83 l 1
 113 -102 l 1
 67 -83 l 1
 48 -37 l 1
 67 9 l 1
 82 15 l 1
 79 422 l 1
 49 434 l 1
 30 480 l 1x50
 49 526 l 1
 77 538 l 1
 76 688 l 2
 76 707 96 714 108 713 c 1
 110 713 l 1
 285 693 l 1
 291 707 l 1
 337 726 l 1
 383 707 l 1
 402 661 l 1
 383 615 l 1
 337 596 l 1
 291 615 l 1
 280 642 l 1
 136 659 l 1
 137 528 l 1
 141 526 l 1
 143 521 l 1x30
 155 521 168 519 179 515 c 0
 211 504 241 488 267 470 c 1
 290 480 l 1
 336 461 l 1
 355 415 l 1x90
EndSplineSet
AlternateSubs2: "Randomize subtable" F.1 F.2 F.3 F.4 F.5 F.6 F.7 F.8 F.9
EndChar

StartChar: G
Encoding: 71 71 38
Width: 421
VWidth: 0
Flags: W
HStem: 491 21G<279 371> 690 50<167.076 272.603>
VStem: 32 60<143.511 570.731> 275 59<83.75 272> 282 60<53 268.25>
LayerCount: 2
Fore
SplineSet
379 0 m 1xe8
 360 -46 l 1
 314 -65 l 1
 268 -46 l 1
 262 -32 l 1
 251 -34 l 2
 123 -51 69 55 48 165 c 0
 36 227 32 299 32 370 c 0
 33 523 46 740 218 740 c 2
 232 740 l 1
 309 734 362 673 364 605 c 1
 371 602 l 1
 390 556 l 1
 371 510 l 1
 325 491 l 1
 279 510 l 1
 260 556 l 1
 279 602 l 1
 304 612 l 1
 299 655 264 687 226 690 c 1
 218 690 l 1
 125 691 93 543 92 369 c 0
 92 299 96 231 107 173 c 0
 129 59 173 7 242 16 c 2
 256 18 l 1
 268 46 l 1
 282 52 l 1xe8
 275 272 l 1
 272 272 l 1
 261 246 l 1
 215 227 l 1
 169 246 l 1
 150 292 l 1
 169 338 l 1
 215 357 l 1
 261 338 l 1
 268 321 l 1
 301 324 l 2
 324 326 334 308 334 299 c 2xf0
 342 53 l 1
 360 46 l 1
 379 0 l 1xe8
EndSplineSet
AlternateSubs2: "Randomize subtable" G.1 G.2 G.3 G.4 G.5 G.6 G.7 G.8 G.9
EndChar

StartChar: H
Encoding: 72 72 39
Width: 441
VWidth: 0
Flags: W
HStem: 394 50<176 307> 752 20G<294 386>
VStem: 67 60<52 271.5> 77 60<271.5 366 481 612> 85 60<481 631> 307 60<41 394 444 654>
LayerCount: 2
Fore
SplineSet
405 707 m 1xcc
 386 661 l 1
 369 654 l 1
 367 576 366 497 367 418 c 0
 368 293 369 168 373 41 c 1
 391 34 l 1
 410 -12 l 1
 391 -58 l 1
 345 -77 l 1
 299 -58 l 1
 280 -12 l 1
 299 34 l 1
 313 40 l 1
 310 159 308 277 307 394 c 1
 175 397 l 1
 167 378 l 1
 137 366 l 1xd4
 127 51 l 1
 141 45 l 1
 160 -1 l 1
 141 -47 l 1
 95 -66 l 1
 49 -47 l 1
 30 -1 l 1
 49 45 l 1
 67 52 l 1xe4
 77 377 l 1xd4
 75 378 l 1
 56 424 l 1
 75 470 l 1
 80 472 l 1
 85 632 l 1
 71 638 l 1
 52 684 l 1
 71 730 l 1
 117 749 l 1
 163 730 l 1
 182 684 l 1
 163 638 l 1
 145 631 l 1
 141 481 l 1
 167 470 l 1
 176 447 l 1
 307 444 l 1
 307 515 307 585 309 655 c 1
 294 661 l 1
 275 707 l 1
 294 753 l 1
 340 772 l 1
 386 753 l 1
 405 707 l 1xcc
EndSplineSet
AlternateSubs2: "Randomize subtable" H.1 H.2 H.3 H.4 H.5 H.6 H.7 H.8 H.9
EndChar

StartChar: I
Encoding: 73 73 40
Width: 207
VWidth: 0
Flags: W
HStem: -156 21G<65 157> 745 20G<49 141>
VStem: 65 60<9.83833 647>
LayerCount: 2
Fore
SplineSet
160 700 m 1
 141 654 l 1
 124 647 l 1
 123 588 123 528 125 467 c 0
 127 390 123 312 125 234 c 0
 127 144 131 54 137 -37 c 1
 157 -45 l 1
 176 -91 l 1
 157 -137 l 1
 111 -156 l 1
 65 -137 l 1
 46 -91 l 1
 65 -45 l 1
 77 -40 l 1
 71 52 67 143 65 233 c 0
 63 313 67 390 65 466 c 0
 63 528 63 588 64 648 c 1
 49 654 l 1
 30 700 l 1
 49 746 l 1
 95 765 l 1
 141 746 l 1
 160 700 l 1
EndSplineSet
AlternateSubs2: "Randomize subtable" I.1 I.2 I.3 I.4 I.5 I.6 I.7 I.8 I.9
EndChar

StartChar: J
Encoding: 74 74 41
Width: 361
VWidth: 0
Flags: W
VStem: 212 58<39 213.087> 233 60<508.913 739>
LayerCount: 2
Fore
SplineSet
330 792 m 1x40
 311 746 l 1
 293 739 l 1x40
 270 -17 l 2
 269 -36 249 -43 237 -42 c 0
 226 -41 220 -35 220 -35 c 1
 121 42 l 1
 95 31 l 1
 49 50 l 1
 30 96 l 1
 49 141 l 1
 95 161 l 1
 141 141 l 1
 160 96 l 1
 155 83 l 1
 212 39 l 1x80
 233 740 l 1
 219 746 l 1
 200 792 l 1
 219 838 l 1
 265 857 l 1
 311 838 l 1
 330 792 l 1x40
EndSplineSet
AlternateSubs2: "Randomize subtable" J.1 J.2 J.3 J.4 J.5 J.6 J.7 J.8 J.9
EndChar

StartChar: K
Encoding: 75 75 42
Width: 507
VWidth: 0
Flags: W
HStem: 765 20G<365 457>
LayerCount: 2
Fore
SplineSet
467 31 m 1
 448 -15 l 1
 402 -34 l 1
 356 -15 l 1
 337 31 l 1
 340 39 l 1
 307 64 280 96 261 134 c 0
 229 196 206 264 191 333 c 1
 160 286 l 1
 172 257 l 1
 153 211 l 1
 133 203 l 1
 129 137 l 1
 141 132 l 1
 160 86 l 1
 141 40 l 1
 95 21 l 1
 49 40 l 1
 30 86 l 1
 49 132 l 1
 69 140 l 1
 73 206 l 1
 61 211 l 1
 42 257 l 1
 61 303 l 1
 80 311 l 1
 103 647 l 1
 90 652 l 1
 71 698 l 1
 90 744 l 1
 136 763 l 1
 182 744 l 1
 201 698 l 1
 182 652 l 1
 163 644 l 1
 144 366 l 1
 358 692 l 1
 346 720 l 1
 365 766 l 1
 411 785 l 1
 457 766 l 1
 476 720 l 1
 457 674 l 1
 411 655 l 1
 404 658 l 1
 239 406 l 1
 251 317 276 231 316 153 c 0
 330 126 349 102 371 83 c 1
 402 96 l 1
 448 77 l 1
 467 31 l 1
EndSplineSet
AlternateSubs2: "Randomize subtable" K.1 K.2 K.3 K.4 K.5 K.6 K.7 K.8 K.9
EndChar

StartChar: L
Encoding: 76 76 43
Width: 433
VWidth: 0
Flags: W
VStem: 66 60<19 613> 73 60<19 613>
LayerCount: 2
Fore
SplineSet
402 37 m 1x40
 383 -9 l 1
 337 -28 l 1
 291 -9 l 1
 287 1 l 1
 110 -37 l 2
 109 -37 108 -38 106 -38 c 0
 94 -39 73 -32 73 -13 c 2x40
 66 613 l 1
 49 620 l 1
 30 666 l 1
 49 712 l 1
 95 731 l 1
 141 712 l 1
 160 666 l 1
 141 620 l 1
 126 614 l 1x80
 133 19 l 1
 278 51 l 1
 291 83 l 1
 337 102 l 1
 383 83 l 1
 402 37 l 1x40
EndSplineSet
AlternateSubs2: "Randomize subtable" L.1 L.2 L.3 L.4 L.5 L.6 L.7 L.8 L.9
EndChar

StartChar: M
Encoding: 77 77 44
Width: 530
VWidth: 0
Flags: W
HStem: -115 21G<388 480>
VStem: 64 60<65 365> 389 53<581.881 627.805> 402 60<3 209.308>
LayerCount: 2
Fore
SplineSet
499 -50 m 1xd0
 480 -96 l 1
 434 -115 l 1
 388 -96 l 1
 369 -50 l 1
 388 -4 l 1
 402 2 l 1xd0
 389 387 l 1
 274 -82 l 2
 273 -85 268 -97 252 -101 c 0
 241 -103 219 -99 215 -81 c 2
 119 365 l 1
 124 65 l 1
 141 58 l 1
 160 12 l 1
 141 -34 l 1
 95 -53 l 1
 49 -34 l 1
 30 12 l 1
 49 58 l 1
 64 64 l 1
 53 672 l 2
 53 691 73 698 85 697 c 0
 103 696 111 684 113 677 c 2
 246 55 l 1
 383 609 l 2
 388 627 410 631 421 628 c 0
 439 624 442 609 442 605 c 2xe0
 462 3 l 1
 480 -4 l 1
 499 -50 l 1xd0
EndSplineSet
AlternateSubs2: "Randomize subtable" M.1 M.2 M.3 M.4 M.5 M.6 M.7 M.8 M.9
EndChar

StartChar: N
Encoding: 78 78 45
Width: 378
VWidth: 0
Flags: W
VStem: 59 62<129 489 687.675 718.389> 255 60<461.968 609>
LayerCount: 2
Fore
SplineSet
347 663 m 1
 328 617 l 1
 315 611 l 1
 346 -49 l 2
 346 -54 344 -69 326 -74 c 0
 315 -77 293 -74 287 -56 c 2
 121 489 l 1
 124 129 l 1
 141 122 l 1
 160 76 l 1
 141 30 l 1
 95 11 l 1
 49 30 l 1
 30 76 l 1
 49 122 l 1
 64 128 l 1
 59 695 l 2
 59 714 79 721 91 720 c 0
 108 719 116 707 118 701 c 2
 275 188 l 1
 255 609 l 1
 236 617 l 1
 217 663 l 1
 236 709 l 1
 282 728 l 1
 328 709 l 1
 347 663 l 1
EndSplineSet
AlternateSubs2: "Randomize subtable" N.1 N.2 N.3 N.4 N.5 N.6 N.7 N.8 N.9
EndChar

StartChar: O
Encoding: 79 79 46
Width: 391
VWidth: 0
Flags: W
HStem: -5 50<141.109 245.9>
VStem: 33 60<109.066 511.644>
LayerCount: 2
Fore
SplineSet
148 671 m 1
 161 703 l 1
 207 722 l 1
 253 703 l 1
 272 657 l 1
 257 621 l 1
 308 511 341 392 355 269 c 0
 368 154 338 0 199 -5 c 0
 69 -10 39 110 33 222 c 0
 31 269 33 320 36 371 c 0
 43 475 48 629 148 671 c 1
160 614 m 1
 118 575 104 475 96 368 c 0
 93 318 91 268 93 224 c 0
 99 104 132 43 197 45 c 0
 266 47 309 146 295 265 c 0
 282 379 250 490 205 593 c 1
 161 611 l 1
 160 614 l 1
EndSplineSet
AlternateSubs2: "Randomize subtable" O.1 O.2 O.3 O.4 O.5 O.6 O.7 O.8 O.9
EndChar

StartChar: P
Encoding: 80 80 47
Width: 449
VWidth: 0
Flags: W
LayerCount: 2
Fore
SplineSet
169 449 m 1
 342 556 l 1
 182 690 l 1
 169 449 l 1
179 -7 m 1
 159 -53 l 1
 114 -72 l 1
 68 -53 l 1
 49 -7 l 1
 68 39 l 1
 87 47 l 1
 101 310 l 1
 95 308 l 1
 49 327 l 1
 30 373 l 1
 49 419 l 1
 95 438 l 1
 108 433 l 1
 126 750 l 2
 128 777 166 777 177 766 c 1
 409 570 l 2
 425 557 416 539 407 533 c 1
 407 533 407 532 406 532 c 2
 165 385 l 1
 146 44 l 1
 159 39 l 1
 179 -7 l 1
EndSplineSet
AlternateSubs2: "Randomize subtable" P.1 P.2 P.3 P.4 P.5 P.6 P.7 P.8 P.9
EndChar

StartChar: Q
Encoding: 81 81 48
Width: 468
VWidth: 0
Flags: W
HStem: -207 49<287 317> 45 52<159.838 204>
VStem: 32 60<180.713 439.218>
LayerCount: 2
Fore
SplineSet
437 -184 m 1
 418 -230 l 1
 372 -249 l 1
 326 -230 l 1
 317 -208 l 1
 259 -207 l 2
 248 -207 231 -200 230 -184 c 2
 209 45 l 1
 95 53 40 159 32 273 c 0
 29 327 35 387 54 448 c 0
 85 546 124 642 181 730 c 1
 170 757 l 1
 189 803 l 1
 235 822 l 1
 281 803 l 1
 300 757 l 1
 288 728 l 1
 356 616 400 491 415 357 c 0
 429 234 394 80 269 50 c 1
 287 -158 l 1
 318 -158 l 1
 326 -138 l 1
 372 -119 l 1
 418 -138 l 1
 437 -184 l 1
289 212 m 1
 270 166 l 1
 259 161 l 1
 264 103 l 1
 331 132 368 235 355 352 c 0
 342 474 302 591 241 694 c 1
 235 692 l 1
 227 695 l 1
 177 614 140 525 112 435 c 0
 95 379 89 325 92 276 c 0
 98 172 143 108 204 97 c 1
 199 157 l 1
 178 166 l 1
 159 212 l 1
 178 258 l 1
 224 277 l 1
 270 258 l 1
 289 212 l 1
EndSplineSet
AlternateSubs2: "Randomize subtable" Q.1 Q.2 Q.3 Q.4 Q.5 Q.6 Q.7 Q.8 Q.9
EndChar

StartChar: R
Encoding: 82 82 49
Width: 545
VWidth: 0
Flags: W
HStem: 725 50<180.913 298.48>
VStem: 67 60<63 224.1> 331 60<525.926 692.016>
LayerCount: 2
Fore
SplineSet
140 375 m 1
 248 404 332 505 331 629 c 0
 330 695 282 725 238 725 c 0
 215 725 189 716 171 694 c 1
 187 657 l 1
 167 611 l 1
 149 603 l 1
 140 375 l 1
514 13 m 1
 495 -33 l 1
 449 -52 l 1
 403 -33 l 1
 384 13 l 1
 392 32 l 1
 137 294 l 1
 127 61 l 1
 141 55 l 1
 160 9 l 1
 141 -37 l 1
 95 -56 l 1
 49 -37 l 1
 30 9 l 1
 49 55 l 1
 67 63 l 1
 90 605 l 1
 76 611 l 1
 56 657 l 1
 76 703 l 1
 121 722 l 1
 150 757 193 775 237 775 c 0
 318 776 390 718 391 629 c 0
 392 493 304 375 176 333 c 1
 431 70 l 1
 449 78 l 1
 495 59 l 1
 514 13 l 1
EndSplineSet
AlternateSubs2: "Randomize subtable" R.1 R.2 R.3 R.4 R.5 R.6 R.7 R.8 R.9
EndChar

StartChar: S
Encoding: 83 83 50
Width: 398
VWidth: 0
Flags: W
LayerCount: 2
Fore
SplineSet
352 616 m 1
 333 570 l 1
 287 551 l 1
 241 570 l 1
 222 616 l 1
 231 638 l 1
 209 664 l 1
 124 668 79 562 137 497 c 0
 158 473 196 466 238 444 c 0
 308 407 351 341 362 270 c 0
 379 164 328 59 233 5 c 0
 218 -3 202 2 194 9 c 2
 116 81 l 1
 95 72 l 1
 49 91 l 1
 30 137 l 1
 49 183 l 1
 95 202 l 1
 141 183 l 1
 160 137 l 1
 153 121 l 1
 220 59 l 1
 280 103 315 181 302 263 c 0
 292 322 257 375 206 402 c 0
 177 417 126 426 89 467 c 0
 -8 574 90 738 232 712 c 0
 238 711 245 708 250 702 c 2
 273 675 l 1
 287 681 l 1
 333 662 l 1
 352 616 l 1
EndSplineSet
AlternateSubs2: "Randomize subtable" S.1 S.2 S.3 S.4 S.5 S.6 S.7 S.8 S.9
EndChar

StartChar: T
Encoding: 84 84 51
Width: 476
VWidth: 0
Flags: W
VStem: 198 60<105 480.9> 208 59<266.1 625>
LayerCount: 2
Fore
SplineSet
292 52 m 1x80
 273 6 l 1
 227 -13 l 1
 181 6 l 1
 162 52 l 1
 181 98 l 1
 198 105 l 1x80
 208 642 l 1
 144 659 l 1
 141 652 l 1
 95 633 l 1
 49 652 l 1
 30 698 l 1
 49 744 l 1
 95 763 l 1
 141 744 l 1
 156 708 l 1
 242 685 l 2
 245 685 249 683 252 682 c 2
 331 661 l 1
 334 667 l 1
 380 686 l 1
 426 667 l 1
 445 621 l 1
 426 575 l 1
 380 556 l 1
 334 575 l 1
 319 611 l 1
 267 625 l 1x40
 258 104 l 1
 273 98 l 1
 292 52 l 1x80
EndSplineSet
AlternateSubs2: "Randomize subtable" T.1 T.2 T.3 T.4 T.5 T.6 T.7 T.8 T.9
EndChar

StartChar: U
Encoding: 85 85 52
Width: 410
VWidth: 0
Flags: W
VStem: 61 60<81.0712 693> 275 60<129.211 677.5> 283 60<231.5 752>
LayerCount: 2
Fore
SplineSet
379 805 m 1xa0
 360 759 l 1
 343 752 l 1xa0
 341 596 335 156 335 156 c 0
 334 93 259 69 214 54 c 0
 187 45 94 1 66 59 c 0
 63 65 61 72 61 82 c 2
 65 694 l 1
 49 700 l 1
 30 746 l 1
 49 792 l 1
 95 811 l 1
 141 792 l 1
 160 746 l 1
 141 700 l 1
 125 693 l 1
 121 82 l 1
 121 81 l 1
 135 82 165 91 191 100 c 0
 245 119 275 135 275 157 c 2xc0
 283 753 l 1
 268 759 l 1
 249 805 l 1
 268 851 l 1
 314 870 l 1
 360 851 l 1
 379 805 l 1xa0
EndSplineSet
AlternateSubs2: "Randomize subtable" U.1 U.2 U.3 U.4 U.5 U.6 U.7 U.8 U.9
EndChar

StartChar: V
Encoding: 86 86 53
Width: 441
VWidth: 0
Flags: W
HStem: 770 20G<49 141>
LayerCount: 2
Fore
SplineSet
410 628 m 1
 391 582 l 1
 368 572 l 1
 280 -60 l 2
 279 -65 274 -77 257 -81 c 0
 246 -83 225 -80 221 -61 c 2
 76 668 l 1
 49 679 l 1
 30 725 l 1
 49 771 l 1
 95 790 l 1
 141 771 l 1
 160 725 l 1
 141 679 l 1
 135 677 l 1
 245 123 l 1
 308 578 l 1
 299 582 l 1
 280 628 l 1
 299 673 l 1
 345 693 l 1
 391 673 l 1
 410 628 l 1
EndSplineSet
AlternateSubs2: "Randomize subtable" V.1 V.2 V.3 V.4 V.5 V.6 V.7 V.8 V.9
EndChar

StartChar: W
Encoding: 87 87 54
Width: 532
VWidth: 0
Flags: W
VStem: 67 61<570 716>
LayerCount: 2
Fore
SplineSet
501 631 m 1
 482 585 l 1
 460 576 l 1
 390 -32 l 2
 389 -37 384 -51 366 -54 c 0
 354 -56 333 -52 330 -33 c 2
 261 415 l 1
 161 -18 l 2
 160 -22 154 -36 135 -38 c 0
 123 -39 103 -33 102 -14 c 2
 67 716 l 1
 49 724 l 1
 30 770 l 1
 49 816 l 1
 95 835 l 1
 141 816 l 1
 160 770 l 1
 141 724 l 1
 128 718 l 1
 152 205 l 1
 238 577 l 2
 242 595 264 600 275 597 c 0
 291 593 296 582 297 576 c 2
 356 194 l 1
 400 581 l 1
 390 585 l 1
 371 631 l 1
 390 677 l 1
 436 696 l 1
 482 677 l 1
 501 631 l 1
EndSplineSet
AlternateSubs2: "Randomize subtable" W.1 W.2 W.3 W.4 W.5 W.6 W.7 W.8 W.9
EndChar

StartChar: X
Encoding: 88 88 55
Width: 413
VWidth: 0
Flags: W
HStem: 744 20G<271 363>
LayerCount: 2
Fore
SplineSet
382 699 m 1
 363 653 l 1
 329 639 l 1
 232 334 l 1
 306 102 l 1
 340 88 l 1
 359 42 l 1
 340 -4 l 1
 294 -23 l 1
 248 -4 l 1
 229 42 l 1
 248 88 l 1
 201 236 l 1
 141 49 l 1
 160 3 l 1
 141 -43 l 1
 95 -62 l 1
 49 -43 l 1
 30 3 l 1
 49 49 l 1
 83 63 l 1
 170 334 l 1
 84 600 l 1
 50 614 l 1
 31 660 l 1
 50 706 l 1
 96 725 l 1
 142 706 l 1
 161 660 l 1
 142 614 l 1
 201 431 l 1
 271 653 l 1
 252 699 l 1
 271 745 l 1
 317 764 l 1
 363 745 l 1
 382 699 l 1
EndSplineSet
AlternateSubs2: "Randomize subtable" X.1 X.2 X.3 X.4 X.5 X.6 X.7 X.8 X.9
EndChar

StartChar: Y
Encoding: 89 89 56
Width: 453
VWidth: 0
Flags: W
HStem: 747 20G<311 403>
VStem: 204 60<38 335>
LayerCount: 2
Fore
SplineSet
298 -15 m 1
 279 -61 l 1
 233 -80 l 1
 187 -61 l 1
 168 -15 l 1
 187 31 l 1
 204 38 l 1
 209 335 l 1
 89 631 l 1
 49 648 l 1
 30 694 l 1
 49 740 l 1
 95 759 l 1
 141 740 l 1
 160 694 l 1
 143 653 l 1
 236 424 l 1
 311 656 l 1
 292 702 l 1
 311 748 l 1
 357 767 l 1
 403 748 l 1
 422 702 l 1
 403 656 l 1
 369 642 l 1
 269 335 l 1
 264 37 l 1
 279 31 l 1
 298 -15 l 1
EndSplineSet
AlternateSubs2: "Randomize subtable" Y.1 Y.2 Y.3 Y.4 Y.5 Y.6 Y.7 Y.8 Y.9
EndChar

StartChar: Z
Encoding: 90 90 57
Width: 438
VWidth: 0
Flags: W
LayerCount: 2
Fore
SplineSet
407 63 m 1
 388 17 l 1
 342 -2 l 1
 296 17 l 1
 191 -25 l 2
 190 -25 187 -27 178 -27 c 0
 166 -27 146 -19 148 -0 c 2
 227 698 l 1
 148 703 l 1
 141 686 l 1
 95 667 l 1
 49 686 l 1
 30 732 l 1
 49 778 l 1
 95 797 l 1
 141 778 l 1
 151 753 l 1
 262 745 l 2
 285 743 290 725 289 718 c 2
 213 39 l 1
 278 65 l 1
 296 109 l 1
 342 128 l 1
 388 109 l 1
 407 63 l 1
EndSplineSet
AlternateSubs2: "Randomize subtable" Z.1 Z.2 Z.3 Z.4 Z.5 Z.6 Z.7 Z.8 Z.9
EndChar

StartChar: bracketleft
Encoding: 91 91 58
Width: 254
VWidth: 0
Flags: W
VStem: 30 61<536.034 674> 59 60<23 173.966>
LayerCount: 2
Fore
SplineSet
209 -32 m 1x40
 190 -78 l 1
 144 -97 l 1
 98 -78 l 1
 79 -32 l 1
 83 -23 l 1
 70 -14 l 2
 65 -11 59 -4 59 5 c 2x40
 30 705 l 1
 30 710 l 1
 32 720 45 734 67 730 c 2
 111 721 l 1
 115 731 l 1
 161 750 l 1
 207 731 l 1
 226 685 l 1
 207 639 l 1
 161 620 l 1
 115 639 l 1
 101 672 l 1
 91 674 l 1x80
 119 23 l 1
 144 33 l 1
 190 14 l 1
 209 -32 l 1x40
EndSplineSet
AlternateSubs2: "Randomize subtable" bracketleft.1 bracketleft.2 bracketleft.3 bracketleft.4 bracketleft.5 bracketleft.6 bracketleft.7 bracketleft.8 bracketleft.9
EndChar

StartChar: backslash
Encoding: 92 92 59
Width: 359
VWidth: 0
Flags: W
HStem: 758 20G<47 139>
VStem: 28 303
LayerCount: 2
Fore
SplineSet
331 -62 m 1
 312 -108 l 1
 266 -127 l 1
 220 -108 l 1
 201 -62 l 1
 220 -16 l 1
 224 -14 l 1
 76 655 l 1
 47 667 l 1
 28 713 l 1
 47 759 l 1
 93 778 l 1
 139 759 l 1
 158 713 l 1
 139 667 l 1
 134 665 l 1
 283 -4 l 1
 312 -16 l 1
 331 -62 l 1
EndSplineSet
AlternateSubs2: "Randomize subtable" backslash.1 backslash.2 backslash.3 backslash.4 backslash.5 backslash.6 backslash.7 backslash.8 backslash.9
EndChar

StartChar: bracketright
Encoding: 93 93 60
Width: 252
VWidth: 0
Flags: W
HStem: 763 20G<48 140>
VStem: 159 60<23 677>
LayerCount: 2
Fore
SplineSet
156 24 m 1
 159 23 l 1
 156 677 l 1
 143 680 l 1
 140 673 l 1
 94 653 l 1
 48 673 l 1
 29 718 l 1
 48 764 l 1
 94 783 l 1
 140 764 l 1
 154 729 l 1
 194 719 l 2
 209 715 216 703 216 695 c 2
 219 -12 l 2
 219 -31 199 -38 187 -37 c 0
 185 -37 183 -37 180 -36 c 2
 144 -26 l 1
 141 -32 l 1
 95 -51 l 1
 49 -32 l 1
 30 14 l 1
 49 60 l 1
 95 79 l 1
 141 60 l 1
 156 24 l 1
EndSplineSet
AlternateSubs2: "Randomize subtable" bracketright.1 bracketright.2 bracketright.3 bracketright.4 bracketright.5 bracketright.6 bracketright.7 bracketright.8 bracketright.9
EndChar

StartChar: asciicircum
Encoding: 94 94 61
Width: 457
VWidth: 0
Flags: W
LayerCount: 2
Fore
SplineSet
427 434 m 1
 408 388 l 1
 362 369 l 1
 316 388 l 1
 297 434 l 1
 311 469 l 1
 226 629 l 1
 144 440 l 1
 160 401 l 1
 141 355 l 1
 95 336 l 1
 49 355 l 1
 30 401 l 1
 49 447 l 1
 91 464 l 1
 196 705 l 2
 204 723 225 723 236 719 c 0
 247 715 251 707 251 706 c 2
 361 499 l 1
 362 499 l 1
 408 480 l 1
 427 434 l 1
EndSplineSet
AlternateSubs2: "Randomize subtable" asciicircum.1 asciicircum.2 asciicircum.3 asciicircum.4 asciicircum.5 asciicircum.6 asciicircum.7 asciicircum.8 asciicircum.9
EndChar

StartChar: underscore
Encoding: 95 95 62
Width: 487
VWidth: 0
Flags: W
HStem: -154 50<161 326> -147 50<161 326>
LayerCount: 2
Fore
SplineSet
447 -120 m 1x40
 428 -166 l 1
 382 -185 l 1
 336 -166 l 1
 328 -147 l 1x40
 161 -154 l 1
 151 -177 l 1
 105 -196 l 1
 59 -177 l 1
 40 -131 l 1
 59 -85 l 1
 105 -66 l 1
 151 -85 l 1
 159 -104 l 1x80
 326 -97 l 1
 336 -74 l 1
 382 -55 l 1
 428 -74 l 1
 447 -120 l 1x40
EndSplineSet
AlternateSubs2: "Randomize subtable" underscore.1 underscore.2 underscore.3 underscore.4 underscore.5 underscore.6 underscore.7 underscore.8 underscore.9
EndChar

StartChar: grave
Encoding: 96 96 63
Width: 310
VWidth: 0
Flags: W
HStem: 470 248
VStem: 32 246
LayerCount: 2
Fore
SplineSet
278 535 m 1
 259 489 l 1
 213 470 l 1
 167 489 l 1
 148 535 l 1
 156 554 l 1
 115 595 l 1
 97 588 l 1
 51 607 l 1
 32 653 l 1
 51 699 l 1
 97 718 l 1
 143 699 l 1
 162 653 l 1
 154 634 l 1
 195 592 l 1
 213 600 l 1
 259 581 l 1
 278 535 l 1
EndSplineSet
AlternateSubs2: "Randomize subtable" grave.1 grave.2 grave.3 grave.4 grave.5 grave.6 grave.7 grave.8 grave.9
EndChar

StartChar: a
Encoding: 97 97 64
Width: 464
VWidth: 0
Flags: W
LayerCount: 2
Fore
SplineSet
398 78 m 1
 379 33 l 1
 365 27 l 1
 386 -60 l 1
 414 -72 l 1
 433 -118 l 1
 414 -164 l 1
 368 -183 l 1
 322 -164 l 1
 303 -118 l 1
 322 -72 l 1
 327 -70 l 1
 304 25 l 1
 287 33 l 1
 268 78 l 1
 269 81 l 1
 170 131 l 1
 158 127 l 1
 141 70 l 1
 160 24 l 1
 141 -22 l 1
 95 -41 l 1
 49 -22 l 1
 30 24 l 1
 49 70 l 1
 83 84 l 1
 97 129 l 1
 85 134 l 1
 66 180 l 1
 85 226 l 1
 131 245 l 1
 133 244 l 1
 204 468 l 2
 210 486 232 489 243 486 c 0
 258 482 262 470 263 467 c 2
 339 141 l 1
 379 124 l 1
 398 78 l 1
195 177 m 1
 279 135 l 1
 229 350 l 1
 184 208 l 1
 196 180 l 1
 195 177 l 1
EndSplineSet
AlternateSubs2: "Randomize subtable" a.1 a.2 a.3 a.4 a.5 a.6 a.7 a.8 a.9
EndChar

StartChar: b
Encoding: 98 98 65
Width: 404
VWidth: 0
Flags: W
HStem: 511 20G<85 177>
LayerCount: 2
Fore
SplineSet
164 272 m 1
 148 266 l 1
 147 266 l 1
 129 -5 l 1
 141 -10 l 1
 149 -30 l 1
 226 -18 295 43 310 132 c 0
 310 134 310 137 311 141 c 0
 320 216 264 272 205 277 c 0
 192 278 178 276 164 272 c 1
267 313 m 1
 336 283 380 212 371 136 c 0
 370 131 369 128 369 126 c 0
 351 17 261 -68 150 -81 c 1
 141 -102 l 1
 95 -121 l 1
 49 -102 l 1
 30 -56 l 1
 49 -10 l 1
 69 -2 l 1
 97 415 l 1
 85 420 l 1
 66 466 l 1
 85 512 l 1
 131 531 l 1
 177 512 l 1
 196 466 l 1
 192 458 l 1
 320 374 l 1
 329 365 341 342 314 331 c 2
 267 313 l 1
151 322 m 1
 245 359 l 1
 162 414 l 1
 157 412 l 1
 151 322 l 1
EndSplineSet
AlternateSubs2: "Randomize subtable" b.1 b.2 b.3 b.4 b.5 b.6 b.7 b.8 b.9
EndChar

StartChar: c
Encoding: 99 99 66
Width: 405
VWidth: 0
Flags: W
HStem: 356 50<170.16 237>
LayerCount: 2
Fore
SplineSet
374 84 m 1
 355 38 l 1
 311 20 l 1
 293 -1 267 -17 236 -24 c 0
 139 -44 66 25 41 108 c 0
 33 134 29 165 32 197 c 0
 40 302 115 411 240 406 c 0
 244 406 247 405 251 405 c 1
 253 409 l 1
 299 428 l 1
 345 409 l 1
 364 363 l 1
 345 317 l 1
 299 298 l 1
 253 317 l 1
 237 356 l 1
 165 359 100 288 92 193 c 0
 90 166 93 141 99 120 c 0
 121 47 174 14 222 24 c 0
 236 27 250 35 260 46 c 1
 244 84 l 1
 263 130 l 1
 309 149 l 1
 355 130 l 1
 374 84 l 1
EndSplineSet
AlternateSubs2: "Randomize subtable" c.1 c.2 c.3 c.4 c.5 c.6 c.7 c.8 c.9
EndChar

StartChar: d
Encoding: 100 100 67
Width: 518
VWidth: 0
Flags: W
HStem: -18 51<195 282.65> 478 20G<49 122>
LayerCount: 2
Fore
SplineSet
160 433 m 1
 141 387 l 1
 130 383 l 1
 164 66 l 1
 185 57 l 1
 195 33 l 1
 198 33 200 33 203 33 c 0
 330 42 439 159 424 302 c 0
 418 362 387 407 348 435 c 0
 292 475 217 481 155 445 c 1
 160 433 l 1
122 487 m 1
 206 535 312 527 387 473 c 0
 438 436 475 379 483 306 c 0
 500 143 378 -5 208 -17 c 0
 204 -17 198 -18 192 -18 c 1
 185 -35 l 1
 139 -54 l 1
 93 -35 l 1
 74 11 l 1
 93 57 l 1
 104 61 l 1
 71 378 l 1
 49 387 l 1
 30 433 l 1
 49 479 l 1
 95 498 l 1
 122 487 l 1
EndSplineSet
AlternateSubs2: "Randomize subtable" d.1 d.2 d.3 d.4 d.5 d.6 d.7 d.8 d.9
EndChar

StartChar: e
Encoding: 101 101 68
Width: 400
VWidth: 0
Flags: W
HStem: -52 51<152 249> 501 20G<257 349>
VStem: 94 60<-1 212 342 384>
LayerCount: 2
Fore
SplineSet
357 213 m 1
 338 167 l 1
 292 148 l 1
 246 167 l 1
 229 207 l 1
 154 231 l 1
 152 -1 l 1
 249 1 l 1
 258 23 l 1
 304 42 l 1
 350 23 l 1
 369 -23 l 1
 350 -69 l 1
 304 -88 l 1
 258 -69 l 1
 250 -49 l 1
 122 -52 l 2
 99 -52 91 -34 91 -26 c 2
 94 212 l 1
 49 231 l 1
 30 277 l 1
 49 323 l 1
 95 342 l 1
 96 401 l 2
 96 414 108 422 116 425 c 2
 241 464 l 1
 257 502 l 1
 303 521 l 1
 349 502 l 1
 368 456 l 1
 349 410 l 1
 303 391 l 1
 257 410 l 1
 255 415 l 1
 156 384 l 1
 155 289 l 1
 157 284 l 1
 245 256 l 1
 246 259 l 1
 292 278 l 1
 338 259 l 1
 357 213 l 1
EndSplineSet
AlternateSubs2: "Randomize subtable" e.1 e.2 e.3 e.4 e.5 e.6 e.7 e.8 e.9
EndChar

StartChar: f
Encoding: 102 102 69
Width: 391
VWidth: 0
Flags: W
HStem: 376 50<131 240>
VStem: 68 60<33 150 291 373>
LayerCount: 2
Fore
SplineSet
327 304 m 1
 308 258 l 1
 280 246 l 1
 264 206 232 172 186 153 c 0
 166 145 146 145 128 150 c 1
 126 32 l 1
 141 26 l 1
 160 -20 l 1
 141 -66 l 1
 95 -85 l 1
 49 -66 l 1
 30 -20 l 1
 49 26 l 1
 66 33 l 1
 68 186 l 1
 54 192 l 1
 35 238 l 1
 54 284 l 1
 69 290 l 1
 71 398 l 2
 71 414 89 422 100 422 c 2
 240 426 l 1
 249 449 l 1
 295 468 l 1
 341 449 l 1
 360 403 l 1
 341 357 l 1
 310 344 l 1
 327 304 l 1
221 256 m 1
 216 258 l 1
 197 304 l 1
 216 350 l 1
 247 363 l 1
 241 376 l 1
 131 373 l 1
 130 291 l 1
 146 284 l 1
 165 238 l 1
 148 197 l 1
 152 196 156 197 160 198 c 0
 187 209 209 230 221 256 c 1
EndSplineSet
AlternateSubs2: "Randomize subtable" f.1 f.2 f.3 f.4 f.5 f.6 f.7 f.8 f.9
EndChar

StartChar: g
Encoding: 103 103 70
Width: 416
VWidth: 0
Flags: W
HStem: 148 50<255 283>
LayerCount: 2
Fore
SplineSet
385 0 m 1
 366 -46 l 1
 320 -65 l 1
 274 -46 l 1
 264 -21 l 1
 244 -19 l 2
 126 -9 50 92 34 200 c 0
 16 322 86 441 196 452 c 0
 221 454 247 451 274 439 c 0
 299 427 319 408 331 385 c 1
 360 373 l 1
 379 327 l 1
 360 281 l 1
 314 262 l 1
 268 281 l 1
 249 327 l 1
 268 373 l 1
 271 374 l 1
 256 394 231 405 203 403 c 0
 145 397 77 316 93 206 c 0
 107 109 174 37 250 31 c 0
 251 31 258 31 267 30 c 1
 274 46 l 1
 288 52 l 1
 283 147 l 1
 254 148 l 1
 246 129 l 1
 200 110 l 1
 154 129 l 1
 135 175 l 1
 154 221 l 1
 200 240 l 1
 246 221 l 1
 255 198 l 1
 313 196 l 2
 333 195 342 180 342 172 c 2
 348 54 l 1
 366 46 l 1
 385 0 l 1
EndSplineSet
AlternateSubs2: "Randomize subtable" g.1 g.2 g.3 g.4 g.5 g.6 g.7 g.8 g.9
EndChar

StartChar: h
Encoding: 104 104 71
Width: 440
VWidth: 0
Flags: W
HStem: 226 50<151 302.125> 234 50<173 324> 459 20G<289 381> 459 20G<289 381>
VStem: 74 60<45 190> 82 59<308 354> 327 59<65.718 234 284 355.875>
LayerCount: 2
Fore
SplineSet
400 414 m 1x66
 381 368 l 1
 375 366 l 1
 380 334 383 299 385 265 c 0
 386 262 386 260 386 257 c 0
 389 192 385 126 379 59 c 1
 390 54 l 1
 409 8 l 1
 390 -38 l 1
 344 -57 l 1
 298 -38 l 1
 279 8 l 1
 298 54 l 1
 320 63 l 1
 325 121 328 178 327 234 c 1x66
 151 226 l 1
 141 202 l 1x86
 139 201 l 1
 134 44 l 1
 148 38 l 1
 167 -8 l 1
 148 -54 l 1
 102 -73 l 1
 57 -54 l 1
 37 -8 l 1
 57 38 l 1
 74 45 l 1x8a
 78 190 l 1
 49 202 l 1
 30 248 l 1
 49 294 l 1
 82 308 l 1
 83 355 l 1
 69 361 l 1
 50 407 l 1
 69 453 l 1
 115 472 l 1
 161 453 l 1
 180 407 l 1
 161 361 l 1
 143 354 l 1
 141 293 l 1
 149 276 l 1x86
 324 284 l 1
 322 309 320 333 316 357 c 1
 289 368 l 1
 270 414 l 1
 289 460 l 1
 335 479 l 1
 381 460 l 1
 400 414 l 1x66
EndSplineSet
AlternateSubs2: "Randomize subtable" h.1 h.2 h.3 h.4 h.5 h.6 h.7 h.8 h.9
EndChar

StartChar: i
Encoding: 105 105 72
Width: 191
VWidth: 0
Flags: W
HStem: 465 20G<49 141>
VStem: 65 60<24 367>
LayerCount: 2
Fore
SplineSet
160 420 m 1
 141 374 l 1
 125 367 l 1
 125 24 l 1
 141 17 l 1
 160 -29 l 1
 141 -75 l 1
 95 -94 l 1
 49 -75 l 1
 30 -29 l 1
 49 17 l 1
 65 24 l 1
 65 367 l 1
 49 374 l 1
 30 420 l 1
 49 466 l 1
 95 485 l 1
 141 466 l 1
 160 420 l 1
EndSplineSet
AlternateSubs2: "Randomize subtable" i.1 i.2 i.3 i.4 i.5 i.6 i.7 i.8 i.9
EndChar

StartChar: j
Encoding: 106 106 73
Width: 360
VWidth: 0
Flags: W
HStem: 514 20G<218 310>
VStem: 30 299
LayerCount: 2
Fore
SplineSet
329 469 m 1
 310 423 l 1
 291 415 l 1
 264 -20 l 2
 263 -39 243 -44 231 -43 c 1
 229 -43 l 1
 147 -31 l 1
 141 -45 l 1
 95 -64 l 1
 49 -45 l 1
 30 1 l 1
 49 47 l 1
 95 66 l 1
 141 47 l 1
 153 19 l 1
 206 11 l 1
 231 418 l 1
 218 423 l 1
 199 469 l 1
 218 515 l 1
 264 534 l 1
 310 515 l 1
 329 469 l 1
EndSplineSet
AlternateSubs2: "Randomize subtable" j.1 j.2 j.3 j.4 j.5 j.6 j.7 j.8 j.9
EndChar

StartChar: k
Encoding: 107 107 74
Width: 499
VWidth: 0
Flags: W
HStem: 458 20G<68 160>
VStem: 68 60<79 120> 81 55<241 359>
LayerCount: 2
Fore
SplineSet
438 3 m 1xa0
 419 -43 l 1
 373 -62 l 1
 327 -43 l 1
 309 0 l 1
 286 14 266 34 252 57 c 0
 230 93 215 132 207 173 c 1
 190 133 l 1
 144 114 l 1
 130 120 l 1
 128 77 l 1
 141 71 l 1
 160 25 l 1
 141 -21 l 1
 95 -40 l 1
 49 -21 l 1
 30 25 l 1
 49 71 l 1
 68 79 l 1xc0
 81 361 l 1xa0
 68 367 l 1
 49 413 l 1
 68 459 l 1xc0
 114 478 l 1
 160 459 l 1
 179 413 l 1
 160 367 l 1
 141 359 l 1
 136 241 l 1
 144 244 l 1
 177 231 l 1
 341 333 l 1
 338 340 l 1
 357 386 l 1
 403 405 l 1
 449 386 l 1
 468 340 l 1
 449 294 l 1
 403 275 l 1
 370 288 l 1
 261 220 l 1
 264 169 280 122 306 80 c 0
 313 69 321 59 331 51 c 1
 373 68 l 1
 419 49 l 1
 438 3 l 1xa0
EndSplineSet
AlternateSubs2: "Randomize subtable" k.1 k.2 k.3 k.4 k.5 k.6 k.7 k.8 k.9
EndChar

StartChar: l
Encoding: 108 108 75
Width: 390
VWidth: 0
Flags: W
HStem: -155 21G<248 340> 460 20G<49 141> 460 20G<49 141>
VStem: 30 329
LayerCount: 2
Fore
SplineSet
359 -90 m 1xd0
 340 -136 l 1
 294 -155 l 1
 248 -136 l 1
 232 -96 l 1
 137 -65 l 2
 130 -63 119 -56 118 -44 c 2
 71 359 l 1
 49 369 l 1
 30 414 l 1
 49 460 l 1
 95 480 l 1
 141 460 l 1
 160 414 l 1
 141 369 l 1
 131 365 l 1
 176 -24 l 1
 247 -48 l 1
 248 -44 l 1
 294 -25 l 1
 340 -44 l 1
 359 -90 l 1xd0
EndSplineSet
AlternateSubs2: "Randomize subtable" l.1 l.2 l.3 l.4 l.5 l.6 l.7 l.8 l.9
EndChar

StartChar: m
Encoding: 109 109 76
Width: 507
VWidth: 0
Flags: W
VStem: 381 60<30 240 393 407.714>
LayerCount: 2
Fore
SplineSet
476 -23 m 1
 457 -68 l 1
 411 -88 l 1
 365 -68 l 1
 346 -23 l 1
 365 23 l 1
 381 30 l 1
 381 240 l 1
 288 22 l 1
 283 7 244 -6 232 21 c 2
 112 277 l 1
 122 82 l 1
 141 74 l 1
 160 28 l 1
 141 -18 l 1
 95 -37 l 1
 49 -18 l 1
 30 28 l 1
 49 74 l 1
 62 79 l 1
 43 426 l 2
 42 445 62 452 74 452 c 0
 91 452 99 441 101 436 c 2
 258 101 l 1
 383 393 l 2
 391 411 413 412 424 408 c 0
 439 402 442 390 442 385 c 2
 441 30 l 1
 457 23 l 1
 476 -23 l 1
EndSplineSet
AlternateSubs2: "Randomize subtable" m.1 m.2 m.3 m.4 m.5 m.6 m.7 m.8 m.9
EndChar

StartChar: n
Encoding: 110 110 77
Width: 373
VWidth: 0
Flags: W
VStem: 63 60<159 260>
LayerCount: 2
Fore
SplineSet
342 354 m 1
 323 308 l 1
 311 303 l 1
 339 -21 l 2
 339 -25 338 -37 324 -44 c 0
 314 -49 291 -50 282 -33 c 2
 120 260 l 1
 123 159 l 1
 141 152 l 1
 160 106 l 1
 141 60 l 1
 95 41 l 1
 49 60 l 1
 30 106 l 1
 49 152 l 1
 63 158 l 1
 56 381 l 2
 55 400 76 407 88 406 c 0
 104 405 111 397 114 392 c 2
 268 113 l 1
 252 299 l 1
 231 308 l 1
 212 354 l 1
 231 400 l 1
 277 419 l 1
 323 400 l 1
 342 354 l 1
EndSplineSet
AlternateSubs2: "Randomize subtable" n.1 n.2 n.3 n.4 n.5 n.6 n.7 n.8 n.9
EndChar

StartChar: o
Encoding: 111 111 78
Width: 390
VWidth: 0
Flags: W
HStem: -57 50<142.967 248.503> 455 20G<138 229>
VStem: 33 60<53.4866 316.406>
LayerCount: 2
Fore
SplineSet
123 420 m 1
 138 456 l 1
 184 475 l 1
 229 456 l 1
 249 410 l 1
 242 394 l 1
 281 355 312 309 334 257 c 0
 386 133 355 -17 238 -51 c 0
 222 -56 204 -58 184 -57 c 0
 47 -48 22 104 33 225 c 0
 33 230 34 235 35 243 c 0
 43 303 63 386 123 420 c 1
141 363 m 1
 119 337 102 291 95 238 c 0
 94 231 93 225 93 221 c 0
 81 93 120 -2 189 -7 c 0
 201 -8 210 -6 218 -4 c 0
 281 14 326 125 277 240 c 0
 259 283 234 321 204 353 c 1
 184 345 l 1
 141 363 l 1
EndSplineSet
AlternateSubs2: "Randomize subtable" o.1 o.2 o.3 o.4 o.5 o.6 o.7 o.8 o.9
EndChar

StartChar: p
Encoding: 112 112 79
Width: 503
VWidth: 0
Flags: W
HStem: -115 21G<117 209>
LayerCount: 2
Fore
SplineSet
146 302 m 1
 339 369 l 1
 132 403 l 1
 146 302 l 1
228 -50 m 1
 209 -96 l 1
 163 -115 l 1
 117 -96 l 1
 98 -50 l 1
 117 -5 l 1
 126 -1 l 1
 100 194 l 1
 95 192 l 1
 49 211 l 1
 30 257 l 1
 49 303 l 1
 83 317 l 1
 68 431 l 2
 65 450 85 459 97 459 c 0
 98 459 101 458 104 458 c 2
 448 402 l 2
 470 398 474 380 471 371 c 0
 467 360 456 356 453 355 c 2
 158 252 l 1
 154 242 l 1
 186 5 l 1
 209 -5 l 1
 228 -50 l 1
EndSplineSet
AlternateSubs2: "Randomize subtable" p.1 p.2 p.3 p.4 p.5 p.6 p.7 p.8 p.9
EndChar

StartChar: q
Encoding: 113 113 80
Width: 460
VWidth: 0
Flags: W
HStem: -6 49<266 284.234>
LayerCount: 2
Fore
SplineSet
429 -57 m 1
 410 -103 l 1
 364 -122 l 1
 328 -107 l 1
 287 -130 l 2
 275 -136 249 -138 242 -116 c 2
 207 -12 l 1
 105 -8 40 79 32 172 c 0
 29 216 36 265 63 313 c 0
 85 352 119 390 165 409 c 1
 179 442 l 1
 225 461 l 1
 271 442 l 1
 290 396 l 1
 287 389 l 1
 337 352 374 298 387 235 c 0
 408 138 367 24 266 -6 c 1
 288 -70 l 1
 301 -63 l 1
 299 -57 l 1
 318 -12 l 1
 364 8 l 1
 410 -12 l 1
 429 -57 l 1
160 128 m 1
 125 143 l 1
 106 188 l 1
 125 234 l 1
 171 253 l 1
 216 234 l 1
 236 188 l 1
 216 144 l 1
 250 43 l 1
 307 64 346 141 328 226 c 0
 318 274 291 315 257 344 c 1
 225 331 l 1
 179 350 l 1
 177 355 l 1
 154 341 133 319 118 292 c 0
 96 252 89 211 92 175 c 0
 98 103 140 53 190 40 c 1
 160 128 l 1
EndSplineSet
AlternateSubs2: "Randomize subtable" q.1 q.2 q.3 q.4 q.5 q.6 q.7 q.8 q.9
EndChar

StartChar: r
Encoding: 114 114 81
Width: 454
VWidth: 0
Flags: W
HStem: 454 20G<65 156>
VStem: 73 59<212 356> 79 60<212 356>
LayerCount: 2
Fore
SplineSet
132 180 m 1xc0
 240 111 l 1
 242 111 244 111 248 112 c 0
 297 121 346 156 358 225 c 0
 376 324 304 401 225 411 c 0
 209 413 193 413 176 409 c 1
 157 363 l 1
 139 356 l 1xa0
 132 180 l 1xc0
422 5 m 1
 403 -41 l 1
 357 -60 l 1
 311 -41 l 1
 292 5 l 1
 295 13 l 1
 221 60 l 1
 187 60 156 69 128 84 c 1
 127 73 l 1
 141 67 l 1
 160 21 l 1
 141 -25 l 1
 95 -44 l 1
 49 -25 l 1
 30 21 l 1
 49 67 l 1
 67 75 l 1
 70 132 l 1
 58 147 50 163 43 179 c 0
 35 201 57 212 73 212 c 1xc0
 79 357 l 1
 65 363 l 1
 46 409 l 1
 65 455 l 1
 111 474 l 1
 156 456 l 1
 183 463 209 464 234 461 c 0
 353 446 439 339 417 218 c 0
 404 146 356 96 298 74 c 1
 325 57 l 1
 357 70 l 1
 403 51 l 1
 422 5 l 1
EndSplineSet
AlternateSubs2: "Randomize subtable" r.1 r.2 r.3 r.4 r.5 r.6 r.7 r.8 r.9
EndChar

StartChar: s
Encoding: 115 115 82
Width: 399
VWidth: 0
Flags: W
LayerCount: 2
Fore
SplineSet
367 397 m 1
 348 351 l 1
 302 332 l 1
 256 351 l 1
 241 387 l 1
 202 397 l 2
 199 398 196 399 195 400 c 0
 178 409 165 407 153 401 c 0
 126 387 111 346 136 315 c 0
 150 298 176 296 217 288 c 0
 279 276 338 240 357 180 c 0
 364 157 365 137 362 118 c 0
 350 51 285 -6 203 4 c 0
 198 5 194 6 192 7 c 2
 134 37 l 1
 95 21 l 1
 49 40 l 1
 30 86 l 1
 49 132 l 1
 95 151 l 1
 141 132 l 1
 160 86 l 1
 159 83 l 1
 217 53 l 1
 265 51 321 103 299 168 c 0
 287 206 250 231 203 240 c 0
 176 245 119 246 86 288 c 0
 43 343 65 413 121 443 c 0
 149 458 187 462 224 444 c 1
 253 436 l 1
 256 443 l 1
 302 462 l 1
 348 443 l 1
 367 397 l 1
EndSplineSet
AlternateSubs2: "Randomize subtable" s.1 s.2 s.3 s.4 s.5 s.6 s.7 s.8 s.9
EndChar

StartChar: t
Encoding: 116 116 83
Width: 474
VWidth: 0
Flags: W
HStem: 495 20G<49 141>
VStem: 208 60<210.636 435> 219 60<79 304.818>
LayerCount: 2
Fore
SplineSet
316 26 m 1xa0
 297 -20 l 1
 251 -40 l 1
 205 -20 l 1
 186 26 l 1
 205 71 l 1
 219 77 l 1xa0
 208 435 l 1
 152 430 l 1
 141 404 l 1
 95 385 l 1
 49 404 l 1
 30 450 l 1
 49 496 l 1
 95 515 l 1
 141 496 l 1
 148 480 l 1
 321 496 l 1
 332 522 l 1
 378 541 l 1
 424 522 l 1
 443 476 l 1
 424 430 l 1
 378 411 l 1
 332 430 l 1
 325 446 l 1
 268 441 l 1xc0
 279 79 l 1
 297 71 l 1
 316 26 l 1xa0
EndSplineSet
AlternateSubs2: "Randomize subtable" t.1 t.2 t.3 t.4 t.5 t.6 t.7 t.8 t.9
EndChar

StartChar: u
Encoding: 117 117 84
Width: 428
VWidth: 0
Flags: W
HStem: 515 20G<286 378>
VStem: 67 60<159.5 351> 79 60<-1.45181 236> 297 60<13.2976 417>
LayerCount: 2
Fore
SplineSet
397 470 m 1xb0
 378 424 l 1
 361 417 l 1
 357 94 l 2
 356 17 314 -75 216 -83 c 0
 130 -90 87 -12 79 56 c 0xb0
 78 61 77 67 77 75 c 2
 67 351 l 1
 49 358 l 1
 30 404 l 1
 49 450 l 1
 95 469 l 1
 141 450 l 1
 160 404 l 1
 141 358 l 1
 127 352 l 1xd0
 137 77 l 2
 137 70 139 65 139 61 c 0
 147 -4 183 -35 210 -33 c 0
 257 -29 296 26 297 95 c 2
 297 95 299 314 301 418 c 1
 286 424 l 1
 267 470 l 1
 286 516 l 1
 332 535 l 1
 378 516 l 1
 397 470 l 1xb0
EndSplineSet
AlternateSubs2: "Randomize subtable" u.1 u.2 u.3 u.4 u.5 u.6 u.7 u.8 u.9
EndChar

StartChar: v
Encoding: 118 118 85
Width: 411
VWidth: 0
Flags: W
HStem: 468 20G<269 361>
LayerCount: 2
Fore
SplineSet
380 423 m 1
 361 377 l 1
 330 364 l 1
 247 67 l 2
 246 65 243 55 229 50 c 0
 218 46 196 47 189 65 c 2
 86 339 l 1
 49 355 l 1
 30 400 l 1
 49 446 l 1
 95 465 l 1
 141 446 l 1
 160 400 l 1
 143 359 l 1
 214 168 l 1
 271 376 l 1
 269 377 l 1
 250 423 l 1
 269 469 l 1
 315 488 l 1
 361 469 l 1
 380 423 l 1
EndSplineSet
AlternateSubs2: "Randomize subtable" v.1 v.2 v.3 v.4 v.5 v.6 v.7 v.8 v.9
EndChar

StartChar: w
Encoding: 119 119 86
Width: 523
VWidth: 0
Flags: W
HStem: 461 20G<381 473> 462 20G<49 141 381 473>
VStem: 131 59<-104.46 -40.7273> 214 59<398.148 456.514> 292 59<-18.6929 27.163>
LayerCount: 2
Fore
SplineSet
492 416 m 1x78
 473 370 l 1
 443 357 l 1
 351 -0 l 2
 350 -4 344 -16 328 -19 c 0
 317 -21 295 -18 292 1 c 2
 245 256 l 1
 190 -84 l 2
 189 -90 183 -102 166 -105 c 0
 154 -107 133 -102 131 -83 c 2
 72 362 l 1
 49 371 l 1
 30 417 l 1
 49 463 l 1
 95 482 l 1
 141 463 l 1
 160 417 l 1
 141 371 l 1
 132 367 l 1
 164 125 l 1
 214 436 l 2
 217 455 238 459 250 457 c 0
 267 454 272 441 273 436 c 2
 327 144 l 1
 385 369 l 1
 381 370 l 1
 362 416 l 1
 381 462 l 1x78
 427 481 l 1xb8
 473 462 l 1
 492 416 l 1x78
EndSplineSet
AlternateSubs2: "Randomize subtable" w.1 w.2 w.3 w.4 w.5 w.6 w.7 w.8 w.9
EndChar

StartChar: x
Encoding: 120 120 87
Width: 486
VWidth: 0
Flags: W
HStem: 469 20G<49 141 282 374>
LayerCount: 2
Fore
SplineSet
393 429 m 1
 374 383 l 1
 337 368 l 1
 283 222 l 1
 379 96 l 1
 390 101 l 1
 436 82 l 1
 455 36 l 1
 436 -10 l 1
 390 -29 l 1
 344 -10 l 1
 325 36 l 1
 335 61 l 1
 260 160 l 1
 205 11 l 1
 223 -32 l 1
 204 -78 l 1
 158 -97 l 1
 112 -78 l 1
 93 -32 l 1
 112 14 l 1
 150 30 l 1
 218 215 l 1
 105 363 l 1
 95 359 l 1
 49 378 l 1
 30 424 l 1
 49 470 l 1
 95 489 l 1
 141 470 l 1
 160 424 l 1
 149 398 l 1
 241 278 l 1
 281 386 l 1
 263 429 l 1
 282 475 l 1
 328 494 l 1
 374 475 l 1
 393 429 l 1
EndSplineSet
AlternateSubs2: "Randomize subtable" x.1 x.2 x.3 x.4 x.5 x.6 x.7 x.8 x.9
EndChar

StartChar: y
Encoding: 121 121 88
Width: 391
VWidth: 0
Flags: W
HStem: 482 20G<49 141 249 341>
VStem: 30 330
LayerCount: 2
Fore
SplineSet
254 50 m 1
 235 5 l 1
 189 -15 l 1
 143 5 l 1
 124 50 l 1
 143 96 l 1
 164 105 l 1
 170 167 l 1
 88 375 l 1
 49 391 l 1
 30 437 l 1
 49 483 l 1
 95 502 l 1
 141 483 l 1
 160 437 l 1
 143 396 l 1
 198 256 l 1
 249 401 l 1
 230 446 l 1
 249 492 l 1
 295 511 l 1
 341 492 l 1
 360 446 l 1
 341 400 l 1
 306 385 l 1
 230 165 l 1
 224 101 l 1
 235 96 l 1
 254 50 l 1
EndSplineSet
AlternateSubs2: "Randomize subtable" y.1 y.2 y.3 y.4 y.5 y.6 y.7 y.8 y.9
EndChar

StartChar: z
Encoding: 122 122 89
Width: 447
VWidth: 0
Flags: W
HStem: 485 20G<49 141>
LayerCount: 2
Fore
SplineSet
416 12 m 1
 397 -34 l 1
 351 -53 l 1
 305 -34 l 1
 304 -30 l 1
 118 -92 l 2
 117 -92 112 -94 102 -93 c 0
 90 -91 73 -81 78 -63 c 2
 227 456 l 1
 157 434 l 1
 141 394 l 1
 95 375 l 1
 49 394 l 1
 30 440 l 1
 49 486 l 1
 95 505 l 1
 141 486 l 1
 143 482 l 1
 259 520 l 2
 280 527 296 513 299 504 c 0
 302 496 299 492 299 491 c 2
 150 -28 l 1
 289 18 l 1
 305 58 l 1
 351 77 l 1
 397 58 l 1
 416 12 l 1
EndSplineSet
AlternateSubs2: "Randomize subtable" z.1 z.2 z.3 z.4 z.5 z.6 z.7 z.8 z.9
EndChar

StartChar: braceleft
Encoding: 123 123 90
Width: 357
VWidth: 0
Flags: W
HStem: 256 48<187.75 232.714>
VStem: 50 60<56.876 205.278>
LayerCount: 2
Fore
SplineSet
297 -21 m 1
 278 -67 l 1
 232 -86 l 1
 186 -67 l 1
 174 -38 l 1
 92 -14 50 62 50 132 c 0
 50 171 62 213 91 246 c 1
 47 264 l 1
 28 310 l 1
 47 356 l 1
 93 375 l 1
 119 364 l 1
 165 400 l 1
 70 461 65 585 133 659 c 0
 151 679 175 696 205 706 c 1
 218 736 l 1
 264 755 l 1
 310 736 l 1
 329 690 l 1
 310 644 l 1
 264 625 l 1
 218 644 l 1
 214 654 l 1
 191 643 174 625 162 603 c 0
 128 538 152 455 227 428 c 0
 254 419 244 395 235 386 c 1
 153 322 l 1
 154 320 l 1
 214 304 l 2
 235 298 237 280 233 271 c 0
 227 260 215 257 212 256 c 0
 144 244 110 190 110 132 c 0
 110 79 136 34 181 14 c 1
 186 25 l 1
 232 44 l 1
 278 25 l 1
 297 -21 l 1
EndSplineSet
AlternateSubs2: "Randomize subtable" braceleft.1 braceleft.2 braceleft.3 braceleft.4 braceleft.5 braceleft.6 braceleft.7 braceleft.8 braceleft.9
EndChar

StartChar: braceright
Encoding: 125 125 91
Width: 385
VWidth: 0
Flags: W
HStem: 748 20G<47 139>
VStem: 274 60<57.0859 206.83>
LayerCount: 2
Fore
SplineSet
357 370 m 1
 338 324 l 1
 292 305 l 1
 270 314 l 1
 240 288 l 1
 308 253 334 191 334 133 c 0
 334 61 291 -15 208 -40 c 1
 196 -69 l 1
 150 -88 l 1
 104 -69 l 1
 85 -23 l 1
 104 23 l 1
 150 42 l 1
 196 23 l 1
 200 12 l 1
 246 32 274 79 274 133 c 0
 274 189 244 240 180 256 c 0
 179 256 176 257 169 261 c 0
 160 267 151 283 167 297 c 2
 233 355 l 1
 231 361 l 1
 164 381 l 2
 163 381 157 383 151 389 c 0
 143 397 139 414 157 425 c 0
 235 471 242 573 190 634 c 0
 177 649 162 660 144 668 c 1
 139 657 l 1
 93 638 l 1
 47 657 l 1
 28 703 l 1
 47 749 l 1
 93 768 l 1
 139 749 l 1
 151 720 l 1
 171 714 189 705 204 694 c 0
 296 629 313 495 231 414 c 1
 244 410 l 1
 246 416 l 1
 292 435 l 1
 338 416 l 1
 357 370 l 1
EndSplineSet
AlternateSubs2: "Randomize subtable" braceright.1 braceright.2 braceright.3 braceright.4 braceright.5 braceright.6 braceright.7 braceright.8 braceright.9
EndChar

StartChar: exclamdown
Encoding: 161 161 92
Width: 207
VWidth: 0
Flags: W
HStem: 533 21G<64 156>
VStem: 65 60<2 151.812> 81 60<197.188 347>
LayerCount: 2
Fore
SplineSet
178 401 m 1xa0
 159 355 l 1
 141 347 l 1xa0
 125 -0 l 1
 139 -6 l 1
 158 -52 l 1
 139 -98 l 1
 93 -117 l 1
 47 -98 l 1
 28 -52 l 1
 47 -6 l 1
 65 2 l 1xc0
 81 349 l 1
 67 355 l 1
 48 401 l 1
 67 447 l 1
 113 466 l 1
 159 447 l 1
 178 401 l 1xa0
175 598 m 1
 156 552 l 1
 110 533 l 1
 64 552 l 1
 45 598 l 1
 64 644 l 1
 110 663 l 1
 156 644 l 1
 175 598 l 1
EndSplineSet
AlternateSubs2: "Randomize subtable" exclamdown.1 exclamdown.2 exclamdown.3 exclamdown.4 exclamdown.5 exclamdown.6 exclamdown.7 exclamdown.8 exclamdown.9
EndChar

StartChar: dieresis
Encoding: 168 168 93
Width: 432
VWidth: 0
Flags: W
HStem: 494 179
LayerCount: 2
Fore
SplineSet
399 559 m 1
 380 513 l 1
 334 494 l 1
 288 513 l 1
 269 559 l 1
 288 605 l 1
 334 624 l 1
 380 605 l 1
 399 559 l 1
163 608 m 1
 144 562 l 1
 98 543 l 1
 52 562 l 1
 33 608 l 1
 52 654 l 1
 98 673 l 1
 144 654 l 1
 163 608 l 1
EndSplineSet
AlternateSubs2: "Randomize subtable" dieresis.1 dieresis.2 dieresis.3 dieresis.4 dieresis.5 dieresis.6 dieresis.7 dieresis.8 dieresis.9
EndChar

StartChar: macron
Encoding: 175 175 94
Width: 457
VWidth: 0
Flags: W
HStem: 465 179 514 21G<313 405>
LayerCount: 2
Fore
SplineSet
424 579 m 1x80
 405 533 l 1
 359 514 l 1x40
 313 533 l 1
 309 544 l 1
 156 516 l 1
 143 484 l 1
 97 465 l 1
 51 484 l 1
 32 530 l 1
 51 576 l 1
 97 595 l 1
 143 576 l 1
 147 566 l 1
 300 593 l 1
 313 625 l 1
 359 644 l 1
 405 625 l 1
 424 579 l 1x80
EndSplineSet
AlternateSubs2: "Randomize subtable" macron.1 macron.2 macron.3 macron.4 macron.5 macron.6 macron.7 macron.8 macron.9
EndChar

StartChar: acute
Encoding: 180 180 95
Width: 277
VWidth: 0
Flags: W
HStem: 512 238
VStem: 33 212
LayerCount: 2
Fore
SplineSet
163 577 m 1
 144 531 l 1
 98 512 l 1
 52 531 l 1
 33 577 l 1
 52 623 l 1
 98 642 l 1
 109 638 l 1
 125 660 l 1
 115 685 l 1
 134 731 l 1
 180 750 l 1
 226 731 l 1
 245 685 l 1
 226 639 l 1
 180 620 l 1
 169 624 l 1
 153 602 l 1
 163 577 l 1
EndSplineSet
AlternateSubs2: "Randomize subtable" acute.1 acute.2 acute.3 acute.4 acute.5 acute.6 acute.7 acute.8 acute.9
EndChar

StartChar: cedilla
Encoding: 184 184 96
Width: 311
VWidth: 0
Flags: W
HStem: -101 126<214.239 273.647>
VStem: 214 60<-47 23.8456>
LayerCount: 2
Fore
SplineSet
243 25 m 0
 263 25 274 11 274 0 c 2
 274 -76 l 2
 274 -95 254 -102 242 -101 c 0
 241 -101 240 -101 239 -101 c 2
 153 -90 l 1
 147 -103 l 1
 101 -122 l 1
 55 -103 l 1
 36 -57 l 1
 55 -11 l 1
 101 8 l 1
 147 -11 l 1
 159 -40 l 1
 214 -47 l 1
 214 -0 l 2
 214 11 223 25 243 25 c 0
EndSplineSet
AlternateSubs2: "Randomize subtable" cedilla.1 cedilla.2 cedilla.3 cedilla.4 cedilla.5 cedilla.6 cedilla.7 cedilla.8 cedilla.9
EndChar

StartChar: questiondown
Encoding: 191 191 97
Width: 308
VWidth: 0
Flags: W
HStem: 479 20G<117 209>
VStem: 32 247
LayerCount: 2
Fore
SplineSet
279 643 m 1
 260 597 l 1
 214 578 l 1
 168 597 l 1
 149 643 l 1
 168 689 l 1
 214 708 l 1
 260 689 l 1
 279 643 l 1
228 434 m 1
 209 388 l 1
 197 383 l 1
 213 286 267 190 277 78 c 0
 283 11 265 -84 173 -98 c 0
 95 -110 43 -57 32 -3 c 0
 26 26 30 60 51 89 c 1
 45 104 l 1
 64 150 l 1
 110 169 l 1
 156 150 l 1
 175 104 l 1
 156 58 l 1
 110 39 l 1
 93 46 l 1
 89 34 88 20 91 6 c 0
 99 -32 128 -54 162 -49 c 0
 197 -44 223 7 217 74 c 0
 208 175 152 272 137 380 c 1
 117 388 l 1
 98 434 l 1
 117 480 l 1
 163 499 l 1
 209 480 l 1
 228 434 l 1
EndSplineSet
AlternateSubs2: "Randomize subtable" questiondown.1 questiondown.2 questiondown.3 questiondown.4 questiondown.5 questiondown.6 questiondown.7 questiondown.8 questiondown.9
EndChar

StartChar: AE
Encoding: 198 198 98
Width: 527
VWidth: 0
Flags: W
VStem: 282 55<452.5 533> 298 59<7 147 208 344.562>
LayerCount: 2
Fore
SplineSet
491 -8 m 1x40
 472 -54 l 1
 426 -73 l 1
 380 -54 l 1
 375 -41 l 1
 333 -48 l 1
 331 -48 l 1
 319 -49 299 -43 298 -24 c 2x40
 293 147 l 1
 193 131 l 1
 181 101 l 1
 136 -89 l 1
 141 -91 l 1
 160 -137 l 1
 141 -183 l 1
 95 -202 l 1
 49 -183 l 1
 30 -137 l 1
 49 -91 l 1
 78 -79 l 1
 117 89 l 1
 89 101 l 1
 70 147 l 1
 89 193 l 1
 135 212 l 1
 145 208 l 1
 263 716 l 1
 259 718 l 1
 240 764 l 1
 259 810 l 1
 305 829 l 1
 351 810 l 1
 370 764 l 1
 363 748 l 1
 390 722 l 1
 411 731 l 1
 457 712 l 1
 476 666 l 1
 457 620 l 1
 411 601 l 1
 365 620 l 1
 346 666 l 1
 353 682 l 1
 337 697 l 1x80
 351 208 l 1
 372 211 l 1
 385 242 l 1
 431 261 l 1
 477 242 l 1
 496 196 l 1
 477 150 l 1
 431 131 l 1
 385 150 l 1
 380 162 l 1
 353 157 l 1
 357 7 l 1
 368 9 l 1
 380 38 l 1
 426 57 l 1
 472 38 l 1
 491 -8 l 1x40
292 198 m 1
 282 533 l 1x80
 200 183 l 1
 292 198 l 1
EndSplineSet
AlternateSubs2: "Randomize subtable" AE.1 AE.2 AE.3 AE.4 AE.5 AE.6 AE.7 AE.8 AE.9
EndChar

StartChar: Oslash
Encoding: 216 216 99
Width: 460
VWidth: 0
Flags: W
HStem: -23 50<206.026 315.254>
VStem: 355 58<785 802.205>
LayerCount: 2
Fore
SplineSet
174 99 m 1
 177 92 180 86 182 81 c 0
 202 43 228 27 263 27 c 0
 269 27 273 27 277 28 c 0
 359 40 384 184 351 347 c 0
 338 412 330 476 329 538 c 1
 174 99 l 1
160 -34 m 1
 141 -80 l 1
 95 -99 l 1
 49 -80 l 1
 30 -34 l 1
 49 12 l 1
 85 27 l 1
 111 100 l 1
 90 175 95 254 121 339 c 1
 215 626 l 1
 195 672 l 1
 215 718 l 1
 260 737 l 1
 306 718 l 1
 320 685 l 1
 355 785 l 2
 357 792 368 805 387 803 c 0
 399 802 417 792 413 774 c 0
 383 638 381 494 410 355 c 0
 441 204 443 1 288 -21 c 0
 281 -22 273 -23 263 -23 c 0
 216 -23 176 -3 149 29 c 1
 142 9 l 1
 160 -34 l 1
297 622 m 1
 272 612 l 1
 179 327 l 2
 170 297 164 267 161 240 c 1
 297 622 l 1
EndSplineSet
AlternateSubs2: "Randomize subtable" Oslash.1 Oslash.2 Oslash.3 Oslash.4 Oslash.5 Oslash.6 Oslash.7 Oslash.8 Oslash.9
EndChar

StartChar: germandbls
Encoding: 223 223 100
Width: 559
VWidth: 0
Flags: W
LayerCount: 2
Fore
SplineSet
515 371 m 1
 496 325 l 1
 450 306 l 1
 404 325 l 1
 385 371 l 1
 392 388 l 1
 390 390 l 1
 382 392 376 391 371 390 c 0
 348 384 326 355 338 322 c 0
 349 290 390 286 440 257 c 0
 481 234 510 196 521 155 c 0
 542 78 504 0 429 -33 c 0
 413 -40 397 -33 391 -27 c 2
 311 58 l 1
 310 57 l 1
 298 26 276 -2 245 -22 c 0
 231 -31 216 -27 208 -22 c 2
 125 35 l 1
 95 23 l 1
 49 42 l 1
 30 88 l 1
 49 134 l 1
 95 153 l 1
 141 134 l 1
 160 88 l 1
 156 79 l 1
 226 31 l 1
 237 41 245 55 252 69 c 1
 249 70 l 1
 230 116 l 1
 249 162 l 1
 255 165 l 1
 245 191 226 211 203 222 c 0
 179 234 108 236 76 289 c 0
 41 346 69 413 127 437 c 0
 157 449 195 450 230 428 c 0
 231 428 233 426 234 425 c 2
 238 422 l 1
 261 431 l 1
 306 412 l 1
 319 424 335 433 354 438 c 0
 374 443 412 444 429 428 c 1
 450 436 l 1
 496 417 l 1
 515 371 l 1
352 96 m 1
 421 23 l 1
 455 48 476 95 463 144 c 0
 455 174 434 199 406 215 c 0
 376 232 303 245 281 307 c 2
 280 309 l 1
 261 301 l 1
 215 320 l 1
 196 366 l 1
 202 381 l 1
 193 389 l 1
 177 398 165 397 154 392 c 0
 128 381 110 345 130 311 c 0
 145 286 182 289 233 265 c 0
 275 245 301 211 314 173 c 1
 341 162 l 1
 360 116 l 1
 352 96 l 1
EndSplineSet
AlternateSubs2: "Randomize subtable" germandbls.1 germandbls.2 germandbls.3 germandbls.4 germandbls.5 germandbls.6 germandbls.7 germandbls.8 germandbls.9
EndChar

StartChar: ae
Encoding: 230 230 101
Width: 536
VWidth: 0
Flags: W
VStem: 313 60<172 305>
LayerCount: 2
Fore
SplineSet
505 62 m 1
 486 16 l 1
 440 -3 l 1
 408 10 l 1
 361 -20 l 1
 361 -20 355 -25 345 -26 c 0
 333 -27 313 -20 313 -1 c 2
 313 105 l 1
 211 136 l 1
 209 131 l 1
 174 116 l 1
 149 84 l 1
 160 58 l 1
 141 12 l 1
 95 -7 l 1
 49 12 l 1
 30 58 l 1
 49 104 l 1
 95 123 l 1
 104 119 l 1
 116 134 l 1
 98 177 l 1
 117 223 l 1
 163 242 l 1
 188 232 l 1
 289 368 l 1
 278 394 l 1
 297 440 l 1
 343 459 l 1
 352 455 l 1
 365 473 l 1
 353 500 l 1
 373 546 l 1
 418 565 l 1
 464 546 l 1
 483 500 l 1
 464 454 l 1
 418 435 l 1
 410 439 l 1
 397 421 l 1
 408 394 l 1
 389 348 l 1
 373 341 l 1
 373 172 l 1
 382 176 l 1
 428 157 l 1
 440 127 l 1
 486 108 l 1
 505 62 l 1
313 158 m 1
 313 305 l 1
 225 185 l 1
 313 158 l 1
EndSplineSet
AlternateSubs2: "Randomize subtable" ae.1 ae.2 ae.3 ae.4 ae.5 ae.6 ae.7 ae.8 ae.9
EndChar

StartChar: oslash
Encoding: 248 248 102
Width: 469
VWidth: 0
Flags: W
HStem: -2 47<189 288.105>
VStem: 31 60<111.1 278.574>
LayerCount: 2
Fore
SplineSet
189 45 m 1
 206 40 223 39 240 42 c 0
 292 51 333 103 355 167 c 0
 384 251 382 341 356 420 c 1
 351 409 l 1
 354 402 l 1
 335 356 l 1
 326 352 l 1
 189 45 l 1
183 -43 m 1
 164 -89 l 1
 118 -108 l 1
 72 -89 l 1
 53 -43 l 1
 72 3 l 1
 114 21 l 1
 116 24 l 1
 67 59 33 118 31 185 c 0
 27 301 111 406 233 424 c 1
 243 448 l 1
 289 467 l 1
 310 458 l 1
 329 501 l 1
 329 501 333 509 343 514 c 0
 353 519 375 520 384 503 c 0
 441 396 452 270 412 153 c 0
 389 85 342 9 253 -7 c 0
 225 -12 196 -11 168 -2 c 1
 167 -4 l 1
 183 -43 l 1
236 374 m 1
 154 357 87 282 91 187 c 0
 93 141 113 101 139 75 c 1
 261 348 l 1
 243 356 l 1
 236 374 l 1
EndSplineSet
AlternateSubs2: "Randomize subtable" oslash.1 oslash.2 oslash.3 oslash.4 oslash.5 oslash.6 oslash.7 oslash.8 oslash.9
EndChar

StartChar: dotlessi
Encoding: 305 305 103
Width: 202
VWidth: 0
Flags: W
HStem: 465 20G<60 152>
VStem: 76 60<30 367>
LayerCount: 2
Fore
SplineSet
171 420 m 1
 152 374 l 1
 137 368 l 1
 137 339 137 310 136 280 c 0
 135 236 137 189 136 140 c 0
 135 103 133 65 130 26 c 1
 141 21 l 1
 160 -25 l 1
 141 -71 l 1
 95 -90 l 1
 49 -71 l 1
 30 -25 l 1
 49 21 l 1
 70 30 l 1
 73 68 75 104 76 141 c 0
 77 188 75 235 76 281 c 0
 77 310 77 339 77 367 c 1
 60 374 l 1
 41 420 l 1
 60 466 l 1
 106 485 l 1
 152 466 l 1
 171 420 l 1
EndSplineSet
AlternateSubs2: "Randomize subtable" dotlessi.1 dotlessi.2 dotlessi.3 dotlessi.4 dotlessi.5 dotlessi.6 dotlessi.7 dotlessi.8 dotlessi.9
EndChar

StartChar: OE
Encoding: 338 338 104
Width: 671
VWidth: 0
Flags: W
HStem: 757 20G<424 515>
LayerCount: 2
Fore
SplineSet
640 100 m 1
 620 54 l 1
 575 35 l 1
 529 54 l 1
 528 55 l 1
 345 -12 l 2
 344 -12 344 -13 343 -13 c 0
 341 -14 338 -15 335 -15 c 0
 333 -15 331 -15 329 -15 c 0
 155 -14 51 148 34 311 c 0
 16 486 78 659 208 782 c 1
 202 797 l 1
 221 843 l 1
 267 862 l 1
 313 843 l 1
 332 797 l 1
 424 759 l 1
 469 777 l 1
 515 758 l 1
 534 712 l 1
 515 666 l 1
 469 647 l 1
 423 666 l 1
 405 711 l 1
 311 750 l 1
 301 746 l 1
 334 336 l 1
 474 218 l 1
 498 228 l 1
 544 209 l 1
 563 163 l 1
 562 159 l 1
 575 165 l 1
 620 146 l 1
 640 100 l 1
439 177 m 1
 341 259 l 1
 358 47 l 1
 497 99 l 1
 452 117 l 1
 433 163 l 1
 439 177 l 1
275 328 m 2
 242 737 l 1
 133 626 77 471 94 315 c 0
 109 172 192 58 299 38 c 1
 276 318 l 2
 275 321 274 325 275 328 c 2
EndSplineSet
AlternateSubs2: "Randomize subtable" OE.1 OE.2 OE.3 OE.4 OE.5 OE.6 OE.7 OE.8 OE.9
EndChar

StartChar: oe
Encoding: 339 339 105
Width: 582
VWidth: 0
Flags: W
HStem: 154 50<290 390> 478 20G<399 491>
VStem: 31 60<98.4763 300.633>
LayerCount: 2
Fore
SplineSet
511 185 m 1
 492 139 l 1
 446 120 l 1
 400 139 l 1
 392 158 l 1
 288 154 l 1
 280 5 l 1
 427 32 l 1
 440 64 l 1
 486 83 l 1
 532 64 l 1
 551 18 l 1
 532 -28 l 1
 486 -47 l 1
 440 -28 l 1
 435 -17 l 1
 262 -50 l 2
 259 -51 255 -52 251 -52 c 0
 250 -52 l 0
 249 -52 l 0
 111 -52 29 76 31 203 c 0
 34 322 101 434 211 489 c 1
 229 532 l 1
 275 551 l 1
 320 532 l 1
 337 493 l 1
 397 474 l 1
 399 478 l 1
 445 498 l 1
 491 478 l 1
 510 432 l 1
 491 387 l 1
 445 367 l 1
 399 387 l 1
 383 426 l 1
 322 445 l 1
 320 440 l 1
 302 432 l 1
 290 204 l 1
 390 208 l 1
 400 231 l 1
 446 250 l 1
 492 231 l 1
 511 185 l 1
230 183 m 2
 242 434 l 1
 231 439 l 1
 148 391 93 302 91 202 c 0
 89 98 148 18 220 1 c 1
 229 175 l 2
 229 176 229 177 229 177 c 0
 229 179 229 181 230 183 c 2
EndSplineSet
AlternateSubs2: "Randomize subtable" oe.1 oe.2 oe.3 oe.4 oe.5 oe.6 oe.7 oe.8 oe.9
EndChar

StartChar: uni0237
Encoding: 567 567 106
Width: 327
VWidth: 0
Flags: W
VStem: 30 266
LayerCount: 2
Fore
SplineSet
296 315 m 1
 277 269 l 1
 264 264 l 1
 284 -79 l 2
 285 -98 265 -105 253 -105 c 0
 240 -105 233 -98 231 -96 c 2
 113 22 l 1
 95 14 l 1
 49 33 l 1
 30 79 l 1
 49 125 l 1
 95 144 l 1
 141 125 l 1
 160 79 l 1
 152 61 l 1
 220 -6 l 1
 204 261 l 1
 185 269 l 1
 166 315 l 1
 185 361 l 1
 231 380 l 1
 277 361 l 1
 296 315 l 1
EndSplineSet
AlternateSubs2: "Randomize subtable" uni0237.1 uni0237.2 uni0237.3 uni0237.4 uni0237.5 uni0237.6 uni0237.7 uni0237.8 uni0237.9
EndChar

StartChar: circumflex
Encoding: 710 710 107
Width: 450
VWidth: 0
Flags: W
HStem: 483 33G<51 143 307 399>
LayerCount: 2
Fore
SplineSet
418 560 m 1
 399 514 l 1
 353 495 l 1
 307 514 l 1
 288 560 l 1
 303 595 l 1
 267 668 l 1
 155 564 l 1
 162 548 l 1
 143 502 l 1
 97 483 l 1
 51 502 l 1
 32 548 l 1
 51 594 l 1
 97 613 l 1
 118 604 l 1
 254 731 l 2
 269 745 290 739 298 732 c 0
 304 727 304 724 304 724 c 1
 354 625 l 1
 399 606 l 1
 418 560 l 1
EndSplineSet
AlternateSubs2: "Randomize subtable" circumflex.1 circumflex.2 circumflex.3 circumflex.4 circumflex.5 circumflex.6 circumflex.7 circumflex.8 circumflex.9
EndChar

StartChar: caron
Encoding: 711 711 108
Width: 455
VWidth: 0
Flags: W
HStem: 509 218
LayerCount: 2
Fore
SplineSet
422 608 m 1
 403 562 l 1
 357 543 l 1
 311 562 l 1
 178 509 l 2
 170 506 147 505 138 522 c 2
 98 598 l 1
 97 597 l 1
 51 616 l 1
 32 662 l 1
 51 708 l 1
 97 727 l 1
 143 708 l 1
 162 662 l 1
 148 627 l 1
 180 566 l 1
 293 611 l 1
 311 654 l 1
 357 673 l 1
 403 654 l 1
 422 608 l 1
EndSplineSet
AlternateSubs2: "Randomize subtable" caron.1 caron.2 caron.3 caron.4 caron.5 caron.6 caron.7 caron.8 caron.9
EndChar

StartChar: breve
Encoding: 728 728 109
Width: 365
VWidth: 0
Flags: W
HStem: 444 50<142.502 247.569> 749 20G<58 150>
VStem: 272 60<519.28 638.763>
LayerCount: 2
Fore
SplineSet
252 699 m 1
 305 679 330 629 332 583 c 0
 334 524 296 446 204 444 c 1
 61 444 5 580 50 676 c 1
 39 704 l 1
 58 750 l 1
 104 769 l 1
 150 750 l 1
 157 734 l 1
 193 749 l 1
 239 730 l 1
 252 699 l 1
242 646 m 1
 239 638 l 1
 193 619 l 1
 147 638 l 1
 140 654 l 1
 104 639 l 1
 99 641 l 1
 80 577 120 511 180 497 c 0
 190 495 197 494 203 494 c 0
 244 495 273 534 272 582 c 0
 271 610 261 633 242 646 c 1
EndSplineSet
AlternateSubs2: "Randomize subtable" breve.1 breve.2 breve.3 breve.4 breve.5 breve.6 breve.7 breve.8 breve.9
EndChar

StartChar: dotaccent
Encoding: 729 729 110
Width: 196
VWidth: 0
Flags: W
HStem: 469 130
VStem: 33 130
LayerCount: 2
Fore
SplineSet
163 534 m 1
 144 488 l 1
 98 469 l 1
 52 488 l 1
 33 534 l 1
 52 580 l 1
 98 599 l 1
 144 580 l 1
 163 534 l 1
EndSplineSet
AlternateSubs2: "Randomize subtable" dotaccent.1 dotaccent.2 dotaccent.3 dotaccent.4 dotaccent.5 dotaccent.6 dotaccent.7 dotaccent.8 dotaccent.9
EndChar

StartChar: ring
Encoding: 730 730 111
Width: 203
VWidth: 0
Flags: W
HStem: 437 218
VStem: 74 58<437.521 522.201> 108 61<560.301 604.53>
LayerCount: 2
Fore
SplineSet
108 605 m 1xa0
 97 605 l 1
 95 601 97 581 103 559 c 1
 110 585 110 602 108 605 c 1xa0
132 456 m 2xc0
 131 453 130 451 128 449 c 0
 123 442 114 435 101 437 c 0
 92 437 81 442 76 451 c 0
 75 453 74 454 74 456 c 1
 74 457 l 0xc0
 71 469 66 482 61 498 c 0
 47 540 11 606 57 641 c 0
 68 649 82 655 103 655 c 0
 117 655 135 652 149 641 c 0
 165 629 169 612 169 595 c 0xa0
 169 555 144 499 132 457 c 0
 132 456 l 2xc0
EndSplineSet
AlternateSubs2: "Randomize subtable" ring.1 ring.2 ring.3 ring.4 ring.5 ring.6 ring.7 ring.8 ring.9
EndChar

StartChar: tilde
Encoding: 732 732 112
Width: 501
VWidth: 0
Flags: W
HStem: 544 50<148.414 354.348>
LayerCount: 2
Fore
SplineSet
469 640 m 1
 450 595 l 1
 413 579 l 1
 390 553 350 544 311 544 c 0
 232 544 173 559 145 544 c 1
 161 505 l 1
 142 459 l 1
 96 440 l 1
 50 459 l 1
 31 505 l 1
 50 551 l 1
 85 566 l 1
 133 623 260 594 311 594 c 0
 332 594 346 594 356 599 c 1
 339 640 l 1
 358 686 l 1
 404 705 l 1
 450 686 l 1
 469 640 l 1
EndSplineSet
AlternateSubs2: "Randomize subtable" tilde.1 tilde.2 tilde.3 tilde.4 tilde.5 tilde.6 tilde.7 tilde.8 tilde.9
EndChar

StartChar: hungarumlaut
Encoding: 733 733 113
Width: 365
VWidth: 0
Flags: W
HStem: 749 20G<58 150>
VStem: 239 60<513 681>
LayerCount: 2
Fore
SplineSet
335 734 m 1
 315 688 l 1
 300 682 l 1
 299 493 l 2
 299 485 293 472 276 469 c 2
 68 429 l 1
 59 429 l 1
 47 430 28 438 31 457 c 2
 65 655 l 1
 58 658 l 1
 39 704 l 1
 58 750 l 1
 104 769 l 1
 150 750 l 1
 169 704 l 1
 150 658 l 1
 125 648 l 1
 97 486 l 1
 239 513 l 1
 240 681 l 1
 224 688 l 1
 205 734 l 1
 224 780 l 1
 270 799 l 1
 315 780 l 1
 335 734 l 1
EndSplineSet
AlternateSubs2: "Randomize subtable" hungarumlaut.1 hungarumlaut.2 hungarumlaut.3 hungarumlaut.4 hungarumlaut.5 hungarumlaut.6 hungarumlaut.7 hungarumlaut.8 hungarumlaut.9
EndChar

StartChar: Gamma
Encoding: 915 915 114
Width: 367
VWidth: 0
Flags: W
VStem: 30 306
LayerCount: 2
Fore
SplineSet
336 802 m 1
 317 756 l 1
 271 737 l 1
 228 755 l 1
 91 695 l 1
 131 24 l 1
 150 16 l 1
 169 -30 l 1
 150 -76 l 1
 104 -95 l 1
 58 -76 l 1
 39 -30 l 1
 58 16 l 1
 71 21 l 1
 30 708 l 2
 29 720 40 729 46 732 c 2
 206 802 l 1
 225 848 l 1
 271 867 l 1
 317 848 l 1
 336 802 l 1
EndSplineSet
AlternateSubs2: "Randomize subtable" Gamma.1 Gamma.2 Gamma.3 Gamma.4 Gamma.5 Gamma.6 Gamma.7 Gamma.8 Gamma.9
EndChar

StartChar: Delta
Encoding: 916 916 115
Width: 484
VWidth: 0
Flags: W
LayerCount: 2
Fore
SplineSet
147 2 m 1
 222 17 355 51 392 66 c 1
 403 127 320 465 257 608 c 1
 135 18 l 1
 141 16 l 1
 147 2 l 1
76 27 m 1
 213 687 l 2
 217 706 238 709 249 707 c 0
 250 707 250 706 251 706 c 0
 259 704 263 701 266 699 c 0
 342 647 500 93 439 33 c 0
 415 9 249 -36 151 -51 c 1
 141 -76 l 1
 95 -95 l 1
 49 -76 l 1
 30 -30 l 1
 49 16 l 1
 76 27 l 1
EndSplineSet
AlternateSubs2: "Randomize subtable" Delta.1 Delta.2 Delta.3 Delta.4 Delta.5 Delta.6 Delta.7 Delta.8 Delta.9
EndChar

StartChar: Theta
Encoding: 920 920 116
Width: 479
VWidth: 0
Flags: W
HStem: -24 50<173.21 309.946> 250 50<192 293>
LayerCount: 2
Fore
SplineSet
293 300 m 1
 302 322 l 1
 348 341 l 1
 380 328 l 1
 377 349 372 370 366 392 c 0
 334 502 311 550 254 622 c 1
 240 616 l 1
 225 622 l 1
 169 556 148 511 117 412 c 0
 107 381 101 350 97 320 c 1
 137 337 l 1
 183 318 l 1
 191 298 l 1
 293 300 l 1
294 250 m 1
 192 248 l 1
 183 226 l 1
 137 207 l 1
 93 225 l 1
 102 96 164 22 247 26 c 0
 255 26 262 28 268 29 c 0
 338 43 381 123 386 227 c 1
 348 211 l 1
 302 230 l 1
 294 250 l 1
184 660 m 1
 175 681 l 1
 194 727 l 1
 240 746 l 1
 286 727 l 1
 305 681 l 1
 296 659 l 1
 362 578 391 520 424 404 c 0
 474 230 450 13 281 -20 c 0
 272 -22 262 -23 250 -24 c 0
 109 -30 41 92 33 226 c 0
 29 287 37 356 59 425 c 0
 93 531 119 584 184 660 c 1
EndSplineSet
AlternateSubs2: "Randomize subtable" Theta.1 Theta.2 Theta.3 Theta.4 Theta.5 Theta.6 Theta.7 Theta.8 Theta.9
EndChar

StartChar: Lambda
Encoding: 923 923 117
Width: 380
VWidth: 0
Flags: W
VStem: 30 319
LayerCount: 2
Fore
SplineSet
349 -32 m 1
 329 -78 l 1
 284 -97 l 1
 238 -78 l 1
 219 -32 l 1
 238 14 l 1
 246 17 l 1
 184 453 l 1
 131 -13 l 1
 141 -17 l 1
 160 -63 l 1
 141 -109 l 1
 95 -128 l 1
 49 -109 l 1
 30 -63 l 1
 49 -17 l 1
 71 -8 l 1
 150 690 l 2
 152 709 173 714 185 712 c 0
 203 709 209 696 210 691 c 2
 305 24 l 1
 329 14 l 1
 349 -32 l 1
EndSplineSet
AlternateSubs2: "Randomize subtable" Lambda.1 Lambda.2 Lambda.3 Lambda.4 Lambda.5 Lambda.6 Lambda.7 Lambda.8 Lambda.9
EndChar

StartChar: Xi
Encoding: 926 926 118
Width: 463
VWidth: 0
Flags: W
HStem: 666 50<151 215>
LayerCount: 2
Fore
SplineSet
432 5 m 1
 413 -41 l 1
 367 -60 l 1
 321 -41 l 1
 314 -23 l 1
 152 -32 l 1
 142 -56 l 1
 96 -75 l 1
 50 -56 l 1
 31 -10 l 1
 50 36 l 1
 96 55 l 1
 142 36 l 1
 149 18 l 1
 311 27 l 1
 321 51 l 1
 367 70 l 1
 413 51 l 1
 432 5 l 1
379 393 m 1
 360 347 l 1
 314 328 l 1
 268 347 l 1
 258 372 l 1
 183 376 l 1
 176 359 l 1
 130 340 l 1
 84 359 l 1
 65 405 l 1
 84 451 l 1
 130 470 l 1
 176 451 l 1
 186 426 l 1
 261 422 l 1
 268 439 l 1
 314 458 l 1
 360 439 l 1
 379 393 l 1
335 691 m 1
 316 645 l 1
 270 626 l 1
 224 645 l 1
 215 666 l 1
 151 666 l 1
 142 645 l 1
 96 626 l 1
 50 645 l 1
 31 691 l 1
 50 737 l 1
 96 756 l 1
 142 737 l 1
 151 716 l 1
 215 716 l 1
 224 737 l 1
 270 756 l 1
 316 737 l 1
 335 691 l 1
EndSplineSet
AlternateSubs2: "Randomize subtable" Xi.1 Xi.2 Xi.3 Xi.4 Xi.5 Xi.6 Xi.7 Xi.8 Xi.9
EndChar

StartChar: Pi
Encoding: 928 928 119
Width: 472
VWidth: 0
Flags: W
VStem: 347 60<85 323.824> 364 60<439.294 665>
LayerCount: 2
Fore
SplineSet
441 32 m 1x80
 422 -14 l 1
 376 -33 l 1
 330 -14 l 1
 311 32 l 1
 330 78 l 1
 347 85 l 1x80
 364 665 l 1
 177 677 l 1
 129 74 l 1
 141 69 l 1
 160 23 l 1
 141 -23 l 1
 95 -42 l 1
 49 -23 l 1
 30 23 l 1
 49 69 l 1
 69 77 l 1
 119 706 l 2
 121 725 143 730 151 729 c 2
 397 713 l 2
 417 712 424 697 424 688 c 2x40
 407 84 l 1
 422 78 l 1
 441 32 l 1x80
EndSplineSet
AlternateSubs2: "Randomize subtable" Pi.1 Pi.2 Pi.3 Pi.4 Pi.5 Pi.6 Pi.7 Pi.8 Pi.9
EndChar

StartChar: Sigma
Encoding: 931 931 120
Width: 491
VWidth: 0
Flags: W
HStem: 665 49<125 340>
LayerCount: 2
Fore
SplineSet
444 -7 m 1
 425 -53 l 1
 379 -72 l 1
 333 -53 l 1
 319 -20 l 1
 53 36 l 2
 52 36 52 37 51 37 c 0
 40 40 24 53 32 70 c 2
 139 290 l 1
 60 685 l 1
 60 686 l 1
 59 696 66 713 89 714 c 2
 340 720 l 1
 349 742 l 1
 395 761 l 1
 441 742 l 1
 460 696 l 1
 441 651 l 1
 395 631 l 1
 349 651 l 1
 341 671 l 1
 125 665 l 1
 199 292 l 2
 200 286 199 280 198 278 c 2
 101 78 l 1
 329 29 l 1
 333 39 l 1
 379 58 l 1
 425 39 l 1
 444 -7 l 1
EndSplineSet
AlternateSubs2: "Randomize subtable" Sigma.1 Sigma.2 Sigma.3 Sigma.4 Sigma.5 Sigma.6 Sigma.7 Sigma.8 Sigma.9
EndChar

StartChar: Upsilon
Encoding: 933 933 121
Width: 586
VWidth: 0
Flags: W
HStem: 506 34G<126 218 419 511>
VStem: 268 60<43 197.154> 281 60<176.385 453.782>
LayerCount: 2
Fore
SplineSet
530 584 m 1xa0
 511 538 l 1
 465 519 l 1
 419 538 l 1
 400 584 l 1
 419 630 l 1
 465 649 l 1
 492 638 l 1
 494 654 488 672 476 683 c 0
 466 692 459 694 439 679 c 0
 403 651 344 394 341 331 c 2xa0
 328 41 l 1
 342 35 l 1
 361 -11 l 1
 342 -57 l 1
 296 -76 l 1
 250 -57 l 1
 231 -11 l 1
 250 35 l 1
 268 43 l 1xc0
 281 332 l 2
 281 333 l 0
 283 369 259 471 231 557 c 1
 218 525 l 1
 172 506 l 1
 126 525 l 1
 121 537 l 1
 104 538 88 543 75 551 c 0
 14 591 22 683 64 727 c 0
 97 761 153 765 205 730 c 0
 248 701 286 606 311 514 c 1
 331 599 360 686 398 716 c 0
 438 748 489 744 520 717 c 0
 554 687 572 625 530 585 c 1
 530 584 l 1xa0
208 621 m 1
 194 657 179 683 168 691 c 0
 134 714 122 707 111 696 c 0
 86 669 88 606 112 590 c 0
 113 590 113 589 114 589 c 2
 126 617 l 1
 172 636 l 1
 208 621 l 1
EndSplineSet
AlternateSubs2: "Randomize subtable" Upsilon.1 Upsilon.2 Upsilon.3 Upsilon.4 Upsilon.5 Upsilon.6 Upsilon.7 Upsilon.8 Upsilon.9
EndChar

StartChar: Phi
Encoding: 934 934 122
Width: 391
VWidth: 0
Flags: W
HStem: 254 50<128.478 203>
VStem: 203 60<85 254 327 424 542 605>
LayerCount: 2
Fore
SplineSet
298 32 m 1
 279 -14 l 1
 233 -33 l 1
 187 -14 l 1
 168 32 l 1
 187 78 l 1
 203 85 l 1
 203 254 l 1
 135 251 75 286 47 336 c 0
 30 367 23 406 38 446 c 0
 58 500 114 533 171 528 c 1
 172 529 l 1
 204 542 l 1
 204 605 l 1
 188 612 l 1
 169 658 l 1
 188 704 l 1
 234 723 l 1
 280 704 l 1
 299 658 l 1
 280 612 l 1
 264 605 l 1
 264 529 l 1
 273 506 l 1
 308 496 338 472 351 438 c 0
 378 371 338 296 263 267 c 1
 263 85 l 1
 279 78 l 1
 298 32 l 1
155 479 m 1
 131 478 107 462 96 432 c 0
 86 404 90 378 102 357 c 0
 122 321 160 300 203 304 c 1
 204 424 l 1
 172 437 l 1
 155 479 l 1
270 453 m 1
 264 437 l 1
 263 327 l 1
 293 351 307 390 294 423 c 0
 289 437 280 447 270 453 c 1
EndSplineSet
AlternateSubs2: "Randomize subtable" Phi.1 Phi.2 Phi.3 Phi.4 Phi.5 Phi.6 Phi.7 Phi.8 Phi.9
EndChar

StartChar: Psi
Encoding: 936 936 123
Width: 434
VWidth: 0
Flags: W
HStem: 96 50<115.203 182> 744 20G<201 293>
VStem: 38 60<161.825 335.509>
LayerCount: 2
Fore
SplineSet
403 567 m 1
 384 521 l 1
 349 507 l 1
 336 389 402 144 242 102 c 1
 239 54 l 1
 252 49 l 1
 271 3 l 1
 252 -43 l 1
 206 -62 l 1
 161 -43 l 1
 141 3 l 1
 161 49 l 1
 180 57 l 1
 182 96 l 1
 77 98 38 156 38 225 c 0
 38 320 84 433 85 501 c 1
 49 517 l 1
 30 562 l 1
 49 608 l 1
 95 628 l 1
 141 608 l 1
 160 562 l 1
 145 526 l 1
 164 436 98 301 98 225 c 0
 98 172 113 147 185 146 c 1
 214 648 l 1
 201 653 l 1
 182 699 l 1
 201 745 l 1
 247 764 l 1
 293 745 l 1
 312 699 l 1
 293 653 l 1
 274 645 l 1
 245 157 l 1
 339 203 235 391 287 532 c 1
 273 567 l 1
 292 613 l 1
 338 632 l 1
 384 613 l 1
 403 567 l 1
EndSplineSet
AlternateSubs2: "Randomize subtable" Psi.1 Psi.2 Psi.3 Psi.4 Psi.5 Psi.6 Psi.7 Psi.8 Psi.9
EndChar

StartChar: Omega
Encoding: 937 937 124
Width: 407
VWidth: 0
Flags: W
VStem: 53 60<-143.119 -63> 209 58<-100.188 -84>
LayerCount: 2
Fore
SplineSet
376 101 m 1
 357 55 l 1
 317 38 l 1
 267 -84 l 2
 265 -89 257 -100 241 -101 c 0
 229 -102 209 -95 209 -76 c 0
 209 150 271 369 291 590 c 0
 301 700 265 791 202 796 c 0
 150 800 116 764 106 674 c 0
 99 616 105 543 121 469 c 0
 151 328 134 186 122 46 c 1
 141 38 l 1
 160 -8 l 1
 141 -54 l 1
 119 -63 l 1
 113 -122 l 2
 111 -141 91 -146 79 -144 c 0
 60 -141 53 -128 53 -120 c 0
 53 -99 53 -77 54 -56 c 1
 49 -54 l 1
 30 -8 l 1
 49 38 l 1
 61 43 l 1
 73 187 91 326 62 460 c 0
 45 537 39 613 46 678 c 0
 56 769 101 855 208 846 c 0
 338 836 360 690 351 586 c 0
 338 439 308 296 288 156 c 1
 311 166 l 1
 357 147 l 1
 376 101 l 1
EndSplineSet
AlternateSubs2: "Randomize subtable" Omega.1 Omega.2 Omega.3 Omega.4 Omega.5 Omega.6 Omega.7 Omega.8 Omega.9
EndChar

StartChar: endash
Encoding: 8211 8211 125
Width: 411
VWidth: 0
Flags: W
HStem: 218 197
LayerCount: 2
Fore
SplineSet
377 283 m 1
 358 237 l 1
 312 218 l 1
 266 237 l 1
 250 276 l 1
 147 308 l 1
 145 304 l 1
 99 285 l 1
 53 304 l 1
 34 350 l 1
 53 396 l 1
 99 415 l 1
 145 396 l 1
 161 357 l 1
 264 325 l 1
 266 329 l 1
 312 348 l 1
 358 329 l 1
 377 283 l 1
EndSplineSet
AlternateSubs2: "Randomize subtable" endash.1 endash.2 endash.3 endash.4 endash.5 endash.6 endash.7 endash.8 endash.9
EndChar

StartChar: emdash
Encoding: 8212 8212 126
Width: 649
VWidth: 0
Flags: W
HStem: 221 179
LayerCount: 2
Fore
SplineSet
614 286 m 1
 595 240 l 1
 549 221 l 1
 503 240 l 1
 492 267 l 1
 152 304 l 1
 146 289 l 1
 100 270 l 1
 54 289 l 1
 35 335 l 1
 54 381 l 1
 100 400 l 1
 146 381 l 1
 157 353 l 1
 496 316 l 1
 503 332 l 1
 549 351 l 1
 595 332 l 1
 614 286 l 1
EndSplineSet
AlternateSubs2: "Randomize subtable" emdash.1 emdash.2 emdash.3 emdash.4 emdash.5 emdash.6 emdash.7 emdash.8 emdash.9
EndChar

StartChar: quoteleft
Encoding: 8216 8216 127
Width: 225
VWidth: 0
Flags: W
HStem: 420 302
VStem: 35 159
LayerCount: 2
Fore
SplineSet
194 485 m 1
 175 439 l 1
 129 420 l 1
 83 439 l 1
 64 485 l 1
 77 517 l 1
 35 586 l 2
 32 591 29 603 38 613 c 2
 61 637 l 1
 53 657 l 1
 72 703 l 1
 118 722 l 1
 164 703 l 1
 183 657 l 1
 164 611 l 1
 118 592 l 1
 101 599 l 1
 97 595 l 1
 125 548 l 1
 129 550 l 1
 175 531 l 1
 194 485 l 1
EndSplineSet
AlternateSubs2: "Randomize subtable" quoteleft.1 quoteleft.2 quoteleft.3 quoteleft.4 quoteleft.5 quoteleft.6 quoteleft.7 quoteleft.8 quoteleft.9
EndChar

StartChar: quoteright
Encoding: 8217 8217 128
Width: 234
VWidth: 0
Flags: W
HStem: 497 20G<49 97>
VStem: 30 171
LayerCount: 2
Fore
SplineSet
160 452 m 1
 141 406 l 1
 95 387 l 1
 49 406 l 1
 30 452 l 1
 49 498 l 1
 95 517 l 1
 97 516 l 1
 140 596 l 1
 120 624 l 1
 111 620 l 1
 65 639 l 1
 46 685 l 1
 65 731 l 1
 111 750 l 1
 157 731 l 1
 176 685 l 1
 165 659 l 1
 199 611 l 2
 205 602 204 592 201 587 c 2
 146 486 l 1
 160 452 l 1
EndSplineSet
AlternateSubs2: "Randomize subtable" quoteright.1 quoteright.2 quoteright.3 quoteright.4 quoteright.5 quoteright.6 quoteright.7 quoteright.8 quoteright.9
EndChar

StartChar: quotedblleft
Encoding: 8220 8220 129
Width: 345
VWidth: 0
Flags: W
HStem: 759 20G<155 247>
VStem: 30 284
LayerCount: 2
Fore
SplineSet
266 714 m 1
 247 668 l 1
 245 667 l 1
 314 413 l 2
 319 395 301 383 289 382 c 0
 273 380 262 390 259 394 c 2
 106 592 l 1
 95 587 l 1
 49 606 l 1
 30 652 l 1
 49 698 l 1
 95 717 l 1
 141 698 l 1
 160 652 l 1
 150 628 l 1
 218 540 l 1
 187 655 l 1
 155 668 l 1
 136 714 l 1
 155 760 l 1
 201 779 l 1
 247 760 l 1
 266 714 l 1
EndSplineSet
AlternateSubs2: "Randomize subtable" quotedblleft.1 quotedblleft.2 quotedblleft.3 quotedblleft.4 quotedblleft.5 quotedblleft.6 quotedblleft.7 quotedblleft.8 quotedblleft.9
EndChar

StartChar: quotedblright
Encoding: 8221 8221 130
Width: 331
VWidth: 0
Flags: W
VStem: 30 271
LayerCount: 2
Fore
SplineSet
301 659 m 1
 282 613 l 1
 236 594 l 1
 228 597 l 1
 86 396 l 2
 84 393 75 383 58 384 c 0
 46 385 26 394 30 413 c 2
 75 648 l 1
 69 650 l 1
 50 696 l 1
 69 742 l 1
 115 761 l 1
 161 742 l 1
 180 696 l 1
 161 650 l 1
 135 639 l 1
 115 536 l 1
 182 632 l 1
 171 659 l 1
 190 704 l 1
 236 724 l 1
 282 704 l 1
 301 659 l 1
EndSplineSet
AlternateSubs2: "Randomize subtable" quotedblright.1 quotedblright.2 quotedblright.3 quotedblright.4 quotedblright.5 quotedblright.6 quotedblright.7 quotedblright.8 quotedblright.9
EndChar

StartChar: exclam.1
Encoding: 65536 -1 131
Width: 206
VWidth: 0
Flags: W
VStem: 65 60<497.938 696> 81 60<242 440.062>
LayerCount: 2
Fore
SplineSet
178 189 m 1x40
 159 143 l 1
 113 124 l 1
 67 143 l 1
 48 189 l 1
 67 235 l 1
 81 241 l 1x40
 65 696 l 1
 47 703 l 1
 28 749 l 1
 47 795 l 1
 93 814 l 1
 139 795 l 1
 158 749 l 1
 139 703 l 1
 125 697 l 1x80
 141 242 l 1
 159 235 l 1
 178 189 l 1x40
172 -8 m 1
 153 -54 l 1
 107 -73 l 1
 61 -54 l 1
 42 -8 l 1
 61 38 l 1
 107 57 l 1
 153 38 l 1
 172 -8 l 1
EndSplineSet
EndChar

StartChar: quotedbl.1
Encoding: 65537 -1 132
Width: 391
VWidth: 0
Flags: W
HStem: 752 20G<210 302>
VStem: 30 331
LayerCount: 2
Fore
SplineSet
361 440 m 1
 342 394 l 1
 296 375 l 1
 251 394 l 1
 231 440 l 1
 251 486 l 1
 259 489 l 1
 235 651 l 1
 210 661 l 1
 191 707 l 1
 210 753 l 1
 256 772 l 1
 302 753 l 1
 321 707 l 1
 302 661 l 1
 294 658 l 1
 318 496 l 1
 342 486 l 1
 361 440 l 1
208 385 m 1
 189 339 l 1
 143 320 l 1
 97 339 l 1
 78 385 l 1
 97 431 l 1
 103 434 l 1
 76 563 l 1
 49 574 l 1
 30 620 l 1
 49 666 l 1
 95 685 l 1
 141 666 l 1
 160 620 l 1
 141 574 l 1
 136 572 l 1
 162 442 l 1
 189 431 l 1
 208 385 l 1
EndSplineSet
EndChar

StartChar: numbersign.1
Encoding: 65538 -1 133
Width: 520
VWidth: 0
Flags: W
HStem: 199 49<215 235 301 371> 448 49<152 187 257 267> 508 20G<381 473> 746 20G<286 377>
LayerCount: 2
Fore
SplineSet
491 222 m 1
 472 176 l 1
 426 157 l 1
 380 176 l 1
 371 198 l 1
 295 199 l 1
 267 -8 l 2
 265 -21 252 -28 243 -29 c 2
 198 -36 l 1
 186 -66 l 1
 140 -85 l 1
 94 -66 l 1
 75 -20 l 1
 94 26 l 1
 119 36 l 1
 145 195 l 1
 139 180 l 1
 93 161 l 1
 47 180 l 1
 28 226 l 1
 47 272 l 1
 93 291 l 1
 139 272 l 1
 148 250 l 1
 154 250 l 1
 187 448 l 1
 150 450 l 1
 142 431 l 1
 96 412 l 1
 50 431 l 1
 31 477 l 1
 50 522 l 1
 96 542 l 1
 142 522 l 1
 152 499 l 1
 195 497 l 1
 229 702 l 2
 230 710 239 722 257 723 c 2
 276 724 l 1
 286 747 l 1
 332 766 l 1
 377 747 l 1
 397 701 l 1
 377 655 l 1
 354 645 l 1
 334 492 l 1
 373 490 l 1
 381 509 l 1
 427 528 l 1
 473 509 l 1
 492 463 l 1
 473 417 l 1
 427 398 l 1
 381 417 l 1
 371 440 l 1
 327 442 l 1
 301 248 l 1
 372 248 l 1
 380 268 l 1
 426 287 l 1
 472 268 l 1
 491 222 l 1
235 199 m 1
 207 200 l 1
 179 29 l 1
 186 26 l 1
 191 13 l 1
 210 16 l 1
 235 199 l 1
241 249 m 1
 267 445 l 1
 247 446 l 1
 215 250 l 1
 241 249 l 1
274 494 m 1
 295 651 l 1
 286 655 l 1
 283 662 l 1
 255 495 l 1
 274 494 l 1
EndSplineSet
EndChar

StartChar: dollar.1
Encoding: 65539 -1 134
Width: 442
VWidth: 0
Flags: W
VStem: 204 61<50 252> 209 59<200.4 252 315.148 318 390 667>
LayerCount: 2
Fore
SplineSet
310 771 m 1x40
 291 725 l 1
 278 720 l 1
 357 696 403 621 394 546 c 1
 413 500 l 1
 394 455 l 1
 348 435 l 1
 302 455 l 1
 283 500 l 1
 302 546 l 1
 335 560 l 1
 337 607 311 648 274 667 c 1
 269 336 l 1
 302 303 332 264 349 219 c 0
 384 123 349 6 242 -21 c 0
 198 -32 156 -25 124 -8 c 0
 56 27 22 104 44 176 c 1
 29 212 l 1
 48 258 l 1
 94 277 l 1
 140 258 l 1
 159 212 l 1
 140 166 l 1
 98 149 l 1
 91 102 116 55 156 34 c 0
 170 27 186 23 204 24 c 1x80
 209 318 l 1
 181 342 l 2
 134 382 75 429 56 502 c 0
 30 601 89 705 196 725 c 0
 197 725 198 725 199 725 c 2
 180 771 l 1
 199 817 l 1
 245 836 l 1
 291 817 l 1
 310 771 l 1x40
268 252 m 1x40
 265 50 l 1x80
 299 83 314 143 292 205 c 0
 286 222 278 237 268 252 c 1x40
210 390 m 1
 214 677 l 1
 212 677 211 676 209 676 c 0x40
 146 665 94 592 115 512 c 0
 128 463 167 427 210 390 c 1
EndSplineSet
EndChar

StartChar: percent.1
Encoding: 65540 -1 135
Width: 569
VWidth: 0
Flags: W
HStem: 316 48<106.391 176.595>
LayerCount: 2
Fore
SplineSet
226 -66 m 1
 207 -112 l 1
 161 -131 l 1
 115 -112 l 1
 96 -66 l 1
 115 -20 l 1
 150 -6 l 1
 379 686 l 1
 333 666 279 664 230 683 c 0
 220 687 210 691 201 697 c 1
 209 648 221 599 236 550 c 0
 261 467 273 338 167 316 c 0
 165 316 162 315 156 314 c 0
 81 306 42 364 32 424 c 0
 25 466 30 516 49 568 c 2
 112 736 l 1
 95 778 l 1
 114 824 l 1
 160 843 l 1
 206 824 l 1
 225 778 l 1
 215 753 l 1
 271 703 365 704 412 785 c 0
 413 787 415 789 416 791 c 0
 421 799 429 802 438 803 c 0
 442 803 445 803 449 802 c 0
 455 801 460 798 463 795 c 0
 471 789 475 778 469 767 c 2
 468 766 l 1
 332 354 l 1
 348 394 l 1
 394 413 l 1
 440 394 l 1
 459 348 l 1
 446 316 l 1
 449 311 l 1
 476 261 501 207 522 151 c 0
 561 45 539 -79 445 -103 c 0
 428 -107 409 -108 388 -102 c 0
 281 -72 310 54 338 137 c 0
 355 186 365 240 366 295 c 1
 348 302 l 1
 329 347 l 1
 207 -20 l 1
 226 -66 l 1
422 236 m 1
 417 196 408 159 396 124 c 0
 363 28 367 -43 407 -54 c 0
 416 -57 421 -56 427 -55 c 0
 461 -46 503 35 465 136 c 0
 452 171 437 204 422 236 c 1
147 660 m 1
 106 553 l 2
 89 508 86 464 91 430 c 0
 100 376 125 361 148 364 c 0
 150 364 152 365 153 365 c 0
 189 373 205 446 177 538 c 0
 164 580 155 620 147 660 c 1
EndSplineSet
EndChar

StartChar: ampersand.1
Encoding: 65541 -1 136
Width: 480
VWidth: 0
Flags: W
HStem: 476 20G<341 433>
LayerCount: 2
Fore
SplineSet
424 -20 m 1
 405 -66 l 1
 359 -85 l 1
 313 -66 l 1
 294 -20 l 1
 313 26 l 1
 314 27 l 1
 271 182 l 1
 151 -20 l 1
 143 -35 98 -42 95 -10 c 2
 62 349 l 2
 62 350 62 352 62 353 c 2
 29 712 l 1
 29 715 l 2
 29 725 41 741 63 739 c 2
 296 716 l 1
 302 731 l 1
 348 750 l 1
 394 731 l 1
 413 685 l 1
 394 639 l 1
 348 620 l 1
 337 624 l 1
 122 346 l 1
 146 84 l 1
 335 400 l 1
 322 431 l 1
 341 477 l 1
 387 496 l 1
 433 477 l 1
 452 431 l 1
 433 385 l 1
 387 366 l 1
 382 368 l 1
 313 253 l 1
 373 39 l 1
 405 26 l 1
 424 -20 l 1
115 428 m 1
 293 660 l 1
 291 665 l 1
 92 686 l 1
 115 428 l 1
EndSplineSet
EndChar

StartChar: quotesingle.1
Encoding: 65542 -1 137
Width: 215
VWidth: 0
Flags: W
LayerCount: 2
Fore
SplineSet
178 420 m 1
 159 374 l 1
 113 355 l 1
 67 374 l 1
 48 420 l 1
 67 466 l 1
 109 483 l 1
 123 528 127 578 117 626 c 0
 113 646 107 665 99 683 c 1
 95 681 l 1
 49 700 l 1
 30 746 l 1
 49 791 l 1
 95 811 l 1
 141 791 l 1
 160 746 l 1
 147 716 l 1
 161 690 171 662 177 634 c 0
 189 574 184 513 163 457 c 1
 178 420 l 1
EndSplineSet
EndChar

StartChar: parenleft.1
Encoding: 65543 -1 138
Width: 299
VWidth: 0
Flags: W
VStem: 29 60<202.868 486.843>
LayerCount: 2
Fore
SplineSet
271 -11 m 1
 252 -57 l 1
 206 -76 l 1
 160 -57 l 1
 141 -11 l 1
 150 10 l 1
 74 102 31 218 29 339 c 0
 27 459 67 577 144 673 c 1
 135 695 l 1
 154 741 l 1
 200 760 l 1
 246 741 l 1
 265 695 l 1
 246 649 l 1
 200 630 l 1
 186 636 l 1
 122 551 88 447 89 340 c 0
 90 232 127 130 191 48 c 1
 206 54 l 1
 252 35 l 1
 271 -11 l 1
EndSplineSet
EndChar

StartChar: parenright.1
Encoding: 65544 -1 139
Width: 308
VWidth: 0
Flags: W
VStem: 29 249
LayerCount: 2
Fore
SplineSet
163 -6 m 1
 144 -52 l 1
 98 -71 l 1
 52 -52 l 1
 33 -6 l 1
 52 40 l 1
 98 59 l 1
 115 52 l 1
 185 136 224 245 218 358 c 0
 213 455 175 547 112 620 c 1
 94 613 l 1
 48 632 l 1
 29 678 l 1
 48 724 l 1
 94 743 l 1
 140 724 l 1
 159 678 l 1
 152 660 l 1
 229 577 272 471 278 360 c 0
 285 231 239 107 155 13 c 1
 163 -6 l 1
EndSplineSet
EndChar

StartChar: asterisk.1
Encoding: 65545 -1 140
Width: 389
VWidth: 0
Flags: W
HStem: 629 48<292.477 355.618>
VStem: 49 60<201.48 267.912>
LayerCount: 2
Fore
SplineSet
179 665 m 1
 177 674 l 1
 176 665 l 1
 179 665 l 1
194 606 m 1
 192 616 l 1
 168 614 l 1
 162 577 l 1
 170 584 l 2
 180 593 186 598 194 606 c 1
174 503 m 1
 249 383 l 1
 209 545 l 1
 197 533 186 519 174 503 c 1
235 826 m 1
 216 780 l 1
 212 778 l 1
 239 670 l 1
 326 677 l 2
 331 677 348 676 356 663 c 0
 361 654 362 636 341 629 c 0
 314 619 286 606 260 588 c 1
 351 219 l 2
 352 214 353 201 338 193 c 0
 328 188 305 186 295 203 c 2
 143 445 l 1
 109 222 l 2
 106 203 85 199 73 201 c 0
 56 204 50 216 49 222 c 0
 38 311 49 393 86 468 c 1
 94 523 l 1
 33 619 l 2
 33 620 31 620 30 626 c 0
 28 636 35 653 57 655 c 2
 115 660 l 1
 132 777 l 1
 124 780 l 1
 105 826 l 1
 124 872 l 1
 170 891 l 1
 216 872 l 1
 235 826 l 1
EndSplineSet
EndChar

StartChar: plus.1
Encoding: 65546 -1 141
Width: 398
VWidth: 0
Flags: W
VStem: 161 60<140 313> 175 60<385 610>
LayerCount: 2
Fore
SplineSet
271 663 m 1x40
 252 617 l 1
 235 610 l 1x40
 228 385 l 1
 243 389 l 1
 258 426 l 1
 304 445 l 1
 350 426 l 1
 369 380 l 1
 350 334 l 1
 304 315 l 1
 258 334 l 1
 256 340 l 1
 227 331 l 1
 221 139 l 1
 236 133 l 1
 255 87 l 1
 236 41 l 1
 190 22 l 1
 144 41 l 1
 125 87 l 1
 144 133 l 1
 161 140 l 1x80
 166 313 l 1
 156 310 l 1
 140 272 l 1
 94 253 l 1
 48 272 l 1
 29 318 l 1
 48 364 l 1
 94 383 l 1
 140 364 l 1
 142 359 l 1
 168 367 l 1
 175 611 l 1
 160 617 l 1
 141 663 l 1
 160 709 l 1
 206 728 l 1
 252 709 l 1
 271 663 l 1x40
EndSplineSet
EndChar

StartChar: comma.1
Encoding: 65547 -1 142
Width: 221
VWidth: 0
Flags: W
VStem: 36 149
LayerCount: 2
Fore
SplineSet
166 -196 m 1
 147 -242 l 1
 101 -261 l 1
 55 -242 l 1
 36 -196 l 1
 55 -150 l 1
 82 -139 l 1
 100 -49 l 1
 74 -38 l 1
 55 8 l 1
 74 54 l 1
 120 73 l 1
 166 54 l 1
 185 8 l 1
 166 -38 l 1
 159 -41 l 1
 160 -46 l 2
 161 -49 160 -53 160 -54 c 2
 141 -148 l 1
 147 -150 l 1
 166 -196 l 1
EndSplineSet
EndChar

StartChar: hyphen.1
Encoding: 65548 -1 143
Width: 317
VWidth: 0
Flags: W
HStem: 214 220
VStem: 34 249
LayerCount: 2
Fore
SplineSet
283 369 m 1
 264 323 l 1
 218 304 l 1
 191 315 l 1
 159 291 l 1
 164 279 l 1
 145 233 l 1
 99 214 l 1
 53 233 l 1
 34 279 l 1
 53 325 l 1
 99 344 l 1
 126 333 l 1
 158 358 l 1
 153 369 l 1
 172 415 l 1
 218 434 l 1
 264 415 l 1
 283 369 l 1
EndSplineSet
EndChar

StartChar: period.1
Encoding: 65549 -1 144
Width: 202
VWidth: 0
Flags: W
HStem: -94 130
VStem: 36 130
LayerCount: 2
Fore
SplineSet
166 -29 m 1
 147 -75 l 1
 101 -94 l 1
 55 -75 l 1
 36 -29 l 1
 55 17 l 1
 101 36 l 1
 147 17 l 1
 166 -29 l 1
EndSplineSet
EndChar

StartChar: slash.1
Encoding: 65550 -1 145
Width: 301
VWidth: 0
Flags: W
VStem: 29 244
LayerCount: 2
Fore
SplineSet
273 736 m 1
 254 690 l 1
 230 680 l 1
 132 50 l 1
 140 47 l 1
 159 1 l 1
 140 -45 l 1
 94 -64 l 1
 48 -45 l 1
 29 1 l 1
 48 47 l 1
 72 57 l 1
 170 687 l 1
 162 690 l 1
 143 736 l 1
 162 782 l 1
 208 801 l 1
 254 782 l 1
 273 736 l 1
EndSplineSet
EndChar

StartChar: zero.1
Encoding: 65551 -1 146
Width: 393
VWidth: 0
Flags: W
LayerCount: 2
Fore
SplineSet
220 583 m 1
 194 524 168 467 141 412 c 0
 95 317 82 222 95 151 c 0
 111 64 157 27 213 34 c 0
 217 35 220 36 222 36 c 0
 307 54 324 197 276 351 c 0
 252 428 233 506 220 583 c 1
300 696 m 1
 281 650 l 1
 272 646 l 1
 286 548 305 459 334 364 c 0
 379 219 392 20 237 -13 c 0
 233 -14 229 -14 222 -15 c 0
 116 -29 53 49 36 143 c 0
 21 224 35 328 85 431 c 0
 120 504 155 578 187 655 c 1
 170 696 l 1
 189 742 l 1
 235 761 l 1
 281 742 l 1
 300 696 l 1
EndSplineSet
EndChar

StartChar: one.1
Encoding: 65552 -1 147
Width: 286
VWidth: 0
Flags: W
VStem: 148 56<457 509 556 589 744 759.76> 162 60<17 281.462>
LayerCount: 2
Fore
SplineSet
258 -36 m 1x40
 239 -82 l 1
 193 -101 l 1
 147 -82 l 1
 128 -36 l 1
 147 10 l 1
 162 16 l 1x40
 149 509 l 1
 139 485 l 1
 93 466 l 1
 47 485 l 1
 28 531 l 1
 47 577 l 1
 85 593 l 1
 145 744 l 2
 152 762 174 764 185 760 c 0
 200 755 204 742 204 737 c 2x80
 222 17 l 1
 239 10 l 1
 258 -36 l 1x40
141 573 m 1
 148 556 l 1x80
 147 589 l 1
 141 573 l 1
EndSplineSet
EndChar

StartChar: two.1
Encoding: 65553 -1 148
Width: 361
VWidth: 0
Flags: W
VStem: 31 302
LayerCount: 2
Fore
SplineSet
333 -10 m 1
 314 -56 l 1
 268 -75 l 1
 222 -56 l 1
 218 -46 l 1
 66 -78 l 2
 65 -78 58 -81 48 -78 c 0
 37 -75 22 -61 31 -44 c 0
 115 110 185 272 239 442 c 0
 275 555 236 649 193 658 c 0
 188 659 183 659 174 658 c 0
 138 652 113 615 122 574 c 0
 123 568 125 563 128 558 c 1
 154 569 l 1
 200 550 l 1
 219 504 l 1
 200 458 l 1
 154 439 l 1
 108 458 l 1
 89 504 l 1
 92 512 l 1
 77 528 68 547 64 565 c 0
 51 623 82 694 162 707 c 0
 179 710 195 709 208 706 c 0
 315 683 333 542 297 429 c 0
 247 274 185 124 111 -17 c 1
 209 4 l 1
 222 36 l 1
 268 55 l 1
 314 36 l 1
 333 -10 l 1
EndSplineSet
EndChar

StartChar: three.1
Encoding: 65554 -1 149
Width: 317
VWidth: 0
Flags: W
HStem: -33 50<116.354 199.771> 687 50<111.127 197.142>
VStem: 225 60<44.325 214.72 489.125 658.982>
LayerCount: 2
Fore
SplineSet
159 128 m 1
 140 82 l 1
 105 68 l 1
 108 41 127 17 156 17 c 0
 187 16 222 47 225 112 c 0
 226 129 225 147 220 167 c 0
 203 237 159 299 98 339 c 1
 86 345 79 369 100 380 c 0
 158 412 205 469 222 539 c 0
 241 616 204 680 166 686 c 0
 163 686 161 687 156 687 c 0
 104 686 80 626 99 584 c 1
 122 593 l 1
 168 574 l 1
 187 528 l 1
 168 482 l 1
 122 463 l 1
 76 482 l 1
 57 528 l 1
 61 538 l 1
 42 559 33 585 32 609 c 0
 29 668 71 734 153 737 c 1
 269 737 303 619 280 529 c 0
 262 458 220 399 164 358 c 1
 223 310 261 246 278 177 c 0
 284 153 286 131 285 110 c 0
 281 38 239 -36 153 -33 c 0
 83 -30 37 30 45 89 c 1
 29 128 l 1
 48 174 l 1
 94 193 l 1
 140 174 l 1
 159 128 l 1
EndSplineSet
EndChar

StartChar: four.1
Encoding: 65555 -1 150
Width: 326
VWidth: 0
Flags: W
VStem: 29 269
LayerCount: 2
Fore
SplineSet
298 -10 m 1
 279 -56 l 1
 233 -75 l 1
 187 -56 l 1
 168 -10 l 1
 187 35 l 1
 200 41 l 1
 194 155 l 1
 161 169 l 1
 148 199 l 1
 52 216 l 2
 30 220 26 238 29 247 c 2
 169 663 l 2
 175 681 197 682 208 679 c 0
 223 674 228 663 228 657 c 2
 249 263 l 1
 253 261 l 1
 272 215 l 1
 254 170 l 1
 260 43 l 1
 279 35 l 1
 298 -10 l 1
188 272 m 1
 176 498 l 1
 95 259 l 1
 156 249 l 1
 161 261 l 1
 188 272 l 1
EndSplineSet
EndChar

StartChar: five.1
Encoding: 65556 -1 151
Width: 324
VWidth: 0
Flags: W
HStem: -47 50<110.471 203.026> 767 20G<178 270>
VStem: 235 60<38.2997 225.212>
LayerCount: 2
Fore
SplineSet
159 148 m 1
 140 102 l 1
 94 83 l 1
 92 84 l 1
 88 44 115 3 156 3 c 1
 196 2 233 41 235 118 c 0
 236 149 231 185 216 221 c 0
 180 311 123 392 49 458 c 0
 45 461 40 468 41 477 c 2
 62 694 l 2
 63 700 69 714 84 717 c 2
 164 735 l 1
 178 768 l 1
 224 787 l 1
 270 768 l 1
 289 722 l 1
 270 676 l 1
 224 657 l 1
 178 676 l 1
 174 685 l 1
 120 673 l 1
 102 484 l 1
 178 413 236 329 273 237 c 0
 290 195 296 154 295 117 c 0
 293 34 250 -49 155 -47 c 0
 122 -46 95 -34 76 -19 c 0
 33 16 17 74 39 123 c 1
 29 148 l 1
 48 194 l 1
 94 213 l 1
 140 194 l 1
 159 148 l 1
EndSplineSet
EndChar

StartChar: six.1
Encoding: 65557 -1 152
Width: 312
VWidth: 0
Flags: W
LayerCount: 2
Fore
SplineSet
173 213 m 1
 154 167 l 1
 108 148 l 1
 90 155 l 1
 87 121 91 90 98 65 c 0
 115 8 145 -8 174 -2 c 0
 226 9 235 97 199 203 c 0
 189 232 181 262 175 288 c 1
 158 250 l 1
 173 213 l 1
283 698 m 1
 264 652 l 1
 226 636 l 1
 190 534 158 432 130 329 c 1
 159 393 l 2
 161 397 167 407 181 409 c 0
 193 411 214 406 217 387 c 0
 225 330 238 274 257 217 c 0
 288 123 313 -24 189 -50 c 0
 110 -66 59 -11 40 53 c 0
 26 99 24 156 39 216 c 2
 53 271 l 2
 86 400 124 529 170 656 c 1
 153 698 l 1
 172 744 l 1
 218 763 l 1
 264 744 l 1
 283 698 l 1
EndSplineSet
EndChar

StartChar: seven.1
Encoding: 65558 -1 153
Width: 327
VWidth: 0
Flags: W
VStem: 97 60<27 243.651>
LayerCount: 2
Fore
SplineSet
191 -26 m 1
 172 -72 l 1
 126 -91 l 1
 80 -72 l 1
 61 -26 l 1
 80 20 l 1
 97 27 l 1
 103 263 145 498 226 724 c 1
 151 714 l 1
 139 686 l 1
 93 667 l 1
 47 686 l 1
 28 732 l 1
 47 778 l 1
 93 797 l 1
 139 778 l 1
 145 764 l 1
 264 780 l 2
 286 783 298 767 299 757 c 0
 300 750 297 748 297 747 c 0
 209 515 163 271 157 26 c 1
 172 20 l 1
 191 -26 l 1
EndSplineSet
EndChar

StartChar: eight.1
Encoding: 65559 -1 154
Width: 324
VWidth: 0
Flags: W
HStem: 756 20G<105 197>
LayerCount: 2
Fore
SplineSet
150 469 m 1
 185 504 213 532 221 568 c 0
 229 606 215 641 192 663 c 1
 151 646 l 1
 119 659 l 1
 110 640 105 612 112 578 c 0
 120 540 134 503 150 469 c 1
141 366 m 1
 120 327 107 280 96 231 c 0
 73 125 110 40 156 33 c 0
 159 33 163 32 168 32 c 0
 204 34 241 81 234 155 c 1
 220 237 185 291 141 366 c 1
215 714 m 1
 267 682 294 620 280 559 c 0
 266 496 212 457 177 418 c 1
 178 416 l 1
 224 337 281 261 294 159 c 1
 301 74 259 -33 145 -17 c 0
 33 -1 14 137 37 240 c 0
 51 303 70 370 109 422 c 1
 85 467 64 515 53 569 c 0
 43 616 47 682 87 715 c 1
 105 757 l 1
 151 776 l 1
 197 757 l 1
 215 714 l 1
EndSplineSet
EndChar

StartChar: nine.1
Encoding: 65560 -1 155
Width: 329
VWidth: 0
Flags: W
LayerCount: 2
Fore
SplineSet
263 319 m 1
 244 273 l 1
 198 254 l 1
 191 257 l 1
 171 188 158 117 152 44 c 1
 165 39 l 1
 184 -7 l 1
 165 -53 l 1
 119 -72 l 1
 74 -53 l 1
 54 -7 l 1
 74 39 l 1
 92 46 l 1
 99 133 116 217 142 298 c 1
 133 319 l 1
 136 326 l 1
 80 368 42 431 32 503 c 0
 19 599 72 698 166 706 c 0
 185 708 205 706 226 697 c 0
 337 651 299 515 254 421 c 0
 246 405 238 388 231 370 c 1
 244 365 l 1
 263 319 l 1
167 371 m 1
 169 372 l 1
 179 396 188 419 198 439 c 0
 247 541 252 630 199 652 c 0
 188 656 180 657 172 656 c 0
 132 652 81 593 92 508 c 0
 100 452 128 404 167 371 c 1
EndSplineSet
EndChar

StartChar: colon.1
Encoding: 65561 -1 156
Width: 206
VWidth: 0
Flags: W
VStem: 34 138
LayerCount: 2
Fore
SplineSet
164 296 m 1
 145 250 l 1
 99 231 l 1
 53 250 l 1
 34 296 l 1
 53 342 l 1
 99 361 l 1
 145 342 l 1
 164 296 l 1
172 -22 m 1
 153 -68 l 1
 107 -87 l 1
 61 -68 l 1
 42 -22 l 1
 61 24 l 1
 107 43 l 1
 153 24 l 1
 172 -22 l 1
EndSplineSet
EndChar

StartChar: semicolon.1
Encoding: 65562 -1 157
Width: 230
VWidth: 0
Flags: W
VStem: 34 161
LayerCount: 2
Fore
SplineSet
164 285 m 1
 145 239 l 1
 99 220 l 1
 53 239 l 1
 34 285 l 1
 53 331 l 1
 99 350 l 1
 145 331 l 1
 164 285 l 1
174 -238 m 1
 155 -284 l 1
 109 -303 l 1
 63 -284 l 1
 44 -238 l 1
 63 -193 l 1
 101 -176 l 1
 133 -94 l 1
 119 -78 l 1
 105 -84 l 1
 59 -65 l 1
 40 -19 l 1
 59 27 l 1
 105 46 l 1
 151 27 l 1
 170 -19 l 1
 161 -41 l 1
 191 -75 l 2
 198 -83 197 -93 195 -98 c 2
 156 -196 l 1
 174 -238 l 1
EndSplineSet
EndChar

StartChar: less.1
Encoding: 65563 -1 158
Width: 343
VWidth: 0
Flags: W
LayerCount: 2
Fore
SplineSet
296 102 m 1
 277 56 l 1
 231 37 l 1
 185 56 l 1
 166 102 l 1
 177 128 l 1
 33 321 l 2
 29 326 26 336 33 346 c 2
 195 590 l 1
 183 619 l 1
 202 665 l 1
 248 684 l 1
 294 665 l 1
 313 619 l 1
 294 573 l 1
 248 554 l 1
 241 557 l 1
 94 335 l 1
 221 163 l 1
 231 167 l 1
 277 148 l 1
 296 102 l 1
EndSplineSet
EndChar

StartChar: equal.1
Encoding: 65564 -1 159
Width: 380
VWidth: 0
Flags: W
HStem: 504 20G<239 331>
VStem: 30 320
LayerCount: 2
Fore
SplineSet
332 233 m 1
 313 187 l 1
 267 168 l 1
 221 187 l 1
 209 215 l 1
 154 223 l 1
 149 210 l 1
 103 191 l 1
 57 210 l 1
 38 256 l 1
 57 302 l 1
 103 321 l 1
 149 302 l 1
 161 273 l 1
 215 266 l 1
 221 279 l 1
 267 298 l 1
 313 279 l 1
 332 233 l 1
350 459 m 1
 331 414 l 1
 285 394 l 1
 239 414 l 1
 229 439 l 1
 148 444 l 1
 141 427 l 1
 95 408 l 1
 49 427 l 1
 30 473 l 1
 49 519 l 1
 95 538 l 1
 141 519 l 1
 151 494 l 1
 232 488 l 1
 239 505 l 1
 285 524 l 1
 331 505 l 1
 350 459 l 1
EndSplineSet
EndChar

StartChar: greater.1
Encoding: 65565 -1 160
Width: 349
VWidth: 0
Flags: W
VStem: 29 288
LayerCount: 2
Fore
SplineSet
159 77 m 1
 140 31 l 1
 94 12 l 1
 48 31 l 1
 29 77 l 1
 48 123 l 1
 94 142 l 1
 105 138 l 1
 255 338 l 1
 112 565 l 1
 106 562 l 1
 60 581 l 1
 41 627 l 1
 60 673 l 1
 106 692 l 1
 152 673 l 1
 171 627 l 1
 159 598 l 1
 317 349 l 2
 323 339 319 329 315 324 c 2
 148 103 l 1
 159 77 l 1
EndSplineSet
EndChar

StartChar: question.1
Encoding: 65566 -1 161
Width: 267
VWidth: 0
Flags: W
HStem: 512 21G<52 144>
VStem: 29 209
LayerCount: 2
Fore
SplineSet
238 -6 m 1
 219 -52 l 1
 173 -71 l 1
 127 -52 l 1
 108 -6 l 1
 127 40 l 1
 173 59 l 1
 219 40 l 1
 238 -6 l 1
159 234 m 1
 140 188 l 1
 94 169 l 1
 48 188 l 1
 29 234 l 1
 48 280 l 1
 70 289 l 1
 90 386 155 468 170 555 c 0
 180 611 153 647 138 649 c 1
 132 649 l 2
 125 648 118 643 114 635 c 1
 144 623 l 1
 163 577 l 1
 144 531 l 1
 98 512 l 1
 52 531 l 1
 33 577 l 1
 49 616 l 1
 47 654 73 693 123 699 c 1
 218 708 241 611 230 548 c 0
 212 446 150 367 130 284 c 1
 140 280 l 1
 159 234 l 1
EndSplineSet
EndChar

StartChar: at.1
Encoding: 65567 -1 162
Width: 563
VWidth: 0
Flags: W
LayerCount: 2
Fore
SplineSet
147 311 m 1
 185 491 l 2
 189 509 211 512 222 510 c 0
 236 507 241 498 243 494 c 2
 358 204 l 1
 397 188 l 1
 416 142 l 1
 399 101 l 1
 430 24 l 1
 468 41 484 131 468 229 c 0
 456 308 441 386 422 455 c 0
 379 608 317 690 214 670 c 0
 206 669 200 667 195 665 c 0
 97 632 56 485 121 355 c 0
 129 338 138 324 147 311 c 1
196 254 m 1
 227 223 266 201 303 185 c 1
 223 384 l 1
 196 254 l 1
168 -38 m 1
 149 -84 l 1
 103 -103 l 1
 57 -84 l 1
 38 -38 l 1
 57 8 l 1
 84 19 l 1
 132 240 l 1
 120 253 l 2
 99 277 81 304 65 336 c 0
 -5 477 25 661 172 711 c 0
 180 714 189 717 200 719 c 0
 364 751 440 613 481 467 c 0
 501 395 515 314 528 235 c 0
 544 135 546 -16 424 -29 c 0
 421 -29 416 -30 409 -30 c 0
 400 -30 386 -26 381 -13 c 2
 344 80 l 1
 305 96 l 1
 289 134 l 1
 251 148 216 169 183 194 c 1
 143 10 l 1
 149 8 l 1
 168 -38 l 1
EndSplineSet
EndChar

StartChar: A.1
Encoding: 65568 -1 163
Width: 351
VWidth: 0
Flags: W
VStem: 166 60<719.368 794.291>
LayerCount: 2
Fore
SplineSet
320 238 m 1
 301 192 l 1
 259 175 l 1
 262 115 l 1
 281 107 l 1
 300 61 l 1
 281 15 l 1
 235 -4 l 1
 190 15 l 1
 170 61 l 1
 190 107 l 1
 203 112 l 1
 198 193 l 1
 157 180 l 1
 145 153 l 1
 133 58 l 1
 142 54 l 1
 162 8 l 1
 142 -38 l 1
 97 -57 l 1
 51 -38 l 1
 32 8 l 1
 51 54 l 1
 74 63 l 1
 82 128 l 1
 49 142 l 1
 30 188 l 1
 49 233 l 1
 95 253 l 1
 98 252 l 1
 166 773 l 2
 168 792 189 797 201 795 c 0
 220 792 226 776 226 771 c 2
 252 302 l 1
 255 303 l 1
 301 284 l 1
 320 238 l 1
193 245 m 1
 195 251 l 1
 184 447 l 1
 156 233 l 1
 193 245 l 1
EndSplineSet
EndChar

StartChar: B.1
Encoding: 65569 -1 164
Width: 401
VWidth: 0
Flags: W
VStem: 67 60<50 211.955>
LayerCount: 2
Fore
SplineSet
198 415 m 1
 319 370 390 238 347 110 c 1
 318 27 238 -31 147 -34 c 1
 141 -50 l 1
 95 -69 l 1
 49 -50 l 1
 30 -4 l 1
 49 42 l 1
 67 50 l 1
 89 559 l 1
 75 565 l 1
 56 611 l 1
 75 657 l 1
 121 676 l 1
 167 657 l 1
 183 617 l 1
 352 562 l 2
 353 562 357 562 363 556 c 0
 371 549 377 531 359 519 c 2
 198 415 l 1
141 378 m 1
 127 48 l 1
 141 42 l 1
 152 16 l 1
 212 21 267 60 289 124 c 0
 293 135 297 148 298 163 c 0
 308 268 236 359 141 378 c 1
144 443 m 1
 281 532 l 1
 169 569 l 1
 167 565 l 1
 149 557 l 1
 144 443 l 1
EndSplineSet
EndChar

StartChar: C.1
Encoding: 65570 -1 165
Width: 421
VWidth: 0
Flags: W
HStem: 482 21G<258 350>
VStem: 32 60<184.431 633.246>
LayerCount: 2
Fore
SplineSet
390 140 m 1
 371 94 l 1
 359 89 l 1
 352 37 314 -10 252 -24 c 0
 147 -47 89 20 62 103 c 0
 35 187 30 299 32 409 c 0
 34 535 13 731 174 758 c 0
 263 773 333 714 349 645 c 0
 353 628 354 609 351 590 c 1
 369 547 l 1
 350 501 l 1
 304 482 l 1
 258 501 l 1
 239 547 l 1
 258 593 l 1
 293 607 l 1
 294 617 292 627 290 636 c 0
 278 687 232 717 186 709 c 0
 93 694 94 558 92 409 c 0
 90 301 96 191 120 116 c 0
 145 38 180 11 237 24 c 0
 267 31 291 55 298 86 c 1
 279 94 l 1
 260 140 l 1
 279 186 l 1
 325 205 l 1
 371 186 l 1
 390 140 l 1
EndSplineSet
EndChar

StartChar: D.1
Encoding: 65571 -1 166
Width: 407
VWidth: 0
Flags: W
VStem: 66 60<-11 530.9> 76 60<223 769> 315 60<301.058 590.093>
LayerCount: 2
Fore
SplineSet
160 -80 m 1x60
 141 -126 l 1
 95 -145 l 1
 49 -126 l 1
 30 -80 l 1
 49 -34 l 1
 66 -27 l 1xa0
 76 770 l 1
 61 776 l 1
 42 822 l 1
 61 868 l 1
 107 887 l 1
 153 868 l 1
 172 822 l 1
 171 819 l 1
 298 746 377 611 375 463 c 0
 372 266 294 78 153 -63 c 1
 160 -80 l 1x60
126 -11 m 1
 244 118 312 287 315 463 c 0
 317 593 249 710 146 773 c 1
 136 769 l 1x60
 126 -11 l 1
EndSplineSet
EndChar

StartChar: E.1
Encoding: 65572 -1 167
Width: 401
VWidth: 0
Flags: W
HStem: 467 20G<238 330>
VStem: 51 60<44 435 551 684>
LayerCount: 2
Fore
SplineSet
349 422 m 1
 330 376 l 1
 284 357 l 1
 238 376 l 1
 221 418 l 1
 141 448 l 1
 141 447 l 1
 111 435 l 1
 111 44 l 1
 253 28 l 1
 259 43 l 1
 305 62 l 1
 351 43 l 1
 370 -3 l 1
 351 -49 l 1
 305 -68 l 1
 259 -49 l 1
 248 -22 l 1
 77 -3 l 2
 58 -1 51 14 51 22 c 2
 51 446 l 1
 49 447 l 1
 30 493 l 1
 49 539 l 1
 51 540 l 1
 51 716 l 2
 51 735 72 742 84 741 c 0
 86 741 88 740 89 740 c 2
 244 709 l 1
 248 718 l 1
 294 737 l 1
 340 718 l 1
 359 672 l 1
 340 626 l 1
 294 607 l 1
 248 626 l 1
 234 659 l 1
 111 684 l 1
 111 551 l 1
 141 539 l 1
 159 496 l 1
 237 467 l 1
 238 468 l 1
 284 487 l 1
 330 468 l 1
 349 422 l 1
EndSplineSet
EndChar

StartChar: F.1
Encoding: 65573 -1 168
Width: 435
VWidth: 0
Flags: W
HStem: 478 20G<251 343> 764 20G<293 384>
VStem: 67 60<31 207.867> 82 56<233.133 324> 85 60<514 661> 92 59<514 661>
LayerCount: 2
Fore
SplineSet
362 433 m 1xc8
 343 387 l 1
 318 377 l 1
 301 339 265 309 215 306 c 0
 208 305 198 305 187 307 c 0
 169 310 152 315 138 324 c 1xd0
 127 30 l 1
 141 24 l 1
 160 -22 l 1
 141 -68 l 1
 95 -87 l 1
 49 -68 l 1
 30 -22 l 1
 49 24 l 1
 67 31 l 1xe0
 82 410 l 1xd0
 77 412 l 1
 58 458 l 1
 77 504 l 1
 85 507 l 1xc8
 92 682 l 2
 93 696 107 703 116 705 c 2
 279 734 l 1
 293 765 l 1
 338 784 l 1
 384 765 l 1
 404 719 l 1
 384 673 l 1
 338 654 l 1
 293 673 l 1
 288 684 l 1
 151 661 l 1xc4
 145 514 l 1
 169 504 l 1
 188 458 l 1
 169 412 l 1
 147 403 l 1
 154 377 175 359 197 356 c 0
 202 355 207 356 210 356 c 0
 228 357 246 368 257 385 c 1
 251 387 l 1
 232 433 l 1
 251 479 l 1
 297 498 l 1
 343 479 l 1
 362 433 l 1xc8
EndSplineSet
EndChar

StartChar: G.1
Encoding: 65574 -1 169
Width: 416
VWidth: 0
Flags: W
HStem: 263 49<243 275> 476 21G<257 349>
LayerCount: 2
Fore
SplineSet
385 0 m 1
 366 -46 l 1
 320 -65 l 1
 274 -46 l 1
 262 -16 l 1
 245 -13 l 2
 85 15 60 194 39 330 c 0
 10 514 61 711 200 726 c 0
 224 729 250 725 276 714 c 0
 332 689 360 634 351 581 c 1
 368 541 l 1
 349 495 l 1
 303 476 l 1
 257 495 l 1
 238 541 l 1
 257 587 l 1
 292 601 l 1
 291 643 254 681 207 677 c 0
 139 670 68 526 98 337 c 0
 121 188 154 53 257 36 c 2
 269 34 l 1
 274 46 l 1
 287 51 l 1
 275 263 l 1
 242 264 l 1
 234 245 l 1
 188 226 l 1
 142 245 l 1
 123 291 l 1
 142 337 l 1
 188 356 l 1
 234 337 l 1
 243 314 l 1
 305 312 l 2
 324 311 333 298 334 288 c 2
 347 54 l 1
 366 46 l 1
 385 0 l 1
EndSplineSet
EndChar

StartChar: H.1
Encoding: 65575 -1 170
Width: 471
VWidth: 0
Flags: W
HStem: 764 20G<298 390>
VStem: 343 60<52 234.75>
LayerCount: 2
Fore
SplineSet
409 719 m 1
 390 673 l 1
 377 668 l 1
 388 465 395 259 403 52 c 1
 421 45 l 1
 440 -1 l 1
 421 -47 l 1
 375 -66 l 1
 329 -47 l 1
 310 -1 l 1
 329 45 l 1
 343 51 l 1
 339 156 335 261 331 366 c 1
 170 390 l 1
 165 378 l 1
 146 370 l 1
 168 49 l 1
 187 41 l 1
 206 -5 l 1
 187 -51 l 1
 141 -70 l 1
 95 -51 l 1
 76 -5 l 1
 95 41 l 1
 108 46 l 1
 86 373 l 1
 73 378 l 1
 54 424 l 1
 73 470 l 1
 80 473 l 1
 68 642 l 1
 49 650 l 1
 30 696 l 1
 49 742 l 1
 95 761 l 1
 141 742 l 1
 160 696 l 1
 141 650 l 1
 128 645 l 1
 139 481 l 1
 165 470 l 1
 177 440 l 1
 329 417 l 1
 325 500 321 583 317 665 c 1
 298 673 l 1
 279 719 l 1
 298 765 l 1
 344 784 l 1
 390 765 l 1
 409 719 l 1
EndSplineSet
EndChar

StartChar: I.1
Encoding: 65576 -1 171
Width: 222
VWidth: 0
Flags: W
HStem: 745 20G<80 172>
VStem: 96 60<13.5156 647>
LayerCount: 2
Fore
SplineSet
191 700 m 1
 172 654 l 1
 158 648 l 1
 159 588 158 528 156 466 c 0
 153 391 159 313 156 232 c 0
 153 156 146 80 134 3 c 1
 141 0 l 1
 160 -46 l 1
 141 -92 l 1
 95 -111 l 1
 49 -92 l 1
 30 -46 l 1
 49 0 l 1
 74 10 l 1
 86 85 93 160 96 234 c 0
 99 311 93 390 96 468 c 0
 98 529 99 588 98 647 c 1
 80 654 l 1
 61 700 l 1
 80 746 l 1
 126 765 l 1
 172 746 l 1
 191 700 l 1
EndSplineSet
EndChar

StartChar: J.1
Encoding: 65577 -1 172
Width: 381
VWidth: 0
Flags: W
HStem: 760 20G<239 331>
VStem: 256 60<346 662> 269 61<59 346>
LayerCount: 2
Fore
SplineSet
350 715 m 1xc0
 331 669 l 1
 316 663 l 1xc0
 330 29 l 2
 330 10 310 3 298 4 c 0
 297 4 296 4 295 4 c 2
 147 26 l 1
 141 12 l 1
 95 -7 l 1
 49 12 l 1
 30 58 l 1
 49 104 l 1
 95 123 l 1
 141 104 l 1
 153 76 l 1
 269 59 l 1xa0
 256 662 l 1
 239 669 l 1
 220 715 l 1
 239 761 l 1
 285 780 l 1
 331 761 l 1
 350 715 l 1xc0
EndSplineSet
EndChar

StartChar: K.1
Encoding: 65578 -1 173
Width: 502
VWidth: 0
Flags: W
HStem: 768 20G<360 452>
VStem: 66 62<-7 213 326 642> 73 57<-7 213 326 642>
LayerCount: 2
Fore
SplineSet
448 -64 m 1xa0
 429 -110 l 1
 383 -129 l 1
 337 -110 l 1
 318 -64 l 1
 323 -51 l 1
 292 -21 270 17 257 60 c 0
 237 128 222 198 214 269 c 1
 195 223 l 1
 149 204 l 1
 128 213 l 1
 126 -8 l 1
 141 -14 l 1
 160 -60 l 1
 141 -106 l 1
 95 -125 l 1
 49 -106 l 1
 30 -60 l 1
 49 -14 l 1
 66 -7 l 1xc0
 73 643 l 1
 58 649 l 1
 39 695 l 1
 58 741 l 1
 104 760 l 1
 150 741 l 1
 169 695 l 1
 150 649 l 1
 133 642 l 1
 130 326 l 1
 149 334 l 1
 152 333 l 1
 354 691 l 1
 341 723 l 1
 360 769 l 1
 406 788 l 1
 452 769 l 1
 471 723 l 1
 452 677 l 1
 406 658 l 1
 403 659 l 1
 265 416 l 1
 265 298 282 182 315 72 c 0
 324 41 340 14 360 -9 c 1
 383 1 l 1
 429 -18 l 1
 448 -64 l 1xa0
209 317 m 1
 201 302 l 1
 214 270 l 1
 212 286 210 301 209 317 c 1
EndSplineSet
EndChar

StartChar: L.1
Encoding: 65579 -1 174
Width: 369
VWidth: 0
Flags: W
VStem: 30 308
LayerCount: 2
Fore
SplineSet
338 35 m 1
 319 -11 l 1
 273 -30 l 1
 227 -11 l 1
 224 -3 l 1
 68 -40 l 1
 68 -40 68 -41 60 -41 c 0
 48 -41 28 -33 30 -14 c 2
 93 598 l 1
 83 602 l 1
 64 648 l 1
 83 694 l 1
 129 713 l 1
 175 694 l 1
 194 648 l 1
 175 602 l 1
 154 593 l 1
 94 18 l 1
 213 47 l 1
 227 81 l 1
 273 100 l 1
 319 81 l 1
 338 35 l 1
EndSplineSet
EndChar

StartChar: M.1
Encoding: 65580 -1 175
Width: 518
VWidth: 0
Flags: W
VStem: 66 60<113 384> 75 56<231.889 384 620.111 671.049>
LayerCount: 2
Fore
SplineSet
459 19 m 1x40
 440 -27 l 1
 394 -46 l 1
 349 -27 l 1
 329 19 l 1
 349 65 l 1
 370 74 l 1
 401 381 l 1
 269 2 l 2
 268 -1 263 -12 248 -15 c 0
 237 -17 215 -13 211 5 c 2
 131 384 l 1x40
 126 112 l 1
 141 106 l 1
 160 60 l 1
 141 14 l 1
 95 -5 l 1
 49 14 l 1
 30 60 l 1
 49 106 l 1
 66 113 l 1x80
 75 648 l 2
 75 667 96 673 108 672 c 0
 126 671 134 658 135 652 c 2
 248 119 l 1
 428 637 l 2
 434 655 456 656 467 653 c 0
 484 648 488 634 487 628 c 2
 429 69 l 1
 440 65 l 1
 459 19 l 1x40
EndSplineSet
EndChar

StartChar: N.1
Encoding: 65581 -1 176
Width: 410
VWidth: 0
Flags: W
VStem: 67 60<148 293>
LayerCount: 2
Fore
SplineSet
376 667 m 1
 357 621 l 1
 344 616 l 1
 379 -14 l 2
 379 -19 377 -33 359 -38 c 0
 348 -41 326 -39 320 -21 c 2
 145 524 l 1
 127 146 l 1
 141 140 l 1
 160 94 l 1
 141 48 l 1
 95 29 l 1
 49 48 l 1
 30 94 l 1
 49 140 l 1
 67 148 l 1
 93 691 l 2
 94 710 114 716 126 715 c 0
 143 713 151 701 152 697 c 2
 306 215 l 1
 284 613 l 1
 265 621 l 1
 246 667 l 1
 265 713 l 1
 311 732 l 1
 357 713 l 1
 376 667 l 1
EndSplineSet
EndChar

StartChar: O.1
Encoding: 65582 -1 177
Width: 439
VWidth: 0
Flags: W
HStem: -64 50<163.785 285.488>
VStem: 34 60<163.568 604.638>
LayerCount: 2
Fore
SplineSet
301 827 m 1
 282 781 l 1
 268 775 l 1
 276 665 302 557 344 453 c 0
 428 247 447 -9 276 -57 c 0
 259 -62 241 -64 219 -64 c 0
 10 -60 31 202 34 385 c 0
 37 554 20 798 178 844 c 1
 190 872 l 1
 236 892 l 1
 282 872 l 1
 301 827 l 1
186 791 m 1
 100 747 97 568 94 385 c 0
 91 174 93 -11 221 -14 c 0
 236 -14 247 -13 257 -10 c 0
 358 19 375 222 287 437 c 0
 243 545 217 659 209 773 c 1
 190 781 l 1
 186 791 l 1
EndSplineSet
EndChar

StartChar: P.1
Encoding: 65583 -1 178
Width: 456
VWidth: 0
Flags: W
LayerCount: 2
Fore
SplineSet
132 345 m 1
 354 608 l 1
 95 772 l 1
 132 345 l 1
181 283 m 1
 162 237 l 1
 141 228 l 1
 150 131 l 1
 171 122 l 1
 190 76 l 1
 171 30 l 1
 125 11 l 1
 79 30 l 1
 60 76 l 1
 79 122 l 1
 91 127 l 1
 81 232 l 1
 70 237 l 1
 51 283 l 1
 70 329 l 1
 73 330 l 1
 30 824 l 2
 28 843 48 851 60 851 c 0
 71 851 78 846 78 846 c 1
 413 634 l 2
 429 624 426 607 419 599 c 2
 172 306 l 1
 181 283 l 1
EndSplineSet
EndChar

StartChar: Q.1
Encoding: 65584 -1 179
Width: 454
VWidth: 0
Flags: W
HStem: -39 51<259 294.829>
VStem: 33 60<98.0796 364.125>
LayerCount: 2
Fore
SplineSet
422 -125 m 1
 403 -171 l 1
 357 -190 l 1
 311 -171 l 1
 305 -157 l 1
 256 -164 l 2
 246 -165 226 -161 222 -144 c 2
 199 -39 l 1
 96 -23 43 78 33 185 c 0
 29 232 32 284 45 337 c 0
 74 453 123 566 204 660 c 1
 195 681 l 1
 214 727 l 1
 260 746 l 1
 306 727 l 1
 325 681 l 1
 307 636 l 1
 391 376 l 1
 443 206 431 -9 259 -39 c 1
 275 -111 l 1
 299 -108 l 1
 311 -79 l 1
 357 -60 l 1
 403 -79 l 1
 422 -125 l 1
256 137 m 1
 237 91 l 1
 232 89 l 1
 249 11 l 1
 251 11 252 12 254 12 c 0
 351 33 386 193 333 363 c 1
 250 620 l 1
 245 622 l 1
 176 538 131 433 104 327 c 0
 92 278 89 231 93 189 c 0
 101 99 138 40 187 18 c 1
 173 79 l 1
 145 91 l 1
 126 137 l 1
 145 183 l 1
 191 202 l 1
 237 183 l 1
 256 137 l 1
EndSplineSet
EndChar

StartChar: R.1
Encoding: 65585 -1 180
Width: 514
VWidth: 0
Flags: W
HStem: 610 50<154 260.016>
VStem: 66 60<354 572> 77 60<31 315 365 493.364> 400 60<288.113 469.979>
LayerCount: 2
Fore
SplineSet
130 354 m 1xd0
 261 227 l 1
 267 227 l 1
 331 230 400 273 400 370 c 0
 400 508 289 610 167 610 c 0
 163 610 159 610 154 610 c 1
 141 579 l 1
 126 573 l 1
 130 354 l 1xd0
483 36 m 1
 464 -10 l 1
 418 -29 l 1
 372 -10 l 1
 353 36 l 1
 360 54 l 1
 232 179 l 1
 195 184 160 198 133 220 c 1
 137 31 l 1
 154 24 l 1
 173 -22 l 1
 154 -68 l 1
 108 -87 l 1
 62 -68 l 1
 43 -22 l 1
 62 24 l 1
 77 30 l 1xb0
 71 315 l 1
 67 331 60 355 70 365 c 1
 66 572 l 1
 49 579 l 1
 30 625 l 1
 49 671 l 1
 95 690 l 1
 141 671 l 1
 146 659 l 1
 153 659 159 660 166 660 c 0
 330 660 460 528 460 370 c 0
 460 266 390 200 308 182 c 1
 399 93 l 1
 418 101 l 1
 464 82 l 1
 483 36 l 1
EndSplineSet
EndChar

StartChar: S.1
Encoding: 65586 -1 181
Width: 386
VWidth: 0
Flags: W
LayerCount: 2
Fore
SplineSet
352 606 m 1
 333 560 l 1
 287 541 l 1
 241 560 l 1
 222 606 l 1
 234 634 l 1
 202 680 l 1
 170 685 143 675 123 655 c 0
 79 612 77 534 135 493 c 0
 156 478 189 477 228 461 c 0
 321 422 359 326 353 239 c 0
 347 150 299 71 224 23 c 0
 209 13 191 19 183 26 c 2
 136 68 l 1
 115 59 l 1
 69 78 l 1
 50 124 l 1
 69 170 l 1
 115 189 l 1
 161 170 l 1
 180 124 l 1
 173 108 l 1
 208 77 l 1
 255 115 288 175 293 242 c 0
 298 318 263 390 202 416 c 0
 179 426 136 427 96 455 c 0
 7 517 15 626 77 687 c 0
 111 721 167 743 231 726 c 0
 236 725 242 721 247 714 c 2
 279 668 l 1
 287 671 l 1
 333 652 l 1
 352 606 l 1
EndSplineSet
EndChar

StartChar: T.1
Encoding: 65587 -1 182
Width: 470
VWidth: 0
Flags: W
VStem: 201 60<11 661>
LayerCount: 2
Fore
SplineSet
296 -42 m 1
 277 -88 l 1
 231 -107 l 1
 185 -88 l 1
 166 -42 l 1
 185 4 l 1
 201 11 l 1
 204 707 l 1
 121 772 l 1
 95 761 l 1
 49 780 l 1
 30 826 l 1
 49 872 l 1
 95 891 l 1
 141 872 l 1
 160 826 l 1
 155 813 l 1
 347 665 l 1
 374 676 l 1
 419 657 l 1
 439 611 l 1
 419 565 l 1
 374 546 l 1
 328 565 l 1
 309 611 l 1
 314 622 l 1
 264 661 l 1
 261 11 l 1
 277 4 l 1
 296 -42 l 1
EndSplineSet
EndChar

StartChar: U.1
Encoding: 65588 -1 183
Width: 380
VWidth: 0
Flags: W
HStem: -152 50<161.887 233.953> 767 20G<239 330>
VStem: 50 60<25.8752 412> 63 60<389.538 556> 257 59<480.632 668> 275 60<-36.9623 345.368>
LayerCount: 2
Fore
SplineSet
349 722 m 1xc8
 330 676 l 1
 316 670 l 1xc8
 335 156 l 2
 340 29 329 -149 208 -152 c 0
 193 -152 177 -149 160 -142 c 0
 28 -90 44 106 50 246 c 2xe4
 63 557 l 1
 49 563 l 1
 30 609 l 1
 49 655 l 1
 95 674 l 1
 141 655 l 1
 160 609 l 1
 141 563 l 1
 123 556 l 1xd0
 110 244 l 2
 104 89 108 -66 186 -97 c 0
 196 -101 202 -102 206 -102 c 0
 244 -101 280 7 275 155 c 2xe4
 257 668 l 1
 239 676 l 1
 219 722 l 1
 239 768 l 1
 284 787 l 1
 330 768 l 1
 349 722 l 1xc8
EndSplineSet
EndChar

StartChar: V.1
Encoding: 65589 -1 184
Width: 412
VWidth: 0
Flags: W
LayerCount: 2
Fore
SplineSet
381 656 m 1
 362 610 l 1
 337 600 l 1
 230 -49 l 2
 229 -54 223 -67 206 -70 c 0
 194 -72 173 -68 170 -49 c 2
 73 552 l 1
 49 563 l 1
 30 608 l 1
 49 654 l 1
 95 673 l 1
 141 654 l 1
 160 608 l 1
 141 563 l 1
 133 560 l 1
 200 140 l 1
 277 607 l 1
 270 610 l 1
 251 656 l 1
 270 702 l 1
 316 721 l 1
 362 702 l 1
 381 656 l 1
EndSplineSet
EndChar

StartChar: W.1
Encoding: 65590 -1 185
Width: 574
VWidth: 0
Flags: W
HStem: 772 20G<49 141 432 524>
VStem: 133 59<78.7033 142.346>
LayerCount: 2
Fore
SplineSet
543 704 m 1
 524 658 l 1
 502 649 l 1
 431 -18 l 2
 430 -24 426 -36 410 -40 c 0
 399 -43 376 -40 371 -22 c 2
 244 421 l 1
 192 99 l 2
 191 94 185 81 167 78 c 0
 155 76 135 81 133 100 c 2
 71 672 l 1
 49 681 l 1
 30 727 l 1
 49 773 l 1
 95 792 l 1
 141 773 l 1
 160 727 l 1
 141 681 l 1
 131 677 l 1
 168 328 l 1
 205 560 l 2
 208 579 229 584 241 582 c 0
 257 579 263 567 264 563 c 2
 387 138 l 1
 443 653 l 1
 432 658 l 1
 413 704 l 1
 432 750 l 1
 478 769 l 1
 524 750 l 1
 543 704 l 1
EndSplineSet
EndChar

StartChar: X.1
Encoding: 65591 -1 186
Width: 435
VWidth: 0
Flags: W
HStem: 774 20G<293 385>
LayerCount: 2
Fore
SplineSet
404 729 m 1
 385 683 l 1
 351 669 l 1
 243 331 l 1
 322 -31 l 1
 350 -43 l 1
 369 -89 l 1
 350 -135 l 1
 304 -154 l 1
 258 -135 l 1
 239 -89 l 1
 258 -43 l 1
 263 -41 l 1
 206 218 l 1
 141 12 l 1
 160 -34 l 1
 141 -79 l 1
 95 -99 l 1
 49 -79 l 1
 30 -34 l 1
 49 12 l 1
 83 26 l 1
 181 334 l 1
 115 640 l 1
 86 652 l 1
 67 698 l 1
 86 744 l 1
 132 763 l 1
 178 744 l 1
 197 698 l 1
 178 652 l 1
 173 650 l 1
 218 447 l 1
 293 683 l 1
 274 729 l 1
 293 775 l 1
 339 794 l 1
 385 775 l 1
 404 729 l 1
EndSplineSet
EndChar

StartChar: Y.1
Encoding: 65592 -1 187
Width: 417
VWidth: 0
Flags: W
VStem: 132 60<66 345>
LayerCount: 2
Fore
SplineSet
228 13 m 1
 209 -33 l 1
 163 -52 l 1
 117 -33 l 1
 98 13 l 1
 117 59 l 1
 132 65 l 1
 128 347 l 1
 78 565 l 1
 49 577 l 1
 30 623 l 1
 49 669 l 1
 95 688 l 1
 141 669 l 1
 160 623 l 1
 141 577 l 1
 136 575 l 1
 166 446 l 1
 273 703 l 1
 256 744 l 1
 275 790 l 1
 321 809 l 1
 367 790 l 1
 386 744 l 1
 367 698 l 1
 328 682 l 1
 188 345 l 1
 192 66 l 1
 209 59 l 1
 228 13 l 1
EndSplineSet
EndChar

StartChar: Z.1
Encoding: 65593 -1 188
Width: 385
VWidth: 0
Flags: W
VStem: 30 324
LayerCount: 2
Fore
SplineSet
354 122 m 1
 335 76 l 1
 289 57 l 1
 256 71 l 1
 135 -4 l 2
 119 -15 81 -5 88 22 c 2
 260 639 l 1
 145 662 l 1
 141 651 l 1
 95 632 l 1
 49 651 l 1
 30 697 l 1
 49 743 l 1
 95 762 l 1
 141 743 l 1
 154 712 l 1
 303 682 l 2
 323 678 329 661 326 652 c 2
 165 77 l 1
 227 115 l 1
 224 122 l 1
 243 168 l 1
 289 187 l 1
 335 168 l 1
 354 122 l 1
EndSplineSet
EndChar

StartChar: bracketleft.1
Encoding: 65594 -1 189
Width: 242
VWidth: 0
Flags: W
VStem: 37 60<74 656>
LayerCount: 2
Fore
SplineSet
201 26 m 1
 182 -20 l 1
 136 -39 l 1
 90 -20 l 1
 86 -9 l 1
 70 -12 l 1
 66 -12 l 1
 54 -13 34 -6 34 13 c 2
 37 698 l 1
 37 699 l 1
 38 709 48 725 70 723 c 2
 96 720 l 1
 102 735 l 1
 148 754 l 1
 194 735 l 1
 213 689 l 1
 194 644 l 1
 148 624 l 1
 102 644 l 1
 97 656 l 1
 94 74 l 1
 136 91 l 1
 182 72 l 1
 201 26 l 1
EndSplineSet
EndChar

StartChar: backslash.1
Encoding: 65595 -1 190
Width: 354
VWidth: 0
Flags: W
HStem: 766 20G<47 139>
VStem: 28 298
LayerCount: 2
Fore
SplineSet
326 -61 m 1
 307 -107 l 1
 261 -126 l 1
 215 -107 l 1
 196 -61 l 1
 215 -15 l 1
 221 -13 l 1
 75 664 l 1
 47 675 l 1
 28 721 l 1
 47 767 l 1
 93 786 l 1
 139 767 l 1
 158 721 l 1
 139 675 l 1
 134 673 l 1
 280 -4 l 1
 307 -15 l 1
 326 -61 l 1
EndSplineSet
EndChar

StartChar: bracketright.1
Encoding: 65596 -1 191
Width: 232
VWidth: 0
Flags: W
HStem: 744 20G<48 140>
VStem: 120 58<66 221.917> 140 62<506.083 653>
LayerCount: 2
Fore
SplineSet
170 7 m 1xc0
 151 -39 l 1
 105 -58 l 1
 59 -39 l 1
 40 7 l 1
 59 52 l 1
 105 72 l 1
 120 66 l 1xc0
 140 653 l 1
 94 634 l 1
 48 653 l 1
 29 699 l 1
 48 745 l 1
 94 764 l 1
 140 745 l 1
 147 728 l 1
 169 730 l 2
 191 732 202 716 202 706 c 2
 202 705 l 1xa0
 178 23 l 2
 178 16 174 11 170 7 c 1xc0
EndSplineSet
EndChar

StartChar: asciicircum.1
Encoding: 65597 -1 192
Width: 442
VWidth: 0
Flags: W
HStem: 465 20G<340 392>
LayerCount: 2
Fore
SplineSet
412 420 m 1
 392 374 l 1
 347 354 l 1
 301 374 l 1
 282 420 l 1
 294 447 l 1
 176 626 l 1
 138 478 l 1
 141 477 l 1
 160 431 l 1
 141 385 l 1
 95 366 l 1
 49 385 l 1
 30 431 l 1
 49 477 l 1
 79 490 l 1
 134 702 l 2
 139 720 161 723 172 720 c 0
 184 717 188 711 190 708 c 2
 340 482 l 1
 347 485 l 1
 392 465 l 1
 412 420 l 1
EndSplineSet
EndChar

StartChar: underscore.1
Encoding: 65598 -1 193
Width: 497
VWidth: 0
Flags: W
HStem: -172 50<163 335>
LayerCount: 2
Fore
SplineSet
454 -147 m 1
 435 -193 l 1
 389 -212 l 1
 344 -193 l 1
 335 -172 l 1
 163 -172 l 1
 154 -193 l 1
 108 -212 l 1
 62 -193 l 1
 43 -147 l 1
 62 -101 l 1
 108 -82 l 1
 154 -101 l 1
 163 -122 l 1
 335 -122 l 1
 344 -101 l 1
 389 -82 l 1
 435 -101 l 1
 454 -147 l 1
EndSplineSet
EndChar

StartChar: grave.1
Encoding: 65599 -1 194
Width: 340
VWidth: 0
Flags: W
HStem: 468 315
VStem: 31 277
LayerCount: 2
Fore
SplineSet
308 533 m 1
 289 487 l 1
 243 468 l 1
 197 487 l 1
 178 533 l 1
 188 557 l 1
 108 658 l 1
 96 653 l 1
 50 672 l 1
 31 718 l 1
 50 764 l 1
 96 783 l 1
 142 764 l 1
 161 718 l 1
 151 694 l 1
 231 593 l 1
 243 598 l 1
 289 579 l 1
 308 533 l 1
EndSplineSet
EndChar

StartChar: a.1
Encoding: 65600 -1 195
Width: 437
VWidth: 0
Flags: W
LayerCount: 2
Fore
SplineSet
371 105 m 1
 352 59 l 1
 347 57 l 1
 358 4 l 1
 387 -8 l 1
 406 -53 l 1
 387 -99 l 1
 341 -118 l 1
 295 -99 l 1
 276 -53 l 1
 295 -8 l 1
 300 -6 l 1
 288 47 l 1
 260 59 l 1
 248 88 l 1
 180 98 l 1
 175 85 l 1
 156 77 l 1
 138 11 l 1
 141 10 l 1
 160 -36 l 1
 141 -82 l 1
 95 -101 l 1
 49 -82 l 1
 30 -36 l 1
 49 10 l 1
 80 23 l 1
 95 80 l 1
 83 85 l 1
 64 131 l 1
 83 177 l 1
 126 195 l 1
 199 467 l 2
 204 485 226 489 237 486 c 0
 252 482 257 472 258 467 c 2
 324 163 l 1
 352 151 l 1
 371 105 l 1
255 138 m 1
 260 151 l 1
 265 153 l 1
 225 336 l 1
 179 166 l 1
 187 148 l 1
 255 138 l 1
EndSplineSet
EndChar

StartChar: b.1
Encoding: 65601 -1 196
Width: 397
VWidth: 0
Flags: W
HStem: 243 51<148 190.739> 491 20G<83 175>
VStem: 306 60<25.125 173.725>
LayerCount: 2
Fore
SplineSet
167 243 m 1
 144 238 l 1
 129 31 l 1
 141 26 l 1
 160 -20 l 1
 158 -24 l 1
 195 -35 234 -25 264 1 c 0
 289 23 308 57 306 101 c 0
 302 185 239 241 167 243 c 1
266 266 m 1
 323 233 363 173 366 103 c 0
 368 46 345 -2 308 -34 c 0
 261 -74 195 -89 133 -69 c 1
 95 -85 l 1
 49 -66 l 1
 30 -20 l 1
 49 26 l 1
 69 34 l 1
 83 225 l 1
 72 225 58 231 54 244 c 0
 53 246 53 248 53 250 c 0
 52 256 55 261 59 265 c 0
 61 268 64 270 67 272 c 0
 73 275 80 278 87 281 c 1
 95 395 l 1
 83 400 l 1
 64 446 l 1
 83 492 l 1
 129 511 l 1
 175 492 l 1
 194 446 l 1
 190 435 l 1
 343 324 l 1
 343 324 349 322 352 314 c 0
 356 305 353 286 331 281 c 2
 266 266 l 1
160 294 m 2
 261 317 l 1
 157 393 l 1
 155 392 l 1
 148 294 l 1
 151 294 153 294 155 294 c 0
 157 294 158 294 160 294 c 2
EndSplineSet
EndChar

StartChar: c.1
Encoding: 65602 -1 197
Width: 407
VWidth: 0
Flags: W
HStem: 461 50<153.58 257.014>
LayerCount: 2
Fore
SplineSet
376 84 m 1
 357 38 l 1
 317 21 l 1
 299 -3 271 -20 236 -25 c 0
 105 -44 54 90 35 202 c 1
 17 335 54 499 189 511 c 0
 199 512 210 512 223 510 c 0
 309 500 358 422 344 350 c 1
 360 311 l 1
 341 265 l 1
 295 246 l 1
 249 265 l 1
 230 311 l 1
 249 357 l 1
 287 372 l 1
 287 415 256 456 215 461 c 0
 207 462 201 461 196 461 c 0
 129 455 77 343 95 207 c 0
 97 196 98 186 100 178 c 0
 121 75 172 17 226 25 c 0
 239 27 252 33 262 44 c 1
 246 84 l 1
 265 130 l 1
 311 149 l 1
 357 130 l 1
 376 84 l 1
EndSplineSet
EndChar

StartChar: d.1
Encoding: 65603 -1 198
Width: 474
VWidth: 0
Flags: W
VStem: 68 60<32 310> 381 60<171.69 355.397>
LayerCount: 2
Fore
SplineSet
160 363 m 1
 141 317 l 1
 126 311 l 1
 128 32 l 1
 145 25 l 1
 153 6 l 1
 280 27 383 140 381 281 c 0
 380 351 338 395 292 413 c 0
 246 431 191 427 150 388 c 1
 160 363 l 1
107 423 m 1
 165 475 247 487 318 459 c 0
 386 432 440 368 441 281 c 0
 443 119 321 -23 154 -44 c 1
 145 -67 l 1
 99 -86 l 1
 53 -67 l 1
 34 -21 l 1
 53 25 l 1
 68 31 l 1
 66 310 l 1
 49 317 l 1
 30 363 l 1
 49 409 l 1
 95 428 l 1
 107 423 l 1
EndSplineSet
EndChar

StartChar: e.1
Encoding: 65604 -1 199
Width: 389
VWidth: 0
Flags: W
HStem: 229 50<151 215> 465 20G<232 324>
VStem: 58 60<16 203 315 437>
LayerCount: 2
Fore
SplineSet
336 252 m 1
 317 206 l 1
 271 187 l 1
 225 206 l 1
 215 229 l 1
 149 232 l 1
 141 213 l 1
 117 203 l 1
 118 16 l 1
 240 8 l 1
 247 26 l 1
 293 45 l 1
 339 26 l 1
 358 -20 l 1
 339 -66 l 1
 293 -85 l 1
 247 -66 l 1
 237 -42 l 1
 86 -32 l 2
 67 -31 58 -18 58 -8 c 2
 57 210 l 1
 49 213 l 1
 30 259 l 1
 49 305 l 1
 56 308 l 1
 55 471 l 2
 55 490 75 497 87 496 c 0
 89 496 91 496 94 495 c 2
 229 459 l 1
 232 466 l 1
 278 485 l 1
 324 466 l 1
 343 420 l 1
 324 374 l 1
 278 355 l 1
 232 374 l 1
 217 410 l 1
 115 437 l 1
 116 315 l 1
 141 305 l 1
 151 282 l 1
 217 279 l 1
 225 297 l 1
 271 317 l 1
 317 297 l 1
 336 252 l 1
EndSplineSet
EndChar

StartChar: f.1
Encoding: 65605 -1 200
Width: 408
VWidth: 0
Flags: W
HStem: 144 50<160.671 233.615> 467 20G<266 358>
VStem: 66 60<54 157 292 364>
LayerCount: 2
Fore
SplineSet
359 258 m 1
 340 212 l 1
 294 193 l 1
 291 194 l 1
 267 168 233 149 193 144 c 0
 169 141 147 146 128 157 c 1
 126 53 l 1
 141 47 l 1
 160 1 l 1
 141 -45 l 1
 95 -64 l 1
 49 -45 l 1
 30 1 l 1
 49 47 l 1
 66 54 l 1
 68 188 l 1
 64 190 l 1
 45 236 l 1
 64 282 l 1
 70 285 l 1
 72 384 l 2
 72 398 87 406 96 408 c 2
 253 437 l 1
 266 468 l 1
 312 487 l 1
 358 468 l 1
 377 422 l 1
 358 376 l 1
 312 357 l 1
 266 376 l 1
 261 388 l 1
 132 364 l 1
 131 292 l 1
 156 282 l 1
 175 236 l 1
 160 200 l 1
 168 195 177 193 185 194 c 0
 207 196 228 207 243 224 c 1
 229 258 l 1
 248 304 l 1
 294 323 l 1
 340 304 l 1
 359 258 l 1
EndSplineSet
EndChar

StartChar: g.1
Encoding: 65606 -1 201
Width: 399
VWidth: 0
Flags: W
HStem: 401 50<157.461 253.736>
VStem: 31 60<98.5485 316.22> 267 60<53 170>
LayerCount: 2
Fore
SplineSet
363 0 m 1
 344 -46 l 1
 298 -65 l 1
 252 -46 l 1
 245 -30 l 1
 232 -31 223 -32 222 -32 c 0
 107 -42 47 62 34 163 c 0
 32 180 30 199 31 220 c 0
 34 326 89 454 209 451 c 1
 252 451 287 431 309 402 c 1
 349 386 l 1
 368 340 l 1
 349 294 l 1
 303 275 l 1
 257 294 l 1
 238 340 l 1
 255 381 l 1
 243 394 226 401 207 401 c 0
 151 402 94 325 91 219 c 0
 90 200 92 183 94 168 c 0
 107 69 160 13 216 18 c 2
 241 20 l 1
 252 46 l 1
 267 52 l 1
 266 170 l 1
 238 164 l 1
 225 132 l 1
 179 113 l 1
 133 132 l 1
 114 178 l 1
 133 224 l 1
 179 243 l 1
 225 224 l 1
 229 214 l 1
 289 226 l 2
 311 230 323 216 325 206 c 0
 325 205 326 204 326 202 c 2
 327 53 l 1
 344 46 l 1
 363 0 l 1
EndSplineSet
EndChar

StartChar: h.1
Encoding: 65607 -1 202
Width: 448
VWidth: 0
Flags: W
HStem: 223 50<150 338> 471 20G<62 154 274 366>
VStem: 77 60<41 189 305 373> 342 58<66.5312 226 276 353.37>
LayerCount: 2
Fore
SplineSet
417 7 m 1
 398 -39 l 1
 352 -58 l 1
 306 -39 l 1
 287 7 l 1
 306 53 l 1
 332 64 l 1
 341 118 344 172 342 226 c 1
 150 223 l 1
 141 201 l 1
 137 199 l 1
 136 41 l 1
 152 34 l 1
 171 -12 l 1
 152 -58 l 1
 106 -77 l 1
 60 -58 l 1
 41 -12 l 1
 60 34 l 1
 76 41 l 1
 77 189 l 1
 49 201 l 1
 30 247 l 1
 49 293 l 1
 77 305 l 1
 78 373 l 1
 62 380 l 1
 43 426 l 1
 62 472 l 1
 108 491 l 1
 154 472 l 1
 173 426 l 1
 154 380 l 1
 138 373 l 1
 137 294 l 1
 141 293 l 1
 149 273 l 1
 338 276 l 1
 334 307 326 337 316 366 c 1
 274 383 l 1
 255 429 l 1
 274 475 l 1
 320 494 l 1
 366 475 l 1
 385 429 l 1
 369 390 l 1
 384 350 394 306 399 260 c 1
 400 257 401 255 401 252 c 0
 401 250 401 249 400 247 c 0
 405 186 402 121 391 56 c 1
 398 53 l 1
 417 7 l 1
EndSplineSet
EndChar

StartChar: i.1
Encoding: 65608 -1 203
Width: 235
VWidth: 0
Flags: W
HStem: 465 20G<49 141>
VStem: 65 60<65.2188 366>
LayerCount: 2
Fore
SplineSet
160 420 m 1
 141 374 l 1
 122 366 l 1
 121 338 122 310 125 282 c 0
 130 233 120 185 125 142 c 0
 128 116 133 90 142 64 c 1
 185 46 l 1
 204 -0 l 1
 185 -46 l 1
 139 -65 l 1
 93 -46 l 1
 74 -0 l 1
 89 36 l 1
 76 69 68 104 65 138 c 0
 60 190 69 237 65 278 c 0
 62 309 61 339 62 369 c 1
 49 374 l 1
 30 420 l 1
 49 466 l 1
 95 485 l 1
 141 466 l 1
 160 420 l 1
EndSplineSet
EndChar

StartChar: j.1
Encoding: 65609 -1 204
Width: 312
VWidth: 0
Flags: W
VStem: 188 60<72.9 326> 197 61<-7 218.1>
LayerCount: 2
Fore
SplineSet
281 379 m 1x80
 262 333 l 1
 248 327 l 1x80
 258 -36 l 2
 259 -55 239 -62 227 -61 c 0
 226 -61 225 -61 224 -61 c 2
 147 -51 l 1
 141 -65 l 1
 95 -84 l 1
 49 -65 l 1
 30 -19 l 1
 49 27 l 1
 95 46 l 1
 141 27 l 1
 153 -1 l 1
 197 -7 l 1x40
 188 326 l 1
 170 333 l 1
 151 379 l 1
 170 425 l 1
 216 444 l 1
 262 425 l 1
 281 379 l 1x80
EndSplineSet
EndChar

StartChar: k.1
Encoding: 65610 -1 205
Width: 527
VWidth: 0
Flags: W
VStem: 117 61<235 328> 125 60<235 452>
LayerCount: 2
Fore
SplineSet
489 39 m 1x40
 470 -7 l 1
 424 -26 l 1
 378 -7 l 1
 364 28 l 1
 337 38 311 53 288 72 c 0
 253 103 221 140 197 181 c 1
 176 163 l 1
 174 96 l 1
 188 90 l 1
 207 44 l 1
 188 -2 l 1
 142 -21 l 1
 96 -2 l 1
 77 44 l 1
 88 70 l 1
 49 86 l 1
 30 132 l 1
 49 178 l 1
 95 197 l 1
 117 188 l 1x80
 125 453 l 1
 111 459 l 1
 92 505 l 1
 111 551 l 1
 157 570 l 1
 203 551 l 1
 222 505 l 1
 203 459 l 1
 185 452 l 1x40
 178 235 l 1x80
 185 241 l 2
 186 242 l 2
 372 394 l 1
 366 408 l 1
 385 454 l 1
 431 473 l 1
 477 454 l 1
 496 408 l 1
 477 362 l 1
 431 343 l 1
 407 353 l 1
 242 218 l 1
 265 175 296 138 331 107 c 0
 345 95 359 86 375 79 c 1
 378 85 l 1
 424 104 l 1
 470 85 l 1
 489 39 l 1x40
EndSplineSet
EndChar

StartChar: l.1
Encoding: 65611 -1 206
Width: 368
VWidth: 0
Flags: W
HStem: -115 21G<226 318> 474 20G<63 154>
VStem: 30 307
LayerCount: 2
Fore
SplineSet
337 -50 m 1
 318 -96 l 1
 272 -115 l 1
 226 -96 l 1
 210 -58 l 1
 49 -7 l 2
 41 -5 28 5 30 19 c 2
 73 379 l 1
 63 383 l 1
 43 429 l 1
 63 475 l 1
 108 494 l 1
 154 475 l 1
 173 429 l 1
 154 383 l 1
 132 374 l 1
 92 33 l 1
 224 -9 l 1
 226 -4 l 1
 272 15 l 1
 318 -4 l 1
 337 -50 l 1
EndSplineSet
EndChar

StartChar: m.1
Encoding: 65612 -1 207
Width: 526
VWidth: 0
Flags: W
HStem: 492 20G<68 82.5>
LayerCount: 2
Fore
SplineSet
495 37 m 1
 475 -9 l 1
 430 -28 l 1
 384 -9 l 1
 365 37 l 1
 384 83 l 1
 396 88 l 1
 382 291 l 1
 266 16 l 2
 266 15 261 5 248 1 c 0
 237 -3 215 -1 209 17 c 2
 114 283 l 1
 122 141 l 1
 141 133 l 1
 160 87 l 1
 141 41 l 1
 95 22 l 1
 49 41 l 1
 30 87 l 1
 49 133 l 1
 62 138 l 1
 43 485 l 2
 42 504 62 512 74 512 c 0
 91 512 100 500 102 494 c 2
 240 105 l 1
 374 425 l 2
 381 443 404 443 415 439 c 0
 429 434 433 423 433 418 c 2
 455 91 l 1
 475 83 l 1
 495 37 l 1
EndSplineSet
EndChar

StartChar: n.1
Encoding: 65613 -1 208
Width: 397
VWidth: 0
Flags: W
LayerCount: 2
Fore
SplineSet
356 391 m 1
 337 345 l 1
 328 341 l 1
 365 54 l 1
 370 33 331 13 311 37 c 2
 109 281 l 1
 122 72 l 1
 141 64 l 1
 160 18 l 1
 141 -28 l 1
 95 -47 l 1
 49 -28 l 1
 30 18 l 1
 49 64 l 1
 62 69 l 1
 43 366 l 2
 42 385 62 392 74 392 c 0
 88 392 95 386 98 382 c 2
 293 147 l 1
 268 336 l 1
 245 345 l 1
 226 391 l 1
 245 437 l 1
 291 456 l 1
 337 437 l 1
 356 391 l 1
EndSplineSet
EndChar

StartChar: o.1
Encoding: 65614 -1 209
Width: 393
VWidth: 0
Flags: W
HStem: 491 20G<127 219>
LayerCount: 2
Fore
SplineSet
113 457 m 1
 127 492 l 1
 173 511 l 1
 219 492 l 1
 238 446 l 1
 236 440 l 1
 299 394 342 325 356 247 c 0
 375 139 323 1 186 12 c 1
 72 23 40 142 32 236 c 0
 26 314 40 420 113 457 c 1
129 399 m 1
 102 368 86 309 92 239 c 0
 100 141 137 66 193 61 c 0
 200 60 205 61 210 62 c 0
 264 69 314 146 297 239 c 0
 285 302 251 356 205 394 c 1
 173 381 l 1
 129 399 l 1
EndSplineSet
EndChar

StartChar: p.1
Encoding: 65615 -1 210
Width: 470
VWidth: 0
Flags: W
LayerCount: 2
Fore
SplineSet
160 21 m 1
 141 -25 l 1
 95 -44 l 1
 49 -25 l 1
 30 21 l 1
 49 67 l 1
 69 75 l 1
 81 223 l 1
 62 231 l 1
 42 277 l 1
 62 323 l 1
 90 335 l 1
 99 444 l 2
 101 463 121 468 133 467 c 1
 135 467 l 1
 414 421 l 2
 449 415 440 379 421 374 c 1
 171 274 l 1
 153 231 l 1
 142 226 l 1
 129 72 l 1
 141 67 l 1
 160 21 l 1
153 323 m 1
 313 387 l 1
 157 412 l 1
 149 325 l 1
 153 323 l 1
EndSplineSet
EndChar

StartChar: q.1
Encoding: 65616 -1 211
Width: 474
VWidth: 0
Flags: W
VStem: 31 60<199.444 334.807>
LayerCount: 2
Fore
SplineSet
443 -26 m 1
 424 -72 l 1
 378 -91 l 1
 362 -84 l 1
 326 -124 l 2
 316 -134 283 -142 273 -116 c 2
 194 89 l 1
 105 108 33 176 31 266 c 0
 29 349 91 418 170 419 c 0
 176 419 181 419 187 418 c 1
 229 435 l 1
 275 416 l 1
 282 399 l 1
 353 391 408 336 421 273 c 0
 427 245 425 214 411 181 c 0
 386 123 325 90 259 85 c 1
 313 -56 l 1
 322 -47 l 1
 313 -26 l 1
 332 20 l 1
 378 39 l 1
 424 20 l 1
 443 -26 l 1
242 134 m 1
 292 134 336 157 355 198 c 0
 368 227 367 256 358 280 c 0
 345 316 316 340 284 347 c 1
 275 324 l 1
 229 305 l 1
 183 324 l 1
 165 369 l 1
 132 365 89 329 91 267 c 0
 92 231 107 201 130 178 c 1
 147 218 l 1
 193 237 l 1
 239 218 l 1
 258 172 l 1
 242 134 l 1
EndSplineSet
EndChar

StartChar: r.1
Encoding: 65617 -1 212
Width: 502
VWidth: 0
Flags: W
HStem: 506 20G<49 118>
LayerCount: 2
Fore
SplineSet
152 153 m 1
 161 151 171 148 181 147 c 0
 277 136 383 206 393 324 c 0
 402 428 323 496 244 501 c 0
 214 503 184 496 154 476 c 1
 160 461 l 1
 141 415 l 1
 130 410 l 1
 152 153 l 1
471 -13 m 1
 452 -59 l 1
 406 -78 l 1
 360 -59 l 1
 341 -13 l 1
 343 -9 l 1
 158 90 l 1
 161 55 l 1
 181 47 l 1
 200 1 l 1
 181 -45 l 1
 135 -64 l 1
 89 -45 l 1
 70 1 l 1
 89 47 l 1
 101 52 l 1
 95 120 l 1
 78 128 62 138 49 148 c 0
 32 161 40 178 49 185 c 0
 66 197 80 191 89 186 c 1
 70 406 l 1
 49 415 l 1
 30 461 l 1
 49 507 l 1
 95 526 l 1
 118 517 l 1
 158 543 204 554 248 551 c 0
 366 544 464 447 453 320 c 0
 443 203 354 120 249 100 c 1
 368 36 l 1
 406 52 l 1
 452 33 l 1
 471 -13 l 1
EndSplineSet
EndChar

StartChar: s.1
Encoding: 65618 -1 213
Width: 403
VWidth: 0
Flags: W
LayerCount: 2
Fore
SplineSet
371 367 m 1
 352 322 l 1
 306 302 l 1
 260 322 l 1
 244 360 l 1
 209 371 l 2
 205 372 202 374 201 375 c 0
 190 382 182 381 175 380 c 0
 156 376 133 353 142 322 c 0
 150 296 180 286 223 275 c 0
 276 261 338 237 361 180 c 0
 374 148 372 118 363 92 c 0
 342 34 275 -8 203 11 c 1
 151 8 l 1
 141 -17 l 1
 95 -36 l 1
 49 -17 l 1
 30 29 l 1
 49 75 l 1
 95 94 l 1
 141 75 l 1
 148 57 l 1
 205 61 l 2
 208 61 213 62 218 60 c 0
 251 50 288 65 304 102 c 0
 312 120 313 141 304 164 c 0
 291 197 255 215 206 227 c 0
 168 237 101 252 84 310 c 0
 69 363 103 417 161 429 c 0
 184 433 209 431 234 416 c 1
 258 409 l 1
 260 413 l 1
 306 432 l 1
 352 413 l 1
 371 367 l 1
EndSplineSet
EndChar

StartChar: t.1
Encoding: 65619 -1 214
Width: 511
VWidth: 0
Flags: W
HStem: 458 20G<369 461>
LayerCount: 2
Fore
SplineSet
297 36 m 1
 278 -10 l 1
 232 -29 l 1
 187 -10 l 1
 167 36 l 1
 187 82 l 1
 206 90 l 1
 224 427 l 1
 145 443 l 1
 141 434 l 1
 95 415 l 1
 49 434 l 1
 30 480 l 1
 49 526 l 1
 95 545 l 1
 141 526 l 1
 155 493 l 1
 365 450 l 1
 369 459 l 1
 415 478 l 1
 461 459 l 1
 480 413 l 1
 461 367 l 1
 415 348 l 1
 369 367 l 1
 356 400 l 1
 283 415 l 1
 265 87 l 1
 278 82 l 1
 297 36 l 1
EndSplineSet
EndChar

StartChar: u.1
Encoding: 65620 -1 215
Width: 403
VWidth: 0
Flags: W
HStem: -41 50<167.573 253.201> 456 20G<49 141 261 353>
VStem: 69 60<50.6835 358> 284 60<42.5908 377>
LayerCount: 2
Fore
SplineSet
372 430 m 1
 353 384 l 1
 338 378 l 1
 339 338 340 268 344 124 c 0
 346 51 306 -43 208 -41 c 0
 114 -39 70 49 69 128 c 2
 66 358 l 1
 49 365 l 1
 30 411 l 1
 49 457 l 1
 95 476 l 1
 141 457 l 1
 160 411 l 1
 141 365 l 1
 126 359 l 1
 129 129 l 2
 130 56 171 10 210 9 c 0
 247 8 286 55 284 123 c 0
 284 124 280 290 278 377 c 1
 261 384 l 1
 242 430 l 1
 261 476 l 1
 307 495 l 1
 353 476 l 1
 372 430 l 1
EndSplineSet
EndChar

StartChar: v.1
Encoding: 65621 -1 216
Width: 474
VWidth: 0
Flags: W
HStem: 460 20G<332 424> 460 20G<332 424>
LayerCount: 2
Fore
SplineSet
443 415 m 1x80
 424 369 l 1
 392 356 l 1
 277 -17 l 2
 276 -19 273 -30 259 -34 c 0
 248 -38 227 -36 220 -18 c 2
 86 343 l 1
 49 358 l 1
 30 404 l 1
 49 450 l 1
 95 469 l 1
 141 450 l 1
 160 404 l 1
 142 361 l 1
 246 81 l 1
 333 369 l 1
 332 369 l 1
 313 415 l 1
 332 461 l 1
 378 480 l 1
 424 461 l 1
 443 415 l 1x80
EndSplineSet
EndChar

StartChar: w.1
Encoding: 65622 -1 217
Width: 546
VWidth: 0
Flags: W
HStem: 467 20G<49 141>
VStem: 141 59<-47.5141 14.0597>
LayerCount: 2
Fore
SplineSet
515 382 m 1
 496 336 l 1
 464 323 l 1
 368 -10 l 2
 364 -27 319 -41 309 -10 c 2
 240 220 l 1
 200 -27 l 2
 199 -32 194 -45 177 -48 c 0
 166 -50 144 -46 141 -27 c 2
 74 366 l 1
 49 376 l 1
 30 422 l 1
 49 468 l 1
 95 487 l 1
 141 468 l 1
 160 422 l 1
 141 376 l 1
 134 373 l 1
 170 160 l 1
 201 355 l 2
 204 374 225 378 237 376 c 0
 253 373 259 361 260 358 c 2
 338 101 l 1
 405 336 l 1
 404 336 l 1
 385 382 l 1
 404 428 l 1
 450 447 l 1
 496 428 l 1
 515 382 l 1
EndSplineSet
EndChar

StartChar: x.1
Encoding: 65623 -1 218
Width: 468
VWidth: 0
Flags: W
HStem: 473 20G<66 158 326 418>
LayerCount: 2
Fore
SplineSet
437 426 m 1
 418 380 l 1
 372 361 l 1
 367 363 l 1
 277 216 l 1
 359 85 l 1
 365 88 l 1
 411 69 l 1
 430 23 l 1
 411 -23 l 1
 365 -42 l 1
 319 -23 l 1
 300 23 l 1
 312 52 l 1
 244 162 l 1
 147 4 l 1
 160 -26 l 1
 141 -72 l 1
 95 -91 l 1
 49 -72 l 1
 30 -26 l 1
 49 20 l 1
 95 39 l 1
 100 37 l 1
 210 216 l 1
 117 365 l 1
 112 363 l 1
 66 382 l 1
 47 428 l 1
 66 473 l 1
 112 493 l 1
 158 473 l 1
 177 428 l 1
 164 397 l 1
 243 271 l 1
 320 396 l 1
 307 426 l 1
 326 472 l 1
 372 491 l 1
 418 472 l 1
 437 426 l 1
EndSplineSet
EndChar

StartChar: y.1
Encoding: 65624 -1 219
Width: 478
VWidth: 0
Flags: W
HStem: 460 20G<49 141> 460 20G<49 141 336 428>
VStem: 198 60<32 155>
LayerCount: 2
Fore
SplineSet
292 -21 m 1xa0
 273 -67 l 1
 227 -86 l 1
 181 -67 l 1
 162 -21 l 1
 181 25 l 1
 198 32 l 1
 200 155 l 1
 97 351 l 1
 95 350 l 1
 49 369 l 1
 30 415 l 1
 49 461 l 1
 95 480 l 1
 141 461 l 1
 160 415 l 1
 146 380 l 1
 231 221 l 1
 331 405 l 1
 317 438 l 1
 336 484 l 1
 382 503 l 1
 428 484 l 1
 447 438 l 1
 428 392 l 1
 382 373 l 1
 379 374 l 1
 260 155 l 1
 258 31 l 1
 273 25 l 1
 292 -21 l 1xa0
EndSplineSet
EndChar

StartChar: z.1
Encoding: 65625 -1 220
Width: 386
VWidth: 0
Flags: W
HStem: 465 20G<49 141>
VStem: 30 325
LayerCount: 2
Fore
SplineSet
355 45 m 1
 336 -1 l 1
 290 -20 l 1
 244 -1 l 1
 238 13 l 1
 66 -10 l 1
 48 -10 20 2 34 26 c 2
 205 327 l 1
 131 370 l 1
 95 355 l 1
 49 374 l 1
 30 420 l 1
 49 466 l 1
 95 485 l 1
 141 466 l 1
 160 420 l 1
 158 415 l 1
 260 356 l 2
 275 348 275 333 270 325 c 2
 112 47 l 1
 232 63 l 1
 244 91 l 1
 290 110 l 1
 336 91 l 1
 355 45 l 1
EndSplineSet
EndChar

StartChar: braceleft.1
Encoding: 65626 -1 221
Width: 337
VWidth: 0
Flags: W
HStem: 745 20G<187 279>
VStem: 85 60<97.6861 225.715>
LayerCount: 2
Fore
SplineSet
308 34 m 1
 289 -12 l 1
 243 -31 l 1
 197 -12 l 1
 184 19 l 1
 120 43 85 105 85 163 c 0
 85 203 101 246 141 278 c 1
 135 281 l 1
 94 264 l 1
 48 283 l 1
 29 329 l 1
 48 375 l 1
 94 394 l 1
 119 384 l 1
 142 402 l 1
 42 457 32 582 93 660 c 0
 112 684 140 705 175 716 c 1
 187 746 l 1
 233 765 l 1
 279 746 l 1
 298 700 l 1
 279 654 l 1
 233 635 l 1
 187 654 l 1
 183 665 l 1
 156 652 136 629 125 601 c 0
 98 533 128 455 204 433 c 0
 231 425 228 399 215 391 c 1
 154 342 l 1
 159 329 l 1
 158 327 l 1
 213 302 l 2
 233 293 230 274 223 266 c 0
 217 259 212 258 210 257 c 0
 166 240 145 203 145 163 c 0
 145 124 164 90 194 72 c 1
 197 80 l 1
 243 99 l 1
 289 80 l 1
 308 34 l 1
EndSplineSet
EndChar

StartChar: braceright.1
Encoding: 65627 -1 222
Width: 349
VWidth: 0
Flags: W
VStem: 211 60<72.0614 215.46>
LayerCount: 2
Fore
SplineSet
320 353 m 1
 301 307 l 1
 255 288 l 1
 226 300 l 1
 199 282 l 1
 251 246 271 194 271 145 c 0
 271 77 230 4 152 -20 c 1
 140 -50 l 1
 94 -69 l 1
 48 -50 l 1
 29 -4 l 1
 48 42 l 1
 94 61 l 1
 140 42 l 1
 144 32 l 1
 185 52 211 95 211 145 c 0
 211 192 187 237 135 257 c 0
 123 262 107 283 129 299 c 2
 194 344 l 1
 191 350 l 1
 144 368 l 2
 143 368 133 372 129 382 c 0
 125 391 127 409 149 414 c 0
 230 433 263 514 239 586 c 0
 228 620 205 647 172 661 c 1
 168 650 l 1
 122 630 l 1
 76 650 l 1
 57 695 l 1
 76 741 l 1
 122 760 l 1
 168 741 l 1
 180 712 l 1
 213 702 240 685 260 663 c 0
 321 595 324 484 258 417 c 1
 301 399 l 1
 320 353 l 1
EndSplineSet
EndChar

StartChar: exclamdown.1
Encoding: 65628 -1 223
Width: 220
VWidth: 0
Flags: W
HStem: 471 20G<81 173>
VStem: 28 164
LayerCount: 2
Fore
SplineSet
192 426 m 1
 173 380 l 1
 153 372 l 1
 127 -13 l 1
 139 -18 l 1
 158 -64 l 1
 139 -110 l 1
 93 -129 l 1
 47 -110 l 1
 28 -64 l 1
 47 -18 l 1
 67 -10 l 1
 93 375 l 1
 81 380 l 1
 62 426 l 1
 81 472 l 1
 127 491 l 1
 173 472 l 1
 192 426 l 1
181 650 m 1
 161 604 l 1
 116 585 l 1
 70 604 l 1
 51 650 l 1
 70 696 l 1
 116 715 l 1
 161 696 l 1
 181 650 l 1
EndSplineSet
EndChar

StartChar: dieresis.1
Encoding: 65629 -1 224
Width: 375
VWidth: 0
Flags: W
HStem: 520 146 536 21G<52 144>
VStem: 33 309
LayerCount: 2
Fore
SplineSet
342 585 m 1xa0
 323 539 l 1
 277 520 l 1
 231 539 l 1
 212 585 l 1
 231 630 l 1
 277 650 l 1
 323 630 l 1
 342 585 l 1xa0
163 601 m 1
 144 555 l 1
 98 536 l 1x60
 52 555 l 1
 33 601 l 1
 52 647 l 1
 98 666 l 1
 144 647 l 1
 163 601 l 1
EndSplineSet
EndChar

StartChar: macron.1
Encoding: 65630 -1 225
Width: 428
VWidth: 0
Flags: W
HStem: 432 200 501 21G<52 144>
LayerCount: 2
Fore
SplineSet
396 497 m 1x80
 377 451 l 1
 331 432 l 1x80
 286 451 l 1
 269 489 l 1
 146 526 l 1
 144 521 l 1
 98 501 l 1x40
 52 521 l 1
 33 566 l 1
 52 612 l 1
 98 632 l 1
 144 612 l 1
 159 575 l 1
 284 538 l 1
 286 543 l 1
 331 562 l 1
 377 543 l 1
 396 497 l 1x80
EndSplineSet
EndChar

StartChar: acute.1
Encoding: 65631 -1 226
Width: 333
VWidth: 0
Flags: W
HStem: 472 245
VStem: 32 269
LayerCount: 2
Fore
SplineSet
162 537 m 1
 143 491 l 1
 97 472 l 1
 51 491 l 1
 32 537 l 1
 51 583 l 1
 97 602 l 1
 121 592 l 1
 177 638 l 1
 171 652 l 1
 190 698 l 1
 236 717 l 1
 282 698 l 1
 301 652 l 1
 282 606 l 1
 236 587 l 1
 212 597 l 1
 156 551 l 1
 162 537 l 1
EndSplineSet
EndChar

StartChar: cedilla.1
Encoding: 65632 -1 227
Width: 337
VWidth: 0
Flags: W
HStem: -156 179
VStem: 36 262
LayerCount: 2
Fore
SplineSet
225 23 m 0
 243 29 259 20 264 10 c 2
 298 -57 l 2
 307 -74 291 -88 280 -91 c 0
 279 -91 278 -92 276 -92 c 2
 159 -109 l 1
 147 -137 l 1
 101 -156 l 1
 55 -137 l 1
 36 -91 l 1
 55 -45 l 1
 101 -26 l 1
 147 -45 l 1
 152 -58 l 1
 228 -48 l 1
 209 -10 l 2
 204 0 207 17 225 23 c 0
EndSplineSet
EndChar

StartChar: questiondown.1
Encoding: 65633 -1 228
Width: 271
VWidth: 0
Flags: W
HStem: 458 20G<122 214>
LayerCount: 2
Fore
SplineSet
203 618 m 1
 184 572 l 1
 138 553 l 1
 92 572 l 1
 73 618 l 1
 92 664 l 1
 138 683 l 1
 184 664 l 1
 203 618 l 1
233 413 m 1
 214 367 l 1
 200 361 l 1
 208 259 234 155 241 46 c 0
 244 -2 241 -77 169 -99 c 0
 107 -118 56 -83 38 -41 c 0
 27 -15 25 18 41 46 c 1
 33 65 l 1
 52 111 l 1
 98 130 l 1
 144 111 l 1
 163 65 l 1
 144 19 l 1
 98 -0 l 1
 89 4 l 1
 88 -5 90 -15 94 -24 c 0
 105 -50 125 -59 148 -52 c 0
 170 -45 184 -7 181 44 c 0
 175 149 148 253 140 360 c 1
 122 367 l 1
 103 413 l 1
 122 459 l 1
 168 478 l 1
 214 459 l 1
 233 413 l 1
EndSplineSet
EndChar

StartChar: AE.1
Encoding: 65634 -1 229
Width: 587
VWidth: 0
Flags: W
HStem: 202 50<247 282> 531 21G<445 537>
VStem: 271 61<-29 111.182> 282 60<88.7273 199 251 394.5> 296 66<513 538>
LayerCount: 2
Fore
SplineSet
504 -87 m 1xe0
 485 -132 l 1
 439 -152 l 1
 393 -132 l 1
 377 -95 l 1
 291 -70 l 2
 282 -67 270 -59 271 -46 c 2xe0
 282 201 l 1xd0
 246 202 l 1
 238 183 l 1
 192 164 l 1
 172 172 l 1
 141 81 l 1
 160 36 l 1
 141 -10 l 1
 95 -29 l 1
 49 -10 l 1
 30 36 l 1
 49 82 l 1
 84 96 l 1
 128 227 l 1
 127 229 l 1
 137 254 l 1
 288 701 l 1
 270 746 l 1
 289 792 l 1
 335 811 l 1
 381 792 l 1
 400 746 l 1
 393 728 l 1
 471 653 l 1
 491 661 l 1
 537 642 l 1
 556 596 l 1
 537 550 l 1
 491 531 l 1
 445 550 l 1
 426 596 l 1
 433 613 l 1
 362 681 l 1
 344 249 l 1
 363 248 l 1
 371 267 l 1
 417 286 l 1
 463 267 l 1
 482 221 l 1
 463 175 l 1
 417 156 l 1
 371 175 l 1
 362 198 l 1xc8
 342 199 l 1xd0
 332 -29 l 1
 391 -46 l 1
 393 -41 l 1
 439 -22 l 1
 485 -41 l 1
 504 -87 l 1xe0
284 251 m 1
 296 538 l 1xc8
 211 286 l 1
 238 275 l 1
 247 252 l 1
 284 251 l 1
EndSplineSet
EndChar

StartChar: Oslash.1
Encoding: 65635 -1 230
Width: 414
VWidth: 0
Flags: W
HStem: -25 49<198 263.917>
LayerCount: 2
Fore
SplineSet
273 312 m 1
 198 24 l 1
 209 22 220 22 232 25 c 0
 317 46 309 166 273 312 c 1
193 -125 m 1
 174 -171 l 1
 128 -190 l 1
 82 -171 l 1
 63 -125 l 1
 82 -80 l 1
 113 -67 l 1
 129 -3 l 1
 52 49 19 168 35 290 c 0
 55 437 96 580 157 717 c 1
 141 756 l 1
 160 802 l 1
 206 821 l 1
 252 802 l 1
 271 756 l 1
 252 710 l 1
 209 692 l 1
 152 561 114 423 95 284 c 0
 82 189 106 101 145 56 c 1
 248 451 l 1
 243 556 271 659 327 747 c 0
 338 764 359 762 369 757 c 0
 384 749 383 735 382 730 c 2
 308 446 l 1
 310 418 315 388 322 361 c 0
 358 223 415 18 249 -23 c 0
 228 -28 207 -29 185 -25 c 1
 171 -79 l 1
 174 -80 l 1
 193 -125 l 1
EndSplineSet
EndChar

StartChar: germandbls.1
Encoding: 65636 -1 231
Width: 613
VWidth: 0
Flags: W
HStem: 485 20G<268 360 470 562>
VStem: 518 60<68.8682 224.201>
LayerCount: 2
Fore
SplineSet
581 439 m 1
 562 393 l 1
 516 374 l 1
 493 384 l 1
 484 376 l 2
 466 362 442 372 436 383 c 0
 421 410 394 423 366 409 c 1
 360 394 l 1
 338 385 l 1
 317 357 317 320 356 294 c 0
 376 281 402 309 469 299 c 0
 551 287 580 208 578 147 c 0
 576 84 548 26 500 -14 c 0
 487 -25 468 -22 459 -16 c 2
 371 44 l 1
 341 31 l 1
 325 37 l 1
 315 26 304 17 292 9 c 0
 281 2 269 3 262 5 c 2
 186 32 l 1
 185 29 l 1
 139 10 l 1
 93 29 l 1
 74 75 l 1
 93 121 l 1
 139 140 l 1
 185 121 l 1
 202 80 l 1
 267 57 l 1
 273 62 280 68 285 75 c 1
 276 96 l 1
 295 142 l 1
 313 150 l 1
 316 198 290 237 260 243 c 0
 241 247 181 209 117 237 c 0
 19 279 16 367 53 427 c 0
 83 476 153 522 227 489 c 0
 239 484 250 478 261 469 c 1
 268 486 l 1
 314 505 l 1
 360 486 l 1
 369 463 l 1
 395 468 423 466 450 448 c 0
 451 447 453 446 454 445 c 1
 470 485 l 1
 516 504 l 1
 562 485 l 1
 581 439 l 1
402 87 m 1
 475 38 l 1
 500 66 517 105 518 148 c 0
 520 203 491 245 459 250 c 0
 447 252 398 229 349 242 c 1
 368 214 374 179 372 148 c 1
 387 142 l 1
 406 96 l 1
 402 87 l 1
283 289 m 1
 259 322 260 359 275 391 c 1
 268 394 l 1
 265 401 l 1
 251 400 240 408 236 413 c 0
 222 431 210 440 199 445 c 0
 169 458 130 442 106 404 c 0
 78 360 83 308 144 282 c 0
 168 271 205 304 273 291 c 0
 276 290 280 290 283 289 c 1
EndSplineSet
EndChar

StartChar: ae.1
Encoding: 65637 -1 232
Width: 526
VWidth: 0
Flags: W
HStem: 472 20G<216 308 384 476>
VStem: 243 61<216 302>
LayerCount: 2
Fore
SplineSet
480 35 m 1
 461 -11 l 1
 415 -30 l 1
 369 -11 l 1
 362 7 l 1
 284 3 l 2
 275 3 253 8 252 27 c 2
 245 161 l 1
 186 182 l 1
 144 85 l 1
 160 46 l 1
 141 0 l 1
 95 -19 l 1
 49 0 l 1
 30 46 l 1
 49 92 l 1
 91 109 l 1
 116 168 l 1
 76 186 l 1
 57 231 l 1
 76 277 l 1
 122 296 l 1
 164 278 l 1
 213 389 l 1
 197 427 l 1
 216 473 l 1
 262 492 l 1
 308 473 l 1
 315 457 l 1
 373 462 l 1
 384 487 l 1
 430 506 l 1
 476 487 l 1
 495 441 l 1
 476 395 l 1
 430 376 l 1
 384 395 l 1
 377 412 l 1
 319 407 l 1
 308 381 l 1
 295 375 l 1
 304 194 l 1
 338 183 l 1
 339 185 l 1
 385 204 l 1
 431 185 l 1
 450 139 l 1
 431 93 l 1
 461 81 l 1
 480 35 l 1
359 57 m 1
 369 81 l 1
 339 93 l 1
 322 134 l 1
 307 139 l 1
 311 54 l 1
 359 57 l 1
243 216 m 1
 238 302 l 1
 206 228 l 1
 243 216 l 1
EndSplineSet
EndChar

StartChar: oslash.1
Encoding: 65638 -1 233
Width: 372
VWidth: 0
Flags: W
HStem: 468 20G<154 246>
VStem: 259 60<56.375 242.052> 282 58<453 468.805>
LayerCount: 2
Fore
SplineSet
165 15 m 1xc0
 173 13 182 13 191 15 c 0
 241 25 259 100 259 190 c 0
 259 210 259 230 260 246 c 1
 165 15 l 1xc0
162 -71 m 1
 143 -117 l 1
 97 -136 l 1
 51 -117 l 1
 32 -71 l 1
 51 -25 l 1
 92 -8 l 1
 93 -5 l 1
 37 43 15 135 43 228 c 0
 62 293 95 353 142 405 c 1
 135 423 l 1
 154 469 l 1
 200 488 l 1
 246 469 l 1
 265 423 l 1
 246 377 l 1
 200 358 l 1
 182 365 l 1
 145 321 118 270 101 216 c 0
 82 151 93 90 117 53 c 1
 282 453 l 2
 284 459 293 471 312 470 c 0
 324 469 343 460 340 441 c 0xa0
 326 359 319 276 319 190 c 0
 319 110 313 -12 204 -33 c 0
 185 -37 166 -37 146 -32 c 1
 162 -71 l 1
EndSplineSet
EndChar

StartChar: dotlessi.1
Encoding: 65639 -1 234
Width: 192
VWidth: 0
Flags: W
HStem: 465 20G<50 142>
VStem: 66 60<54 367>
LayerCount: 2
Fore
SplineSet
161 420 m 1
 142 374 l 1
 126 367 l 1
 126 140 l 2
 126 112 126 82 126 53 c 1
 141 47 l 1
 160 1 l 1
 141 -45 l 1
 95 -64 l 1
 49 -45 l 1
 30 1 l 1
 49 47 l 1
 66 54 l 1
 66 83 66 112 66 140 c 2
 66 367 l 1
 50 374 l 1
 31 420 l 1
 50 466 l 1
 96 485 l 1
 142 466 l 1
 161 420 l 1
EndSplineSet
EndChar

StartChar: OE.1
Encoding: 65640 -1 235
Width: 552
VWidth: 0
Flags: W
VStem: 216 61<365 484.471>
LayerCount: 2
Fore
SplineSet
461 312 m 1
 442 266 l 1
 396 247 l 1
 350 266 l 1
 336 300 l 1
 274 314 l 1
 263 98 l 1
 416 25 l 1
 456 42 l 1
 502 22 l 1
 521 -23 l 1
 502 -69 l 1
 456 -88 l 1
 410 -69 l 1
 391 -23 l 1
 392 -21 l 1
 224 59 l 1
 119 64 60 162 41 252 c 0
 4 428 67 610 206 727 c 1
 201 739 l 1
 220 785 l 1
 266 804 l 1
 312 785 l 1
 329 743 l 1
 385 722 l 1
 385 723 l 1
 431 742 l 1
 477 723 l 1
 496 677 l 1
 477 631 l 1
 431 612 l 1
 385 631 l 1
 368 673 l 1
 312 694 l 1
 312 693 l 1
 293 685 l 1
 277 365 l 1
 346 349 l 1
 350 358 l 1
 396 377 l 1
 442 358 l 1
 461 312 l 1
216 349 m 2
 233 678 l 1
 121 573 69 415 101 261 c 0
 117 186 157 130 204 114 c 1
 216 345 l 2
 216 346 216 348 216 349 c 2
EndSplineSet
EndChar

StartChar: oe.1
Encoding: 65641 -1 236
Width: 618
VWidth: 0
Flags: W
HStem: -7 50<207.895 322> 179 49<378 466> 457 50<201.495 282> 479 20G<458 550>
VStem: 311 60<228 424> 317 60<50 179 228 278>
LayerCount: 2
Fore
SplineSet
587 212 m 1xd4
 568 166 l 1
 522 147 l 1
 476 166 l 1
 469 184 l 1
 378 179 l 1
 382 50 l 1
 460 67 l 1
 474 101 l 1
 520 120 l 1
 566 101 l 1
 585 55 l 1
 566 9 l 1
 520 -10 l 1
 474 9 l 1
 470 18 l 1
 365 -5 l 2
 363 -6 360 -7 357 -7 c 0
 356 -7 l 0
 354 -7 353 -7 351 -7 c 0
 279 -7 193 -2 127 51 c 0
 -12 164 11 350 124 446 c 0
 166 481 221 506 286 507 c 1xe4
 293 523 l 1
 339 542 l 1
 385 523 l 1
 400 488 l 1
 455 473 l 1
 458 480 l 1
 504 499 l 1
 550 480 l 1
 569 434 l 1
 550 389 l 1
 504 369 l 1
 458 389 l 1
 443 424 l 1
 388 438 l 1
 385 431 l 1
 371 425 l 1xd8
 377 228 l 1
 466 234 l 1
 476 258 l 1
 522 277 l 1
 568 258 l 1
 587 212 l 1xd4
317 205 m 2
 311 424 l 1xe8
 293 431 l 1
 282 457 l 1
 236 455 198 438 167 411 c 0
 75 333 57 178 169 87 c 0
 210 54 264 45 322 43 c 1
 317 197 l 2
 317 198 317 199 317 200 c 0
 317 202 317 203 317 205 c 2
EndSplineSet
EndChar

StartChar: uni0237.1
Encoding: 65642 -1 237
Width: 319
VWidth: 0
Flags: W
HStem: 467 20G<177 269>
VStem: 194 60<7 369> 200 61<7 369>
LayerCount: 2
Fore
SplineSet
288 422 m 1xc0
 269 376 l 1
 254 370 l 1xc0
 261 -41 l 2
 261 -60 241 -68 229 -67 c 0
 224 -67 219 -65 214 -62 c 2
 129 -12 l 1
 95 -26 l 1
 49 -7 l 1
 30 39 l 1
 49 85 l 1
 95 104 l 1
 141 85 l 1
 160 39 l 1
 157 32 l 1
 200 7 l 1xa0
 194 369 l 1
 177 376 l 1
 158 422 l 1
 177 468 l 1
 223 487 l 1
 269 468 l 1
 288 422 l 1xc0
EndSplineSet
EndChar

StartChar: circumflex.1
Encoding: 65643 -1 238
Width: 405
VWidth: 0
Flags: W
HStem: 516 4G<52 144 262 354>
LayerCount: 2
Fore
SplineSet
373 560 m 1
 354 514 l 1
 308 495 l 1
 262 514 l 1
 243 560 l 1
 248 572 l 1
 173 628 l 1
 154 607 l 1
 163 585 l 1
 144 539 l 1
 98 520 l 1
 52 539 l 1
 33 585 l 1
 52 631 l 1
 98 650 l 1
 113 644 l 1
 144 680 l 2
 157 695 179 690 188 684 c 1
 189 684 l 1
 282 614 l 1
 308 625 l 1
 354 606 l 1
 373 560 l 1
EndSplineSet
EndChar

StartChar: caron.1
Encoding: 65644 -1 239
Width: 349
VWidth: 0
Flags: W
VStem: 33 283
LayerCount: 2
Fore
SplineSet
316 642 m 1
 297 596 l 1
 251 577 l 1
 234 584 l 1
 194 543 l 2
 186 536 164 531 150 545 c 2
 116 579 l 1
 98 572 l 1
 52 591 l 1
 33 637 l 1
 52 683 l 1
 98 702 l 1
 144 683 l 1
 163 637 l 1
 155 619 l 1
 173 601 l 1
 194 623 l 1
 186 642 l 1
 205 688 l 1
 251 707 l 1
 297 688 l 1
 316 642 l 1
EndSplineSet
EndChar

StartChar: breve.1
Encoding: 65645 -1 240
Width: 348
VWidth: 0
Flags: W
HStem: 539 244 744 20G<51 143>
VStem: 32 284
LayerCount: 2
Fore
SplineSet
162 699 m 1x60
 143 653 l 1
 121 643 l 1
 132 595 184 572 221 598 c 0
 239 610 248 632 248 654 c 1
 205 672 l 1
 186 718 l 1
 205 764 l 1x60
 251 783 l 1xa0
 297 764 l 1x60
 316 718 l 1
 303 688 l 1
 318 642 302 590 260 560 c 0
 246 550 228 542 204 539 c 0xa0
 130 530 71 581 61 640 c 0
 60 643 60 646 60 649 c 1
 51 653 l 1
 32 699 l 1
 51 744 l 1
 97 764 l 1
 143 744 l 1
 162 699 l 1x60
EndSplineSet
EndChar

StartChar: dotaccent.1
Encoding: 65646 -1 241
Width: 197
VWidth: 0
Flags: W
HStem: 582 130
VStem: 33 130
LayerCount: 2
Fore
SplineSet
163 647 m 1
 144 601 l 1
 98 582 l 1
 52 601 l 1
 33 647 l 1
 52 692 l 1
 98 712 l 1
 144 692 l 1
 163 647 l 1
EndSplineSet
EndChar

StartChar: ring.1
Encoding: 65647 -1 242
Width: 203
VWidth: 0
Flags: W
HStem: 437 218
VStem: 74 58<437.521 522.201> 108 61<560.301 604.53>
LayerCount: 2
Fore
SplineSet
108 605 m 1xa0
 97 605 l 1
 95 601 97 581 103 559 c 1
 110 585 110 602 108 605 c 1xa0
132 456 m 2xc0
 131 453 130 451 128 449 c 0
 123 442 114 435 101 437 c 0
 92 437 81 442 76 451 c 0
 75 453 74 454 74 456 c 1
 74 457 l 0xc0
 71 469 66 482 61 498 c 0
 47 540 11 606 57 641 c 0
 68 649 82 655 103 655 c 0
 117 655 135 652 149 641 c 0
 165 629 169 612 169 595 c 0xa0
 169 555 144 499 132 457 c 0
 132 456 l 2xc0
EndSplineSet
EndChar

StartChar: tilde.1
Encoding: 65648 -1 243
Width: 507
VWidth: 0
Flags: W
HStem: 474 21G<51 143> 531 50<276.542 358.992>
LayerCount: 2
Fore
SplineSet
474 617 m 1
 455 571 l 1
 417 555 l 1
 402 539 381 531 354 531 c 0
 255 531 180 583 146 577 c 1
 162 539 l 1
 143 493 l 1
 97 474 l 1
 51 493 l 1
 32 539 l 1
 51 585 l 1
 87 600 l 1
 147 663 322 581 354 581 c 0
 356 581 357 581 359 581 c 1
 344 617 l 1
 363 663 l 1
 409 682 l 1
 455 663 l 1
 474 617 l 1
EndSplineSet
EndChar

StartChar: hungarumlaut.1
Encoding: 65649 -1 244
Width: 359
VWidth: 0
Flags: W
HStem: 763 20G<211 303>
VStem: 30 299
LayerCount: 2
Fore
SplineSet
322 718 m 1
 303 672 l 1
 294 668 l 1
 329 418 l 1
 329 412 l 1
 328 402 315 387 293 391 c 2
 54 432 l 2
 42 434 27 445 30 461 c 2
 67 633 l 1
 62 635 l 1
 43 681 l 1
 62 727 l 1
 108 746 l 1
 154 727 l 1
 173 681 l 1
 154 635 l 1
 126 623 l 1
 95 476 l 1
 264 447 l 1
 234 662 l 1
 211 672 l 1
 192 718 l 1
 211 764 l 1
 257 783 l 1
 303 764 l 1
 322 718 l 1
EndSplineSet
EndChar

StartChar: Gamma.1
Encoding: 65650 -1 245
Width: 340
VWidth: 0
Flags: W
VStem: 39 60<412.5 551> 63 60<49 195.417>
LayerCount: 2
Fore
SplineSet
309 660 m 1x80
 290 614 l 1
 244 595 l 1
 208 610 l 1
 99 551 l 1x80
 123 49 l 1
 141 41 l 1
 160 -5 l 1
 141 -51 l 1
 95 -70 l 1
 49 -51 l 1
 30 -5 l 1
 49 41 l 1
 63 47 l 1x40
 39 563 l 2
 38 574 47 582 52 585 c 2
 181 655 l 1
 179 660 l 1
 198 706 l 1
 244 725 l 1
 290 706 l 1
 309 660 l 1x80
EndSplineSet
EndChar

StartChar: Delta.1
Encoding: 65651 -1 246
Width: 466
VWidth: 0
Flags: W
LayerCount: 2
Fore
SplineSet
135 -48 m 1
 138 -49 l 1
 213 -11 347 66 375 88 c 1
 383 138 322 446 273 599 c 1
 135 -48 l 1
76 -39 m 1
 233 696 l 2
 238 718 267 720 279 712 c 0
 347 673 467 119 428 63 c 0
 408 34 247 -55 160 -97 c 1
 141 -142 l 1
 95 -161 l 1
 49 -142 l 1
 30 -96 l 1
 49 -50 l 1
 76 -39 l 1
EndSplineSet
EndChar

StartChar: Theta.1
Encoding: 65652 -1 247
Width: 463
VWidth: 0
Flags: W
HStem: -19 50<158.865 291.423> 350 50<155 261> 752 20G<159 251>
LayerCount: 2
Fore
SplineSet
261 401 m 1
 270 422 l 1
 316 441 l 1
 336 433 l 1
 299 534 275 580 219 648 c 1
 205 642 l 1
 168 566 147 507 126 429 c 1
 146 421 l 1
 155 400 l 1
 261 401 l 1
261 351 m 1
 155 350 l 1
 146 329 l 1
 100 310 l 1
 98 311 l 1
 75 162 116 42 209 31 c 0
 226 29 241 30 253 33 c 0
 333 53 387 180 363 332 c 1
 362 330 l 1
 316 311 l 1
 270 330 l 1
 261 351 l 1
63 425 m 1
 88 520 110 580 155 672 c 1
 140 707 l 1
 159 753 l 1
 205 772 l 1
 251 753 l 1
 270 707 l 1
 261 685 l 1
 327 606 357 551 397 438 c 0
 465 246 428 24 270 -15 c 0
 249 -20 226 -22 200 -19 c 0
 34 3 12 196 45 352 c 1
 35 375 l 1
 54 421 l 1
 63 425 l 1
EndSplineSet
EndChar

StartChar: Lambda.1
Encoding: 65653 -1 248
Width: 421
VWidth: 0
Flags: W
LayerCount: 2
Fore
SplineSet
390 56 m 1
 371 10 l 1
 325 -9 l 1
 279 10 l 1
 260 56 l 1
 279 102 l 1
 286 105 l 1
 227 474 l 1
 136 25 l 1
 141 23 l 1
 160 -23 l 1
 141 -68 l 1
 95 -88 l 1
 49 -68 l 1
 30 -23 l 1
 49 23 l 1
 76 34 l 1
 201 644 l 2
 205 663 227 666 238 664 c 0
 255 660 259 647 260 643 c 2
 346 112 l 1
 371 102 l 1
 390 56 l 1
EndSplineSet
EndChar

StartChar: Xi.1
Encoding: 65654 -1 249
Width: 479
VWidth: 0
Flags: W
HStem: 693 50<251 328> 763 20G<150 242 337 429>
LayerCount: 2
Fore
SplineSet
396 38 m 1
 377 -7 l 1
 331 -27 l 1
 285 -7 l 1
 283 -3 l 1
 157 -42 l 1
 141 -81 l 1
 95 -100 l 1
 49 -81 l 1
 30 -35 l 1
 49 11 l 1
 95 30 l 1
 141 11 l 1
 143 7 l 1
 269 46 l 1
 285 84 l 1
 331 103 l 1
 377 84 l 1
 396 38 l 1
407 359 m 1
 388 313 l 1
 342 294 l 1
 296 313 l 1
 282 346 l 1
 181 367 l 1
 177 358 l 1
 131 339 l 1
 85 358 l 1
 66 404 l 1
 85 450 l 1
 131 469 l 1
 177 450 l 1
 191 417 l 1
 292 395 l 1
 296 405 l 1
 342 424 l 1
 388 405 l 1
 407 359 l 1
448 717 m 1
 429 671 l 1
 383 652 l 1
 337 671 l 1
 328 692 l 1
 251 693 l 1
 242 672 l 1
 196 653 l 1
 150 672 l 1
 131 718 l 1
 150 764 l 1
 196 783 l 1
 242 764 l 1
 251 743 l 1
 328 742 l 1
 337 763 l 1
 383 782 l 1
 429 763 l 1
 448 717 l 1
EndSplineSet
EndChar

StartChar: Pi.1
Encoding: 65655 -1 250
Width: 467
VWidth: 0
Flags: W
HStem: 672 49<126 293.8> 680 51<180.2 349>
VStem: 65 60<57 672> 342 60<39 622.5> 349 61<121.5 680>
LayerCount: 2
Fore
SplineSet
436 -14 m 1x70
 417 -60 l 1
 371 -79 l 1
 325 -60 l 1
 306 -14 l 1
 325 32 l 1
 342 39 l 1x70
 349 680 l 1x68
 126 672 l 1
 125 57 l 1
 141 50 l 1
 160 4 l 1
 141 -42 l 1
 95 -61 l 1
 49 -42 l 1
 30 4 l 1
 49 50 l 1
 65 57 l 1
 66 696 l 2
 66 712 83 721 95 721 c 2xa8
 379 731 l 2
 402 732 410 715 410 706 c 2x68
 402 38 l 1
 417 32 l 1
 436 -14 l 1x70
EndSplineSet
EndChar

StartChar: Sigma.1
Encoding: 65656 -1 251
Width: 475
VWidth: 0
Flags: W
HStem: 3 51<137 258>
LayerCount: 2
Fore
SplineSet
378 31 m 1
 358 -15 l 1
 313 -34 l 1
 267 -15 l 1
 259 5 l 1
 100 3 l 2
 99 3 98 4 96 4 c 0
 84 5 65 16 70 34 c 2
 146 323 l 1
 97 432 58 550 31 671 c 0
 31 673 30 675 30 677 c 0
 31 687 42 702 64 700 c 2
 327 672 l 1
 333 687 l 1
 379 706 l 1
 425 687 l 1
 444 641 l 1
 425 595 l 1
 379 576 l 1
 333 595 l 1
 322 622 l 1
 98 646 l 1
 125 537 160 434 205 334 c 0
 208 328 208 323 207 320 c 2
 137 54 l 1
 258 55 l 1
 267 77 l 1
 313 96 l 1
 358 77 l 1
 378 31 l 1
EndSplineSet
EndChar

StartChar: Upsilon.1
Encoding: 65657 -1 252
Width: 631
VWidth: 0
Flags: W
HStem: 492 21G<89 181 416 508>
VStem: 265 60<56 238.273> 276 60<160.364 488.738>
LayerCount: 2
Fore
SplineSet
358 3 m 1xc0
 339 -43 l 1
 293 -62 l 1
 247 -43 l 1
 228 3 l 1
 247 49 l 1
 265 56 l 1xc0
 276 343 l 2
 276 344 l 0
 276 345 276 345 276 346 c 0
 277 406 226 650 194 686 c 0
 166 718 147 714 130 704 c 0
 99 685 83 636 100 607 c 1
 135 622 l 1
 181 603 l 1
 200 557 l 1
 181 511 l 1
 135 492 l 1
 89 511 l 1
 70 557 l 1
 70 558 l 1
 64 562 59 567 55 572 c 0
 5 629 40 712 95 745 c 0
 140 773 201 764 243 715 c 0
 265 689 286 630 302 566 c 1
 314 630 330 690 349 717 c 0
 393 779 457 797 512 770 c 0
 582 735 627 633 578 565 c 0
 565 548 546 534 521 525 c 1
 508 494 l 1
 462 475 l 1
 416 494 l 1
 397 540 l 1
 416 586 l 1
 462 605 l 1
 508 586 l 1
 512 577 l 1
 519 581 523 586 527 591 c 0
 555 629 524 706 481 727 c 0
 461 737 435 740 400 691 c 0
 372 651 338 401 336 343 c 2xa0
 325 55 l 1
 339 49 l 1
 358 3 l 1xc0
EndSplineSet
EndChar

StartChar: Phi.1
Encoding: 65658 -1 253
Width: 377
VWidth: 0
Flags: W
HStem: 110 50<132.034 196> 471 20G<82 174> 759 20G<171 263>
VStem: 196 59<27 110 194 362 452 563>
LayerCount: 2
Fore
SplineSet
294 -26 m 1
 275 -72 l 1
 229 -91 l 1
 183 -72 l 1
 164 -26 l 1
 183 20 l 1
 198 26 l 1
 197 110 l 1
 187 109 176 110 164 112 c 0
 60 127 16 230 36 322 c 0
 44 355 55 381 72 405 c 1
 63 426 l 1
 82 472 l 1
 128 491 l 1
 174 472 l 1
 182 454 l 1
 185 454 188 453 191 452 c 1
 188 661 l 1
 171 668 l 1
 152 714 l 1
 171 760 l 1
 217 779 l 1
 263 760 l 1
 282 714 l 1
 263 668 l 1
 248 662 l 1
 252 431 l 1
 287 412 315 382 331 344 c 0
 366 261 334 164 257 126 c 1
 258 27 l 1
 275 20 l 1
 294 -26 l 1
115 366 m 1
 106 350 99 333 95 314 c 0
 78 233 120 169 174 161 c 0
 182 160 189 159 196 160 c 1
 192 400 l 1
 189 401 186 401 183 402 c 1
 174 380 l 1
 128 361 l 1
 115 366 l 1
253 362 m 1
 255 194 l 1
 282 226 295 277 274 327 c 0
 268 340 261 352 253 362 c 1
EndSplineSet
EndChar

StartChar: Psi.1
Encoding: 65659 -1 254
Width: 476
VWidth: 0
Flags: W
HStem: 102 50<149.884 217>
VStem: 69 60<171.914 404.243> 211 60<163 625> 218 60<71 102 163 625>
LayerCount: 2
Fore
SplineSet
445 567 m 1xe0
 426 521 l 1
 387 505 l 1
 372 393 429 156 278 110 c 1
 278 71 l 1
 295 64 l 1
 314 18 l 1
 295 -28 l 1
 249 -47 l 1
 203 -28 l 1
 184 18 l 1
 203 64 l 1
 218 70 l 1
 218 102 l 1xd0
 103 103 69 173 69 248 c 0
 69 334 96 433 90 495 c 1
 49 512 l 1
 30 558 l 1
 49 604 l 1
 95 623 l 1
 141 604 l 1
 160 558 l 1
 147 527 l 1
 174 445 129 324 129 248 c 0
 129 183 145 153 217 152 c 1
 211 625 l 1
 194 632 l 1
 175 678 l 1
 194 724 l 1
 240 743 l 1
 286 724 l 1
 305 678 l 1
 286 632 l 1
 271 626 l 1
 277 163 l 1
 372 210 265 403 327 538 c 1
 315 567 l 1
 334 613 l 1
 380 632 l 1
 426 613 l 1
 445 567 l 1xe0
EndSplineSet
EndChar

StartChar: Omega.1
Encoding: 65660 -1 255
Width: 453
VWidth: 0
Flags: W
HStem: 652 50<164.342 276.704>
VStem: 44 60<324.125 578.974>
LayerCount: 2
Fore
SplineSet
422 94 m 1
 403 48 l 1
 357 29 l 1
 335 38 l 1
 271 -19 l 2
 260 -30 219 -31 219 -2 c 0
 219 199 371 366 329 542 c 0
 314 605 272 650 226 652 c 0
 164 655 110 592 103 487 c 0
 102 469 102 451 104 430 c 0
 122 265 217 105 217 -79 c 1
 217 -79 218 -88 210 -96 c 0
 202 -103 182 -110 166 -97 c 2
 119 -57 l 1
 95 -67 l 1
 49 -48 l 1
 30 -2 l 1
 49 44 l 1
 95 63 l 1
 141 44 l 1
 145 35 l 1
 119 162 59 288 44 425 c 0
 41 449 42 470 43 490 c 0
 51 598 110 708 230 702 c 0
 321 697 371 621 388 552 c 0
 431 376 314 218 286 67 c 1
 299 78 l 1
 292 94 l 1
 311 140 l 1
 357 159 l 1
 403 140 l 1
 422 94 l 1
EndSplineSet
EndChar

StartChar: endash.1
Encoding: 65661 -1 256
Width: 424
VWidth: 0
Flags: W
HStem: 235 184
LayerCount: 2
Fore
SplineSet
390 300 m 1
 371 254 l 1
 325 235 l 1
 279 254 l 1
 265 288 l 1
 148 316 l 1
 145 308 l 1
 99 289 l 1
 53 308 l 1
 34 354 l 1
 53 400 l 1
 99 419 l 1
 145 400 l 1
 159 366 l 1
 276 338 l 1
 279 346 l 1
 325 365 l 1
 371 346 l 1
 390 300 l 1
EndSplineSet
EndChar

StartChar: emdash.1
Encoding: 65662 -1 257
Width: 633
VWidth: 0
Flags: W
HStem: 211 183
LayerCount: 2
Fore
SplineSet
598 276 m 1
 579 230 l 1
 533 211 l 1
 487 230 l 1
 476 257 l 1
 152 297 l 1
 146 283 l 1
 100 264 l 1
 54 283 l 1
 35 329 l 1
 54 375 l 1
 100 394 l 1
 146 375 l 1
 157 347 l 1
 481 308 l 1
 487 322 l 1
 533 341 l 1
 579 322 l 1
 598 276 l 1
EndSplineSet
EndChar

StartChar: quoteleft.1
Encoding: 65663 -1 258
Width: 217
VWidth: 0
Flags: W
HStem: 750 20G<68 160>
VStem: 33 153
LayerCount: 2
Fore
SplineSet
186 480 m 1
 167 434 l 1
 121 415 l 1
 75 434 l 1
 56 480 l 1
 70 515 l 1
 33 588 l 2
 31 592 29 600 33 608 c 2
 64 669 l 1
 49 705 l 1
 68 751 l 1
 114 770 l 1
 160 751 l 1
 179 705 l 1
 160 659 l 1
 114 640 l 1
 93 598 l 1
 120 545 l 1
 121 545 l 1
 167 526 l 1
 186 480 l 1
EndSplineSet
EndChar

StartChar: quoteright.1
Encoding: 65664 -1 259
Width: 238
VWidth: 0
Flags: W
LayerCount: 2
Fore
SplineSet
160 472 m 1
 141 426 l 1
 95 407 l 1
 49 426 l 1
 30 472 l 1
 49 518 l 1
 95 537 l 1
 101 534 l 1
 142 599 l 1
 119 632 l 1
 111 629 l 1
 65 648 l 1
 46 694 l 1
 65 740 l 1
 111 759 l 1
 157 740 l 1
 176 694 l 1
 165 666 l 1
 203 612 l 2
 209 603 207 594 203 588 c 2
 148 502 l 1
 160 472 l 1
EndSplineSet
EndChar

StartChar: quotedblleft.1
Encoding: 65665 -1 260
Width: 327
VWidth: 0
Flags: W
VStem: 31 266
LayerCount: 2
Fore
SplineSet
279 687 m 1
 260 641 l 1
 255 639 l 1
 297 432 l 2
 304 400 254 397 243 413 c 1
 109 571 l 1
 96 566 l 1
 50 585 l 1
 31 631 l 1
 50 676 l 1
 96 696 l 1
 142 676 l 1
 161 631 l 1
 152 608 l 1
 215 532 l 1
 196 630 l 1
 168 641 l 1
 149 687 l 1
 168 733 l 1
 214 752 l 1
 260 733 l 1
 279 687 l 1
EndSplineSet
EndChar

StartChar: quotedblright.1
Encoding: 65666 -1 261
Width: 333
VWidth: 0
Flags: W
VStem: 31 272
LayerCount: 2
Fore
SplineSet
303 689 m 1
 284 643 l 1
 238 624 l 1
 230 627 l 1
 86 418 l 2
 83 414 73 404 56 406 c 0
 44 407 26 418 31 436 c 2
 89 646 l 1
 87 647 l 1
 68 693 l 1
 87 739 l 1
 133 758 l 1
 179 739 l 1
 186 721 l 1
 192 735 l 1
 238 754 l 1
 284 735 l 1
 303 689 l 1
172 644 m 1
 147 634 l 1
 135 590 l 1
 172 644 l 1
EndSplineSet
EndChar

StartChar: exclam.2
Encoding: 65667 -1 262
Width: 211
VWidth: 0
Flags: W
HStem: 771 20G<47 139>
VStem: 70 60<278 673>
LayerCount: 2
Fore
SplineSet
166 225 m 1
 147 179 l 1
 101 160 l 1
 55 179 l 1
 36 225 l 1
 55 271 l 1
 70 277 l 1
 64 673 l 1
 47 680 l 1
 28 726 l 1
 47 772 l 1
 93 791 l 1
 139 772 l 1
 158 726 l 1
 139 680 l 1
 124 674 l 1
 130 278 l 1
 147 271 l 1
 166 225 l 1
183 -20 m 1
 164 -66 l 1
 118 -85 l 1
 72 -66 l 1
 53 -20 l 1
 72 26 l 1
 118 45 l 1
 164 26 l 1
 183 -20 l 1
EndSplineSet
EndChar

StartChar: quotedbl.2
Encoding: 65668 -1 263
Width: 363
VWidth: 0
Flags: W
HStem: 771 20G<222 314>
VStem: 30 303
LayerCount: 2
Fore
SplineSet
286 393 m 1
 267 347 l 1
 221 328 l 1
 175 347 l 1
 156 393 l 1
 175 439 l 1
 199 449 l 1
 231 676 l 1
 222 680 l 1
 203 726 l 1
 222 772 l 1
 268 791 l 1
 314 772 l 1
 333 726 l 1
 314 680 l 1
 291 670 l 1
 258 443 l 1
 267 439 l 1
 286 393 l 1
160 483 m 1
 141 437 l 1
 95 418 l 1
 49 437 l 1
 30 483 l 1
 49 529 l 1
 87 545 l 1
 111 607 l 1
 94 649 l 1
 113 695 l 1
 159 714 l 1
 205 695 l 1
 224 649 l 1
 205 603 l 1
 167 587 l 1
 143 524 l 1
 160 483 l 1
EndSplineSet
EndChar

StartChar: numbersign.2
Encoding: 65669 -1 264
Width: 546
VWidth: 0
Flags: W
HStem: 216 51<230 287 354 361> 439 49<277 315> 516 20G<92 184 407 499> 746 20G<333 425>
LayerCount: 2
Fore
SplineSet
482 249 m 1
 463 203 l 1
 417 184 l 1
 371 203 l 1
 363 222 l 1
 348 221 l 1
 317 -19 l 2
 315 -38 294 -43 282 -41 c 0
 280 -41 278 -40 277 -40 c 2
 197 -16 l 1
 195 -20 l 1
 149 -39 l 1
 103 -20 l 1
 84 26 l 1
 103 72 l 1
 130 83 l 1
 158 214 l 1
 149 213 l 1
 139 190 l 1
 93 171 l 1
 47 190 l 1
 28 236 l 1
 47 282 l 1
 93 301 l 1
 139 282 l 1
 147 263 l 1
 168 264 l 1
 206 442 l 1
 191 443 l 1
 184 425 l 1
 138 406 l 1
 92 425 l 1
 73 471 l 1
 92 517 l 1
 138 536 l 1
 184 517 l 1
 194 493 l 1
 216 492 l 1
 262 708 l 2
 264 717 275 730 293 729 c 2
 325 728 l 1
 333 747 l 1
 379 766 l 1
 425 747 l 1
 444 701 l 1
 425 655 l 1
 402 646 l 1
 381 482 l 1
 400 481 l 1
 407 499 l 1
 453 518 l 1
 499 499 l 1
 518 453 l 1
 499 407 l 1
 453 388 l 1
 407 407 l 1
 397 431 l 1
 375 432 l 1
 354 272 l 1
 361 272 l 1
 371 295 l 1
 417 314 l 1
 463 295 l 1
 482 249 l 1
287 219 m 1
 219 216 l 1
 189 74 l 1
 195 72 l 1
 211 33 l 1
 262 18 l 1
 287 219 l 1
294 269 m 1
 315 436 l 1
 266 439 l 1
 230 267 l 1
 294 269 l 1
321 486 m 1
 342 651 l 1
 333 655 l 1
 324 678 l 1
 317 678 l 1
 277 488 l 1
 321 486 l 1
EndSplineSet
EndChar

StartChar: dollar.2
Encoding: 65670 -1 265
Width: 411
VWidth: 0
Flags: W
VStem: 174 60<398 630> 183 61<150.889 281 334.734 342.786 398 549.4> 192 60<17 248> 302 60<538 600.032>
LayerCount: 2
Fore
SplineSet
266 733 m 1x50
 247 687 l 1
 242 685 l 1
 310 671 356 614 362 553 c 0
 363 544 362 535 361 525 c 1
 362 525 l 1
 381 479 l 1
 362 433 l 1
 316 414 l 1
 270 433 l 1
 251 479 l 1
 270 525 l 1
 302 538 l 1
 303 582 273 622 234 634 c 1x90
 242 352 l 1
 303 307 368 255 381 164 c 0
 394 68 334 -31 226 -41 c 0
 193 -44 164 -38 140 -27 c 0
 66 5 28 82 45 156 c 1
 28 197 l 1
 47 243 l 1
 93 262 l 1
 139 243 l 1
 158 197 l 1
 139 151 l 1
 101 135 l 1
 95 85 124 36 168 17 c 0
 176 14 184 11 192 10 c 1x30
 183 327 l 1
 133 364 84 403 62 465 c 0
 32 552 70 655 166 682 c 1
 155 687 l 1
 136 733 l 1
 155 779 l 1
 201 798 l 1
 247 779 l 1
 266 733 l 1x50
244 281 m 1x50
 252 17 l 1x30
 309 43 340 121 311 196 c 0
 297 230 272 257 244 281 c 1x50
181 398 m 1
 174 630 l 1x90
 127 609 96 545 119 479 c 0
 130 447 153 421 181 398 c 1
EndSplineSet
EndChar

StartChar: percent.2
Encoding: 65671 -1 266
Width: 532
VWidth: 0
Flags: W
HStem: 301 50<98.3574 157.644>
LayerCount: 2
Fore
SplineSet
179 -97 m 1
 160 -143 l 1
 114 -162 l 1
 69 -143 l 1
 49 -97 l 1
 69 -51 l 1
 106 -35 l 1
 378 692 l 1
 319 666 250 666 190 695 c 0
 179 700 168 707 158 714 c 1
 157 708 157 703 156 697 c 1
 158 653 169 616 186 581 c 0
 232 481 263 338 162 306 c 0
 152 303 139 300 125 301 c 0
 47 304 26 373 29 434 c 0
 31 468 40 506 56 545 c 0
 75 592 88 641 96 698 c 1
 95 709 96 721 96 731 c 1
 85 735 l 1
 66 781 l 1
 85 827 l 1
 131 846 l 1
 177 827 l 1
 196 781 l 1
 187 760 l 1
 197 751 209 744 220 738 c 0
 285 707 367 722 414 788 c 0
 416 791 418 794 421 796 c 0
 422 797 424 798 425 799 c 0
 432 803 441 806 451 803 c 0
 460 801 466 796 469 790 c 0
 472 785 474 780 472 774 c 0
 472 773 471 772 471 771 c 2
 162 -55 l 1
 179 -97 l 1
391 273 m 1
 371 228 355 183 345 138 c 0
 334 92 339 50 352 21 c 0
 370 -20 392 -27 411 -21 c 0
 446 -11 452 53 426 131 c 0
 410 179 399 226 391 273 c 1
473 369 m 1
 454 323 l 1
 444 319 l 1
 452 261 465 202 484 144 c 0
 507 75 530 -38 432 -68 c 0
 368 -87 318 -46 296 4 c 0
 279 43 274 93 287 147 c 0
 302 211 325 275 357 336 c 1
 343 369 l 1
 362 415 l 1
 408 434 l 1
 454 415 l 1
 473 369 l 1
127 569 m 1
 122 554 117 541 112 529 c 0
 98 494 91 461 89 432 c 0
 86 372 107 352 128 351 c 0
 135 351 138 352 141 353 c 0
 172 362 180 463 127 569 c 1
EndSplineSet
EndChar

StartChar: ampersand.2
Encoding: 65672 -1 267
Width: 461
VWidth: 0
Flags: W
HStem: 459 20G<321 413> 459 20G<321 413> 675 49<91 278> 681 50<91 278> 753 20G<288 379>
LayerCount: 2
Fore
SplineSet
422 18 m 1x98
 403 -28 l 1
 357 -47 l 1
 311 -28 l 1
 292 18 l 1
 309 59 l 1
 252 197 l 1
 122 9 l 2
 120 6 114 -2 100 -3 c 0
 88 -4 67 1 66 20 c 2
 48 354 l 2
 47 357 47 361 48 364 c 2
 30 698 l 2
 30 704 36 723 59 724 c 2xa8
 278 731 l 1
 288 754 l 1
 333 773 l 1
 379 754 l 1
 398 708 l 1
 379 662 l 1
 333 643 l 1
 324 647 l 1
 108 353 l 1
 121 109 l 1
 230 266 l 2
 231 268 233 271 235 273 c 2
 313 386 l 1
 302 414 l 1
 321 460 l 1
 367 479 l 1
 413 460 l 1
 432 414 l 1
 413 368 l 1
 367 349 l 1
 359 352 l 1
 291 254 l 1
 364 80 l 1
 403 64 l 1
 422 18 l 1x98
103 443 m 1
 279 681 l 1x18
 91 675 l 1
 103 443 l 1
EndSplineSet
EndChar

StartChar: quotesingle.2
Encoding: 65673 -1 268
Width: 201
VWidth: 0
Flags: W
HStem: 745 20G<59 151>
VStem: 30 140
LayerCount: 2
Fore
SplineSet
160 473 m 1
 141 427 l 1
 95 408 l 1
 49 427 l 1
 30 473 l 1
 49 519 l 1
 95 538 l 1
 104 569 106 604 98 638 c 1
 59 654 l 1
 40 700 l 1
 59 746 l 1
 105 765 l 1
 151 746 l 1
 170 700 l 1
 154 660 l 1
 169 607 164 553 146 507 c 1
 160 473 l 1
EndSplineSet
EndChar

StartChar: parenleft.2
Encoding: 65674 -1 269
Width: 282
VWidth: 0
Flags: W
HStem: 756 20G<143 235>
VStem: 29 60<188.995 495.027>
LayerCount: 2
Fore
SplineSet
245 -16 m 1
 226 -62 l 1
 180 -81 l 1
 134 -62 l 1
 115 -16 l 1
 126 12 l 1
 60 114 26 233 29 357 c 0
 32 473 69 587 135 685 c 1
 124 711 l 1
 143 757 l 1
 189 776 l 1
 235 757 l 1
 254 711 l 1
 235 665 l 1
 189 646 l 1
 180 650 l 1
 123 562 92 460 89 356 c 0
 86 245 116 138 172 46 c 1
 180 49 l 1
 226 30 l 1
 245 -16 l 1
EndSplineSet
EndChar

StartChar: parenright.2
Encoding: 65675 -1 270
Width: 280
VWidth: 0
Flags: W
VStem: 191 60<183.871 481.534>
LayerCount: 2
Fore
SplineSet
170 -5 m 1
 151 -51 l 1
 105 -70 l 1
 59 -51 l 1
 40 -5 l 1
 59 41 l 1
 105 60 l 1
 113 57 l 1
 166 144 194 246 191 351 c 0
 188 449 157 544 103 627 c 1
 93 623 l 1
 47 642 l 1
 28 688 l 1
 47 734 l 1
 93 753 l 1
 139 734 l 1
 158 688 l 1
 148 664 l 1
 213 572 248 463 251 352 c 0
 255 234 222 118 159 21 c 1
 170 -5 l 1
EndSplineSet
EndChar

StartChar: asterisk.2
Encoding: 65676 -1 271
Width: 414
VWidth: 0
Flags: W
HStem: 603 50<112 133 246 253> 754 20G<134 225>
LayerCount: 2
Fore
SplineSet
201 553 m 1
 190 586 l 1
 181 529 l 1
 194 545 l 1
 201 553 l 1
205 466 m 1
 256 390 l 1
 222 490 l 1
 217 483 211 475 205 466 c 1
133 606 m 1
 112 607 l 1
 129 581 l 1
 133 606 l 1
248 598 m 1
 253 603 l 1
 246 603 l 1
 248 598 l 1
142 660 m 1
 134 663 l 1
 114 709 l 1
 134 755 l 1
 179 774 l 1
 225 755 l 1
 244 709 l 1
 225 664 l 1
 229 653 l 1
 332 651 l 2
 335 651 345 650 353 642 c 0
 361 635 367 617 349 606 c 0
 321 589 294 569 269 544 c 1
 267 541 l 1
 383 196 l 2
 384 192 387 178 371 169 c 0
 361 164 339 161 328 177 c 2
 174 410 l 1
 167 395 160 380 154 362 c 1
 127 194 l 2
 124 175 102 171 90 173 c 0
 71 176 67 192 67 197 c 0
 66 258 76 318 95 373 c 1
 115 498 l 1
 34 621 l 2
 33 622 30 624 30 632 c 0
 29 642 38 659 61 658 c 2
 141 656 l 1
 142 660 l 1
EndSplineSet
EndChar

StartChar: plus.2
Encoding: 65677 -1 272
Width: 390
VWidth: 0
Flags: W
HStem: 331 50<149 172 235 241>
VStem: 29 332
LayerCount: 2
Fore
SplineSet
284 596 m 1
 265 550 l 1
 246 542 l 1
 235 381 l 1
 241 381 l 1
 250 404 l 1
 296 423 l 1
 342 404 l 1
 361 358 l 1
 342 312 l 1
 296 293 l 1
 250 312 l 1
 242 331 l 1
 232 331 l 1
 219 128 l 1
 232 123 l 1
 251 77 l 1
 232 31 l 1
 186 12 l 1
 140 31 l 1
 121 77 l 1
 140 123 l 1
 159 131 l 1
 172 329 l 1
 149 328 l 1
 140 305 l 1
 94 286 l 1
 48 305 l 1
 29 351 l 1
 48 397 l 1
 94 416 l 1
 140 397 l 1
 148 378 l 1
 175 379 l 1
 186 545 l 1
 173 550 l 1
 154 596 l 1
 173 642 l 1
 219 661 l 1
 265 642 l 1
 284 596 l 1
EndSplineSet
EndChar

StartChar: comma.2
Encoding: 65678 -1 273
Width: 206
VWidth: 0
Flags: W
VStem: 76 61<-176 -35>
LayerCount: 2
Fore
SplineSet
170 -229 m 1
 151 -274 l 1
 105 -294 l 1
 59 -274 l 1
 40 -229 l 1
 59 -183 l 1
 76 -176 l 1
 77 -68 l 1
 75 -35 l 1
 55 -27 l 1
 36 19 l 1
 55 65 l 1
 101 84 l 1
 147 65 l 1
 166 19 l 1
 147 -27 l 1
 135 -32 l 1
 137 -66 l 1
 137 -68 l 1
 136 -177 l 1
 151 -183 l 1
 170 -229 l 1
EndSplineSet
EndChar

StartChar: hyphen.2
Encoding: 65679 -1 274
Width: 302
VWidth: 0
Flags: W
HStem: 237 174
VStem: 34 234
LayerCount: 2
Fore
SplineSet
268 346 m 1
 249 300 l 1
 203 281 l 1
 162 298 l 1
 145 256 l 1
 99 237 l 1
 53 256 l 1
 34 302 l 1
 53 348 l 1
 99 367 l 1
 140 350 l 1
 157 391 l 1
 203 411 l 1
 249 391 l 1
 268 346 l 1
EndSplineSet
EndChar

StartChar: period.2
Encoding: 65680 -1 275
Width: 203
VWidth: 0
Flags: W
HStem: 61 130
VStem: 37 130
LayerCount: 2
Fore
SplineSet
167 126 m 1
 148 80 l 1
 102 61 l 1
 56 80 l 1
 37 126 l 1
 56 172 l 1
 102 191 l 1
 148 172 l 1
 167 126 l 1
EndSplineSet
EndChar

StartChar: slash.2
Encoding: 65681 -1 276
Width: 354
VWidth: 0
Flags: W
HStem: 773 20G<215 306>
VStem: 28 298
LayerCount: 2
Fore
SplineSet
326 728 m 1
 306 682 l 1
 278 670 l 1
 135 12 l 1
 139 10 l 1
 158 -36 l 1
 139 -82 l 1
 93 -101 l 1
 47 -82 l 1
 28 -36 l 1
 47 10 l 1
 75 21 l 1
 220 680 l 1
 215 682 l 1
 195 728 l 1
 215 774 l 1
 261 793 l 1
 306 774 l 1
 326 728 l 1
EndSplineSet
EndChar

StartChar: zero.2
Encoding: 65682 -1 277
Width: 403
VWidth: 0
Flags: W
HStem: -60 50<141.221 262.943> 745 20G<174 266>
VStem: 29 60<49.1172 297.131>
LayerCount: 2
Fore
SplineSet
211 553 m 1
 191 494 168 437 143 383 c 0
 108 307 90 228 89 163 c 0
 87 50 132 -9 201 -10 c 0
 214 -10 225 -8 234 -6 c 0
 328 21 338 212 254 416 c 0
 235 462 221 508 211 553 c 1
285 700 m 1
 266 654 l 1
 255 649 l 1
 257 633 l 1
 267 565 284 498 311 432 c 0
 390 238 418 -6 253 -53 c 0
 238 -57 221 -60 201 -60 c 0
 76 -59 27 48 29 164 c 0
 30 236 49 319 87 401 c 0
 124 482 155 562 178 652 c 1
 174 654 l 1
 155 700 l 1
 174 746 l 1
 220 765 l 1
 266 746 l 1
 285 700 l 1
EndSplineSet
EndChar

StartChar: one.2
Encoding: 65683 -1 278
Width: 275
VWidth: 0
Flags: W
VStem: 144 53<449 490 719.971 768.805> 150 60<73 374>
LayerCount: 2
Fore
SplineSet
246 20 m 1x40
 227 -26 l 1
 181 -45 l 1
 135 -26 l 1
 116 20 l 1
 135 66 l 1
 150 72 l 1x40
 144 374 l 1
 140 364 l 1
 94 345 l 1
 48 364 l 1
 29 410 l 1
 48 456 l 1
 76 467 l 1
 138 749 l 2
 142 767 164 772 175 769 c 0
 193 765 197 751 197 745 c 2x80
 210 73 l 1
 227 66 l 1
 246 20 l 1x40
143 449 m 1
 142 490 l 1
 135 458 l 1
 140 456 l 1
 143 449 l 1
EndSplineSet
EndChar

StartChar: two.2
Encoding: 65684 -1 279
Width: 376
VWidth: 0
Flags: W
HStem: 10 50<181 227> 653 50<115.289 209.469>
LayerCount: 2
Fore
SplineSet
347 35 m 1
 328 -11 l 1
 282 -30 l 1
 236 -11 l 1
 227 10 l 1
 126 10 l 2
 125 10 118 9 110 13 c 0
 100 18 88 34 101 49 c 0
 192 158 251 293 268 438 c 0
 282 559 221 649 168 653 c 0
 160 654 152 653 141 649 c 0
 99 636 82 587 95 549 c 1
 110 555 l 1
 156 536 l 1
 175 490 l 1
 156 444 l 1
 110 425 l 1
 64 444 l 1
 45 490 l 1
 52 506 l 1
 48 511 45 517 42 523 c 0
 12 586 39 670 119 696 c 0
 139 702 157 704 174 703 c 0
 289 694 341 557 327 433 c 0
 311 297 260 168 181 60 c 1
 227 60 l 1
 236 81 l 1
 282 100 l 1
 328 81 l 1
 347 35 l 1
EndSplineSet
EndChar

StartChar: three.2
Encoding: 65685 -1 280
Width: 330
VWidth: 0
Flags: W
HStem: 676 50<115.879 207.925>
VStem: 30 60<570.7 652.502>
LayerCount: 2
Fore
SplineSet
166 151 m 1
 147 105 l 1
 103 87 l 1
 103 67 112 48 127 36 c 0
 169 6 217 34 232 107 c 0
 237 133 238 163 230 196 c 0
 212 269 172 336 114 386 c 0
 113 386 111 387 108 394 c 0
 104 403 106 421 127 427 c 0
 182 442 229 490 238 556 c 0
 247 623 208 675 167 676 c 0
 127 677 92 645 90 599 c 0
 90 589 91 579 94 570 c 1
 106 575 l 1
 152 556 l 1
 171 510 l 1
 152 464 l 1
 106 445 l 1
 60 464 l 1
 41 510 l 1
 49 530 l 1
 34 553 29 577 30 601 c 0
 33 663 85 729 170 726 c 0
 268 722 308 626 298 550 c 0
 289 481 245 425 185 395 c 1
 238 340 272 275 289 206 c 0
 299 167 298 130 291 98 c 0
 277 29 225 -36 142 -24 c 0
 118 -21 100 -12 86 -1 c 0
 47 29 34 79 49 122 c 1
 36 151 l 1
 56 197 l 1
 101 216 l 1
 147 197 l 1
 166 151 l 1
EndSplineSet
EndChar

StartChar: four.2
Encoding: 65686 -1 281
Width: 315
VWidth: 0
Flags: W
VStem: 184 60<196 340.5> 209 59<711 727.758>
LayerCount: 2
Fore
SplineSet
269 -14 m 1x40
 250 -60 l 1
 204 -79 l 1
 158 -60 l 1
 139 -14 l 1
 158 32 l 1
 176 40 l 1
 179 93 l 1
 176 94 l 1
 164 124 l 1
 52 142 l 2
 30 146 26 164 29 173 c 2
 209 711 l 2
 215 729 237 731 248 728 c 0
 266 723 268 707 268 703 c 2x40
 244 196 l 1x80
 268 186 l 1
 287 140 l 1
 268 94 l 1
 238 82 l 1
 236 38 l 1
 250 32 l 1
 269 -14 l 1x40
184 189 m 1x80
 198 492 l 1
 95 186 l 1
 171 174 l 1
 176 186 l 1
 184 189 l 1x80
EndSplineSet
EndChar

StartChar: five.2
Encoding: 65687 -1 282
Width: 356
VWidth: 0
Flags: W
HStem: 752 20G<178 270>
LayerCount: 2
Fore
SplineSet
191 131 m 1
 172 85 l 1
 129 67 l 1
 130 43 144 20 167 14 c 0
 196 5 230 17 252 66 c 0
 269 104 274 158 253 217 c 0
 216 321 141 409 43 461 c 0
 36 465 27 473 29 485 c 2
 61 702 l 2
 62 709 71 723 89 724 c 2
 168 729 l 1
 178 753 l 1
 224 772 l 1
 270 753 l 1
 289 707 l 1
 270 661 l 1
 224 642 l 1
 178 661 l 1
 171 679 l 1
 118 676 l 1
 91 494 l 1
 196 433 271 340 310 232 c 0
 335 163 330 98 308 49 c 0
 281 -11 219 -56 146 -33 c 0
 131 -28 120 -22 111 -15 c 0
 73 14 60 60 73 101 c 1
 61 131 l 1
 80 177 l 1
 126 196 l 1
 172 177 l 1
 191 131 l 1
EndSplineSet
EndChar

StartChar: six.2
Encoding: 65688 -1 283
Width: 321
VWidth: 0
Flags: W
VStem: 77 60<29.3046 102>
LayerCount: 2
Fore
SplineSet
158 160 m 1
 139 114 l 1
 137 113 l 1
 137 107 137 101 137 96 c 0
 142 33 169 12 190 13 c 0
 194 13 196 14 198 14 c 0
 230 22 244 99 208 197 c 0
 195 232 186 270 180 303 c 1
 151 228 l 1
 145 191 l 1
 158 160 l 1
283 685 m 1
 264 639 l 1
 235 627 l 1
 221 573 208 519 197 466 c 1
 199 466 201 466 203 466 c 0
 215 466 234 459 233 440 c 0
 228 364 239 286 266 212 c 0
 298 125 318 -8 215 -34 c 0
 210 -35 203 -36 194 -37 c 0
 113 -42 82 31 77 93 c 0
 77 96 76 99 76 102 c 1
 47 114 l 1
 28 160 l 1
 47 206 l 1
 86 222 l 1
 93 239 l 1
 115 378 143 505 176 637 c 1
 172 639 l 1
 153 685 l 1
 172 731 l 1
 218 750 l 1
 264 731 l 1
 283 685 l 1
EndSplineSet
EndChar

StartChar: seven.2
Encoding: 65689 -1 284
Width: 335
VWidth: 0
Flags: W
VStem: 108 60<43 261.582>
LayerCount: 2
Fore
SplineSet
202 -10 m 1
 183 -56 l 1
 137 -75 l 1
 91 -56 l 1
 72 -10 l 1
 91 36 l 1
 108 43 l 1
 114 256 158 467 239 667 c 1
 141 694 l 1
 139 688 l 1
 93 669 l 1
 47 688 l 1
 28 734 l 1
 47 780 l 1
 93 799 l 1
 139 780 l 1
 154 743 l 1
 287 707 l 2
 309 701 309 682 306 675 c 0
 221 473 174 258 168 42 c 1
 183 36 l 1
 202 -10 l 1
EndSplineSet
EndChar

StartChar: eight.2
Encoding: 65690 -1 285
Width: 354
VWidth: 0
Flags: W
HStem: 745 20G<112 204>
LayerCount: 2
Fore
SplineSet
186 357 m 1
 154 310 129 258 116 200 c 0
 92 99 141 18 186 11 c 0
 192 10 200 10 209 12 c 0
 259 23 281 104 250 204 c 0
 234 257 214 309 186 357 c 1
223 407 m 1
 263 347 288 281 308 217 c 0
 338 121 338 -11 224 -36 c 0
 206 -40 189 -40 175 -38 c 0
 71 -21 33 103 58 210 c 0
 75 284 109 350 153 408 c 1
 122 449 80 490 51 544 c 0
 8 624 36 706 100 729 c 0
 102 730 104 730 106 731 c 1
 112 746 l 1
 158 765 l 1
 204 746 l 1
 223 700 l 1
 223 699 l 1
 282 661 312 590 294 521 c 0
 283 475 250 440 223 407 c 1
106 669 m 1
 90 649 80 611 105 564 c 0
 126 524 159 490 189 453 c 1
 211 480 228 504 235 531 c 0
 247 579 228 624 197 651 c 1
 158 635 l 1
 112 654 l 1
 106 669 l 1
EndSplineSet
EndChar

StartChar: nine.2
Encoding: 65691 -1 286
Width: 382
VWidth: 0
Flags: W
HStem: 689 50<173.911 259.131>
VStem: 29 323
LayerCount: 2
Fore
SplineSet
159 17 m 1
 140 -29 l 1
 94 -48 l 1
 48 -29 l 1
 29 17 l 1
 48 63 l 1
 94 82 l 1
 96 81 l 1
 117 120 138 158 157 197 c 1
 135 206 l 1
 116 252 l 1
 131 288 l 1
 102 356 82 428 73 503 c 0
 61 600 89 729 204 738 c 0
 208 738 213 739 220 739 c 0
 322 735 357 642 352 553 c 0
 350 515 341 473 324 431 c 0
 298 363 269 298 238 233 c 1
 227 206 l 1
 225 205 l 1
 200 153 173 102 145 51 c 1
 159 17 l 1
184 316 m 1
 208 306 l 1
 229 353 249 400 267 446 c 0
 282 484 290 522 292 555 c 0
 296 642 261 687 217 689 c 1
 210 689 l 1
 161 685 120 607 132 508 c 0
 140 441 159 376 184 316 c 1
EndSplineSet
EndChar

StartChar: colon.2
Encoding: 65692 -1 287
Width: 263
VWidth: 0
Flags: W
VStem: 34 195
LayerCount: 2
Fore
SplineSet
229 294 m 1
 210 248 l 1
 164 229 l 1
 118 248 l 1
 99 294 l 1
 118 340 l 1
 164 359 l 1
 210 340 l 1
 229 294 l 1
164 -4 m 1
 145 -50 l 1
 99 -69 l 1
 53 -50 l 1
 34 -4 l 1
 53 42 l 1
 99 61 l 1
 145 42 l 1
 164 -4 l 1
EndSplineSet
EndChar

StartChar: semicolon.2
Encoding: 65693 -1 288
Width: 240
VWidth: 0
Flags: W
VStem: 34 171
LayerCount: 2
Fore
SplineSet
164 290 m 1
 145 245 l 1
 99 225 l 1
 53 245 l 1
 34 290 l 1
 53 336 l 1
 99 355 l 1
 145 336 l 1
 164 290 l 1
176 -240 m 1
 157 -286 l 1
 111 -305 l 1
 65 -286 l 1
 46 -240 l 1
 65 -194 l 1
 104 -178 l 1
 144 -79 l 1
 131 -58 l 1
 126 -60 l 1
 80 -41 l 1
 61 5 l 1
 80 51 l 1
 126 70 l 1
 172 51 l 1
 191 5 l 1
 178 -26 l 1
 203 -65 l 2
 208 -73 207 -80 205 -84 c 2
 159 -199 l 1
 176 -240 l 1
EndSplineSet
EndChar

StartChar: less.2
Encoding: 65694 -1 289
Width: 362
VWidth: 0
Flags: W
LayerCount: 2
Fore
SplineSet
297 106 m 1
 278 60 l 1
 232 41 l 1
 187 60 l 1
 167 106 l 1
 179 135 l 1
 33 359 l 2
 29 364 26 374 34 384 c 2
 212 612 l 1
 202 637 l 1
 221 683 l 1
 267 702 l 1
 313 683 l 1
 332 637 l 1
 313 591 l 1
 267 572 l 1
 256 576 l 1
 94 370 l 1
 226 168 l 1
 232 171 l 1
 278 152 l 1
 297 106 l 1
EndSplineSet
EndChar

